M48
; DRILL file {KiCad 8.0.4} date 2024-10-03T15:25:32-0500
; FORMAT={-:-/ absolute / metric / decimal}
; #@! TF.CreationDate,2024-10-03T15:25:32-05:00
; #@! TF.GenerationSoftware,Kicad,Pcbnew,8.0.4
; #@! TF.FileFunction,Plated,1,2,PTH
FMAT,2
METRIC
; #@! TA.AperFunction,Plated,PTH,ViaDrill
T1C0.100
; #@! TA.AperFunction,Plated,PTH,ViaDrill
T2C0.300
; #@! TA.AperFunction,Plated,PTH,ComponentDrill
T3C0.800
; #@! TA.AperFunction,Plated,PTH,ComponentDrill
T4C1.000
%
G90
G05
T1
X85.5Y-119.188
X89.5Y-119.188
X93.5Y-119.188
X94.5Y-124.0
X97.5Y-119.188
X101.5Y-119.188
X105.5Y-119.188
X106.5Y-124.15
X118.0Y-125.5
X120.5Y-126.0
T2
X120.5Y-135.5
T3
X82.5Y-145.0
X84.5Y-145.0
X86.5Y-145.0
X88.5Y-145.0
X90.5Y-145.0
X92.5Y-145.0
X94.5Y-145.0
X96.5Y-145.0
X98.5Y-145.0
X100.5Y-145.0
X105.5Y-145.0
X107.5Y-145.0
X109.5Y-145.0
X111.5Y-145.0
X113.5Y-145.0
X115.5Y-145.0
X117.5Y-145.0
X119.5Y-145.0
X121.5Y-145.0
X123.5Y-145.0
T4
X124.0Y-127.84
X124.0Y-130.38
X124.0Y-132.92
X124.0Y-135.46
X124.0Y-138.0
M30
