%TF.GenerationSoftware,KiCad,Pcbnew,8.0.4*%
%TF.CreationDate,2024-10-03T18:10:01-05:00*%
%TF.ProjectId,Haptics PWM module,48617074-6963-4732-9050-574d206d6f64,rev?*%
%TF.SameCoordinates,Original*%
%TF.FileFunction,Legend,Top*%
%TF.FilePolarity,Positive*%
%FSLAX46Y46*%
G04 Gerber Fmt 4.6, Leading zero omitted, Abs format (unit mm)*
G04 Created by KiCad (PCBNEW 8.0.4) date 2024-10-03 18:10:01*
%MOMM*%
%LPD*%
G01*
G04 APERTURE LIST*
%ADD10C,0.150000*%
%ADD11C,0.120000*%
G04 APERTURE END LIST*
D10*
X97943275Y-64709333D02*
X97467084Y-65042666D01*
X97943275Y-65280761D02*
X96943275Y-65280761D01*
X96943275Y-65280761D02*
X96943275Y-64899809D01*
X96943275Y-64899809D02*
X96990894Y-64804571D01*
X96990894Y-64804571D02*
X97038513Y-64756952D01*
X97038513Y-64756952D02*
X97133751Y-64709333D01*
X97133751Y-64709333D02*
X97276608Y-64709333D01*
X97276608Y-64709333D02*
X97371846Y-64756952D01*
X97371846Y-64756952D02*
X97419465Y-64804571D01*
X97419465Y-64804571D02*
X97467084Y-64899809D01*
X97467084Y-64899809D02*
X97467084Y-65280761D01*
X96943275Y-63852190D02*
X96943275Y-64042666D01*
X96943275Y-64042666D02*
X96990894Y-64137904D01*
X96990894Y-64137904D02*
X97038513Y-64185523D01*
X97038513Y-64185523D02*
X97181370Y-64280761D01*
X97181370Y-64280761D02*
X97371846Y-64328380D01*
X97371846Y-64328380D02*
X97752798Y-64328380D01*
X97752798Y-64328380D02*
X97848036Y-64280761D01*
X97848036Y-64280761D02*
X97895656Y-64233142D01*
X97895656Y-64233142D02*
X97943275Y-64137904D01*
X97943275Y-64137904D02*
X97943275Y-63947428D01*
X97943275Y-63947428D02*
X97895656Y-63852190D01*
X97895656Y-63852190D02*
X97848036Y-63804571D01*
X97848036Y-63804571D02*
X97752798Y-63756952D01*
X97752798Y-63756952D02*
X97514703Y-63756952D01*
X97514703Y-63756952D02*
X97419465Y-63804571D01*
X97419465Y-63804571D02*
X97371846Y-63852190D01*
X97371846Y-63852190D02*
X97324227Y-63947428D01*
X97324227Y-63947428D02*
X97324227Y-64137904D01*
X97324227Y-64137904D02*
X97371846Y-64233142D01*
X97371846Y-64233142D02*
X97419465Y-64280761D01*
X97419465Y-64280761D02*
X97514703Y-64328380D01*
X90396595Y-65091029D02*
X89920404Y-65424362D01*
X90396595Y-65662457D02*
X89396595Y-65662457D01*
X89396595Y-65662457D02*
X89396595Y-65281505D01*
X89396595Y-65281505D02*
X89444214Y-65186267D01*
X89444214Y-65186267D02*
X89491833Y-65138648D01*
X89491833Y-65138648D02*
X89587071Y-65091029D01*
X89587071Y-65091029D02*
X89729928Y-65091029D01*
X89729928Y-65091029D02*
X89825166Y-65138648D01*
X89825166Y-65138648D02*
X89872785Y-65186267D01*
X89872785Y-65186267D02*
X89920404Y-65281505D01*
X89920404Y-65281505D02*
X89920404Y-65662457D01*
X89396595Y-64186267D02*
X89396595Y-64662457D01*
X89396595Y-64662457D02*
X89872785Y-64710076D01*
X89872785Y-64710076D02*
X89825166Y-64662457D01*
X89825166Y-64662457D02*
X89777547Y-64567219D01*
X89777547Y-64567219D02*
X89777547Y-64329124D01*
X89777547Y-64329124D02*
X89825166Y-64233886D01*
X89825166Y-64233886D02*
X89872785Y-64186267D01*
X89872785Y-64186267D02*
X89968023Y-64138648D01*
X89968023Y-64138648D02*
X90206118Y-64138648D01*
X90206118Y-64138648D02*
X90301356Y-64186267D01*
X90301356Y-64186267D02*
X90348976Y-64233886D01*
X90348976Y-64233886D02*
X90396595Y-64329124D01*
X90396595Y-64329124D02*
X90396595Y-64567219D01*
X90396595Y-64567219D02*
X90348976Y-64662457D01*
X90348976Y-64662457D02*
X90301356Y-64710076D01*
X93804819Y-65079166D02*
X93328628Y-65412499D01*
X93804819Y-65650594D02*
X92804819Y-65650594D01*
X92804819Y-65650594D02*
X92804819Y-65269642D01*
X92804819Y-65269642D02*
X92852438Y-65174404D01*
X92852438Y-65174404D02*
X92900057Y-65126785D01*
X92900057Y-65126785D02*
X92995295Y-65079166D01*
X92995295Y-65079166D02*
X93138152Y-65079166D01*
X93138152Y-65079166D02*
X93233390Y-65126785D01*
X93233390Y-65126785D02*
X93281009Y-65174404D01*
X93281009Y-65174404D02*
X93328628Y-65269642D01*
X93328628Y-65269642D02*
X93328628Y-65650594D01*
X93138152Y-64222023D02*
X93804819Y-64222023D01*
X92757200Y-64460118D02*
X93471485Y-64698213D01*
X93471485Y-64698213D02*
X93471485Y-64079166D01*
X102100595Y-65379819D02*
X102100595Y-66189342D01*
X102100595Y-66189342D02*
X102148214Y-66284580D01*
X102148214Y-66284580D02*
X102195833Y-66332200D01*
X102195833Y-66332200D02*
X102291071Y-66379819D01*
X102291071Y-66379819D02*
X102481547Y-66379819D01*
X102481547Y-66379819D02*
X102576785Y-66332200D01*
X102576785Y-66332200D02*
X102624404Y-66284580D01*
X102624404Y-66284580D02*
X102672023Y-66189342D01*
X102672023Y-66189342D02*
X102672023Y-65379819D01*
X103052976Y-65379819D02*
X103672023Y-65379819D01*
X103672023Y-65379819D02*
X103338690Y-65760771D01*
X103338690Y-65760771D02*
X103481547Y-65760771D01*
X103481547Y-65760771D02*
X103576785Y-65808390D01*
X103576785Y-65808390D02*
X103624404Y-65856009D01*
X103624404Y-65856009D02*
X103672023Y-65951247D01*
X103672023Y-65951247D02*
X103672023Y-66189342D01*
X103672023Y-66189342D02*
X103624404Y-66284580D01*
X103624404Y-66284580D02*
X103576785Y-66332200D01*
X103576785Y-66332200D02*
X103481547Y-66379819D01*
X103481547Y-66379819D02*
X103195833Y-66379819D01*
X103195833Y-66379819D02*
X103100595Y-66332200D01*
X103100595Y-66332200D02*
X103052976Y-66284580D01*
X120048095Y-57304819D02*
X120048095Y-58114342D01*
X120048095Y-58114342D02*
X120095714Y-58209580D01*
X120095714Y-58209580D02*
X120143333Y-58257200D01*
X120143333Y-58257200D02*
X120238571Y-58304819D01*
X120238571Y-58304819D02*
X120429047Y-58304819D01*
X120429047Y-58304819D02*
X120524285Y-58257200D01*
X120524285Y-58257200D02*
X120571904Y-58209580D01*
X120571904Y-58209580D02*
X120619523Y-58114342D01*
X120619523Y-58114342D02*
X120619523Y-57304819D01*
X121048095Y-57400057D02*
X121095714Y-57352438D01*
X121095714Y-57352438D02*
X121190952Y-57304819D01*
X121190952Y-57304819D02*
X121429047Y-57304819D01*
X121429047Y-57304819D02*
X121524285Y-57352438D01*
X121524285Y-57352438D02*
X121571904Y-57400057D01*
X121571904Y-57400057D02*
X121619523Y-57495295D01*
X121619523Y-57495295D02*
X121619523Y-57590533D01*
X121619523Y-57590533D02*
X121571904Y-57733390D01*
X121571904Y-57733390D02*
X121000476Y-58304819D01*
X121000476Y-58304819D02*
X121619523Y-58304819D01*
X82978095Y-82284819D02*
X82978095Y-83094342D01*
X82978095Y-83094342D02*
X83025714Y-83189580D01*
X83025714Y-83189580D02*
X83073333Y-83237200D01*
X83073333Y-83237200D02*
X83168571Y-83284819D01*
X83168571Y-83284819D02*
X83359047Y-83284819D01*
X83359047Y-83284819D02*
X83454285Y-83237200D01*
X83454285Y-83237200D02*
X83501904Y-83189580D01*
X83501904Y-83189580D02*
X83549523Y-83094342D01*
X83549523Y-83094342D02*
X83549523Y-82284819D01*
X84549523Y-83284819D02*
X83978095Y-83284819D01*
X84263809Y-83284819D02*
X84263809Y-82284819D01*
X84263809Y-82284819D02*
X84168571Y-82427676D01*
X84168571Y-82427676D02*
X84073333Y-82522914D01*
X84073333Y-82522914D02*
X83978095Y-82570533D01*
X99362575Y-55425911D02*
X98886384Y-55759244D01*
X99362575Y-55997339D02*
X98362575Y-55997339D01*
X98362575Y-55997339D02*
X98362575Y-55616387D01*
X98362575Y-55616387D02*
X98410194Y-55521149D01*
X98410194Y-55521149D02*
X98457813Y-55473530D01*
X98457813Y-55473530D02*
X98553051Y-55425911D01*
X98553051Y-55425911D02*
X98695908Y-55425911D01*
X98695908Y-55425911D02*
X98791146Y-55473530D01*
X98791146Y-55473530D02*
X98838765Y-55521149D01*
X98838765Y-55521149D02*
X98886384Y-55616387D01*
X98886384Y-55616387D02*
X98886384Y-55997339D01*
X99362575Y-54949720D02*
X99362575Y-54759244D01*
X99362575Y-54759244D02*
X99314956Y-54664006D01*
X99314956Y-54664006D02*
X99267336Y-54616387D01*
X99267336Y-54616387D02*
X99124479Y-54521149D01*
X99124479Y-54521149D02*
X98934003Y-54473530D01*
X98934003Y-54473530D02*
X98553051Y-54473530D01*
X98553051Y-54473530D02*
X98457813Y-54521149D01*
X98457813Y-54521149D02*
X98410194Y-54568768D01*
X98410194Y-54568768D02*
X98362575Y-54664006D01*
X98362575Y-54664006D02*
X98362575Y-54854482D01*
X98362575Y-54854482D02*
X98410194Y-54949720D01*
X98410194Y-54949720D02*
X98457813Y-54997339D01*
X98457813Y-54997339D02*
X98553051Y-55044958D01*
X98553051Y-55044958D02*
X98791146Y-55044958D01*
X98791146Y-55044958D02*
X98886384Y-54997339D01*
X98886384Y-54997339D02*
X98934003Y-54949720D01*
X98934003Y-54949720D02*
X98981622Y-54854482D01*
X98981622Y-54854482D02*
X98981622Y-54664006D01*
X98981622Y-54664006D02*
X98934003Y-54568768D01*
X98934003Y-54568768D02*
X98886384Y-54521149D01*
X98886384Y-54521149D02*
X98791146Y-54473530D01*
X102545075Y-55425911D02*
X102068884Y-55759244D01*
X102545075Y-55997339D02*
X101545075Y-55997339D01*
X101545075Y-55997339D02*
X101545075Y-55616387D01*
X101545075Y-55616387D02*
X101592694Y-55521149D01*
X101592694Y-55521149D02*
X101640313Y-55473530D01*
X101640313Y-55473530D02*
X101735551Y-55425911D01*
X101735551Y-55425911D02*
X101878408Y-55425911D01*
X101878408Y-55425911D02*
X101973646Y-55473530D01*
X101973646Y-55473530D02*
X102021265Y-55521149D01*
X102021265Y-55521149D02*
X102068884Y-55616387D01*
X102068884Y-55616387D02*
X102068884Y-55997339D01*
X101973646Y-54854482D02*
X101926027Y-54949720D01*
X101926027Y-54949720D02*
X101878408Y-54997339D01*
X101878408Y-54997339D02*
X101783170Y-55044958D01*
X101783170Y-55044958D02*
X101735551Y-55044958D01*
X101735551Y-55044958D02*
X101640313Y-54997339D01*
X101640313Y-54997339D02*
X101592694Y-54949720D01*
X101592694Y-54949720D02*
X101545075Y-54854482D01*
X101545075Y-54854482D02*
X101545075Y-54664006D01*
X101545075Y-54664006D02*
X101592694Y-54568768D01*
X101592694Y-54568768D02*
X101640313Y-54521149D01*
X101640313Y-54521149D02*
X101735551Y-54473530D01*
X101735551Y-54473530D02*
X101783170Y-54473530D01*
X101783170Y-54473530D02*
X101878408Y-54521149D01*
X101878408Y-54521149D02*
X101926027Y-54568768D01*
X101926027Y-54568768D02*
X101973646Y-54664006D01*
X101973646Y-54664006D02*
X101973646Y-54854482D01*
X101973646Y-54854482D02*
X102021265Y-54949720D01*
X102021265Y-54949720D02*
X102068884Y-54997339D01*
X102068884Y-54997339D02*
X102164122Y-55044958D01*
X102164122Y-55044958D02*
X102354598Y-55044958D01*
X102354598Y-55044958D02*
X102449836Y-54997339D01*
X102449836Y-54997339D02*
X102497456Y-54949720D01*
X102497456Y-54949720D02*
X102545075Y-54854482D01*
X102545075Y-54854482D02*
X102545075Y-54664006D01*
X102545075Y-54664006D02*
X102497456Y-54568768D01*
X102497456Y-54568768D02*
X102449836Y-54521149D01*
X102449836Y-54521149D02*
X102354598Y-54473530D01*
X102354598Y-54473530D02*
X102164122Y-54473530D01*
X102164122Y-54473530D02*
X102068884Y-54521149D01*
X102068884Y-54521149D02*
X102021265Y-54568768D01*
X102021265Y-54568768D02*
X101973646Y-54664006D01*
X109804819Y-64166666D02*
X109328628Y-64499999D01*
X109804819Y-64738094D02*
X108804819Y-64738094D01*
X108804819Y-64738094D02*
X108804819Y-64357142D01*
X108804819Y-64357142D02*
X108852438Y-64261904D01*
X108852438Y-64261904D02*
X108900057Y-64214285D01*
X108900057Y-64214285D02*
X108995295Y-64166666D01*
X108995295Y-64166666D02*
X109138152Y-64166666D01*
X109138152Y-64166666D02*
X109233390Y-64214285D01*
X109233390Y-64214285D02*
X109281009Y-64261904D01*
X109281009Y-64261904D02*
X109328628Y-64357142D01*
X109328628Y-64357142D02*
X109328628Y-64738094D01*
X108804819Y-63833332D02*
X108804819Y-63166666D01*
X108804819Y-63166666D02*
X109804819Y-63595237D01*
X104871955Y-86393739D02*
X104395764Y-86727072D01*
X104871955Y-86965167D02*
X103871955Y-86965167D01*
X103871955Y-86965167D02*
X103871955Y-86584215D01*
X103871955Y-86584215D02*
X103919574Y-86488977D01*
X103919574Y-86488977D02*
X103967193Y-86441358D01*
X103967193Y-86441358D02*
X104062431Y-86393739D01*
X104062431Y-86393739D02*
X104205288Y-86393739D01*
X104205288Y-86393739D02*
X104300526Y-86441358D01*
X104300526Y-86441358D02*
X104348145Y-86488977D01*
X104348145Y-86488977D02*
X104395764Y-86584215D01*
X104395764Y-86584215D02*
X104395764Y-86965167D01*
X103871955Y-86060405D02*
X103871955Y-85441358D01*
X103871955Y-85441358D02*
X104252907Y-85774691D01*
X104252907Y-85774691D02*
X104252907Y-85631834D01*
X104252907Y-85631834D02*
X104300526Y-85536596D01*
X104300526Y-85536596D02*
X104348145Y-85488977D01*
X104348145Y-85488977D02*
X104443383Y-85441358D01*
X104443383Y-85441358D02*
X104681478Y-85441358D01*
X104681478Y-85441358D02*
X104776716Y-85488977D01*
X104776716Y-85488977D02*
X104824336Y-85536596D01*
X104824336Y-85536596D02*
X104871955Y-85631834D01*
X104871955Y-85631834D02*
X104871955Y-85917548D01*
X104871955Y-85917548D02*
X104824336Y-86012786D01*
X104824336Y-86012786D02*
X104776716Y-86060405D01*
X100954819Y-86391666D02*
X100478628Y-86724999D01*
X100954819Y-86963094D02*
X99954819Y-86963094D01*
X99954819Y-86963094D02*
X99954819Y-86582142D01*
X99954819Y-86582142D02*
X100002438Y-86486904D01*
X100002438Y-86486904D02*
X100050057Y-86439285D01*
X100050057Y-86439285D02*
X100145295Y-86391666D01*
X100145295Y-86391666D02*
X100288152Y-86391666D01*
X100288152Y-86391666D02*
X100383390Y-86439285D01*
X100383390Y-86439285D02*
X100431009Y-86486904D01*
X100431009Y-86486904D02*
X100478628Y-86582142D01*
X100478628Y-86582142D02*
X100478628Y-86963094D01*
X100050057Y-86010713D02*
X100002438Y-85963094D01*
X100002438Y-85963094D02*
X99954819Y-85867856D01*
X99954819Y-85867856D02*
X99954819Y-85629761D01*
X99954819Y-85629761D02*
X100002438Y-85534523D01*
X100002438Y-85534523D02*
X100050057Y-85486904D01*
X100050057Y-85486904D02*
X100145295Y-85439285D01*
X100145295Y-85439285D02*
X100240533Y-85439285D01*
X100240533Y-85439285D02*
X100383390Y-85486904D01*
X100383390Y-85486904D02*
X100954819Y-86058332D01*
X100954819Y-86058332D02*
X100954819Y-85439285D01*
X96954819Y-86391666D02*
X96478628Y-86724999D01*
X96954819Y-86963094D02*
X95954819Y-86963094D01*
X95954819Y-86963094D02*
X95954819Y-86582142D01*
X95954819Y-86582142D02*
X96002438Y-86486904D01*
X96002438Y-86486904D02*
X96050057Y-86439285D01*
X96050057Y-86439285D02*
X96145295Y-86391666D01*
X96145295Y-86391666D02*
X96288152Y-86391666D01*
X96288152Y-86391666D02*
X96383390Y-86439285D01*
X96383390Y-86439285D02*
X96431009Y-86486904D01*
X96431009Y-86486904D02*
X96478628Y-86582142D01*
X96478628Y-86582142D02*
X96478628Y-86963094D01*
X96954819Y-85439285D02*
X96954819Y-86010713D01*
X96954819Y-85724999D02*
X95954819Y-85724999D01*
X95954819Y-85724999D02*
X96097676Y-85820237D01*
X96097676Y-85820237D02*
X96192914Y-85915475D01*
X96192914Y-85915475D02*
X96240533Y-86010713D01*
X129166666Y-60074819D02*
X129166666Y-60789104D01*
X129166666Y-60789104D02*
X129119047Y-60931961D01*
X129119047Y-60931961D02*
X129023809Y-61027200D01*
X129023809Y-61027200D02*
X128880952Y-61074819D01*
X128880952Y-61074819D02*
X128785714Y-61074819D01*
X129547619Y-60074819D02*
X130166666Y-60074819D01*
X130166666Y-60074819D02*
X129833333Y-60455771D01*
X129833333Y-60455771D02*
X129976190Y-60455771D01*
X129976190Y-60455771D02*
X130071428Y-60503390D01*
X130071428Y-60503390D02*
X130119047Y-60551009D01*
X130119047Y-60551009D02*
X130166666Y-60646247D01*
X130166666Y-60646247D02*
X130166666Y-60884342D01*
X130166666Y-60884342D02*
X130119047Y-60979580D01*
X130119047Y-60979580D02*
X130071428Y-61027200D01*
X130071428Y-61027200D02*
X129976190Y-61074819D01*
X129976190Y-61074819D02*
X129690476Y-61074819D01*
X129690476Y-61074819D02*
X129595238Y-61027200D01*
X129595238Y-61027200D02*
X129547619Y-60979580D01*
X72216666Y-82014819D02*
X72216666Y-82729104D01*
X72216666Y-82729104D02*
X72169047Y-82871961D01*
X72169047Y-82871961D02*
X72073809Y-82967200D01*
X72073809Y-82967200D02*
X71930952Y-83014819D01*
X71930952Y-83014819D02*
X71835714Y-83014819D01*
X72645238Y-82110057D02*
X72692857Y-82062438D01*
X72692857Y-82062438D02*
X72788095Y-82014819D01*
X72788095Y-82014819D02*
X73026190Y-82014819D01*
X73026190Y-82014819D02*
X73121428Y-82062438D01*
X73121428Y-82062438D02*
X73169047Y-82110057D01*
X73169047Y-82110057D02*
X73216666Y-82205295D01*
X73216666Y-82205295D02*
X73216666Y-82300533D01*
X73216666Y-82300533D02*
X73169047Y-82443390D01*
X73169047Y-82443390D02*
X72597619Y-83014819D01*
X72597619Y-83014819D02*
X73216666Y-83014819D01*
X95124819Y-59333333D02*
X95839104Y-59333333D01*
X95839104Y-59333333D02*
X95981961Y-59380952D01*
X95981961Y-59380952D02*
X96077200Y-59476190D01*
X96077200Y-59476190D02*
X96124819Y-59619047D01*
X96124819Y-59619047D02*
X96124819Y-59714285D01*
X96124819Y-58333333D02*
X96124819Y-58904761D01*
X96124819Y-58619047D02*
X95124819Y-58619047D01*
X95124819Y-58619047D02*
X95267676Y-58714285D01*
X95267676Y-58714285D02*
X95362914Y-58809523D01*
X95362914Y-58809523D02*
X95410533Y-58904761D01*
X123833333Y-83539580D02*
X123785714Y-83587200D01*
X123785714Y-83587200D02*
X123642857Y-83634819D01*
X123642857Y-83634819D02*
X123547619Y-83634819D01*
X123547619Y-83634819D02*
X123404762Y-83587200D01*
X123404762Y-83587200D02*
X123309524Y-83491961D01*
X123309524Y-83491961D02*
X123261905Y-83396723D01*
X123261905Y-83396723D02*
X123214286Y-83206247D01*
X123214286Y-83206247D02*
X123214286Y-83063390D01*
X123214286Y-83063390D02*
X123261905Y-82872914D01*
X123261905Y-82872914D02*
X123309524Y-82777676D01*
X123309524Y-82777676D02*
X123404762Y-82682438D01*
X123404762Y-82682438D02*
X123547619Y-82634819D01*
X123547619Y-82634819D02*
X123642857Y-82634819D01*
X123642857Y-82634819D02*
X123785714Y-82682438D01*
X123785714Y-82682438D02*
X123833333Y-82730057D01*
X124214286Y-82730057D02*
X124261905Y-82682438D01*
X124261905Y-82682438D02*
X124357143Y-82634819D01*
X124357143Y-82634819D02*
X124595238Y-82634819D01*
X124595238Y-82634819D02*
X124690476Y-82682438D01*
X124690476Y-82682438D02*
X124738095Y-82730057D01*
X124738095Y-82730057D02*
X124785714Y-82825295D01*
X124785714Y-82825295D02*
X124785714Y-82920533D01*
X124785714Y-82920533D02*
X124738095Y-83063390D01*
X124738095Y-83063390D02*
X124166667Y-83634819D01*
X124166667Y-83634819D02*
X124785714Y-83634819D01*
X80883333Y-57859580D02*
X80835714Y-57907200D01*
X80835714Y-57907200D02*
X80692857Y-57954819D01*
X80692857Y-57954819D02*
X80597619Y-57954819D01*
X80597619Y-57954819D02*
X80454762Y-57907200D01*
X80454762Y-57907200D02*
X80359524Y-57811961D01*
X80359524Y-57811961D02*
X80311905Y-57716723D01*
X80311905Y-57716723D02*
X80264286Y-57526247D01*
X80264286Y-57526247D02*
X80264286Y-57383390D01*
X80264286Y-57383390D02*
X80311905Y-57192914D01*
X80311905Y-57192914D02*
X80359524Y-57097676D01*
X80359524Y-57097676D02*
X80454762Y-57002438D01*
X80454762Y-57002438D02*
X80597619Y-56954819D01*
X80597619Y-56954819D02*
X80692857Y-56954819D01*
X80692857Y-56954819D02*
X80835714Y-57002438D01*
X80835714Y-57002438D02*
X80883333Y-57050057D01*
X81835714Y-57954819D02*
X81264286Y-57954819D01*
X81550000Y-57954819D02*
X81550000Y-56954819D01*
X81550000Y-56954819D02*
X81454762Y-57097676D01*
X81454762Y-57097676D02*
X81359524Y-57192914D01*
X81359524Y-57192914D02*
X81264286Y-57240533D01*
X96369104Y-82439285D02*
X96369104Y-81963095D01*
X96654819Y-82534523D02*
X95654819Y-82201190D01*
X95654819Y-82201190D02*
X96654819Y-81867857D01*
X95654819Y-81344047D02*
X95654819Y-81248809D01*
X95654819Y-81248809D02*
X95702438Y-81153571D01*
X95702438Y-81153571D02*
X95750057Y-81105952D01*
X95750057Y-81105952D02*
X95845295Y-81058333D01*
X95845295Y-81058333D02*
X96035771Y-81010714D01*
X96035771Y-81010714D02*
X96273866Y-81010714D01*
X96273866Y-81010714D02*
X96464342Y-81058333D01*
X96464342Y-81058333D02*
X96559580Y-81105952D01*
X96559580Y-81105952D02*
X96607200Y-81153571D01*
X96607200Y-81153571D02*
X96654819Y-81248809D01*
X96654819Y-81248809D02*
X96654819Y-81344047D01*
X96654819Y-81344047D02*
X96607200Y-81439285D01*
X96607200Y-81439285D02*
X96559580Y-81486904D01*
X96559580Y-81486904D02*
X96464342Y-81534523D01*
X96464342Y-81534523D02*
X96273866Y-81582142D01*
X96273866Y-81582142D02*
X96035771Y-81582142D01*
X96035771Y-81582142D02*
X95845295Y-81534523D01*
X95845295Y-81534523D02*
X95750057Y-81486904D01*
X95750057Y-81486904D02*
X95702438Y-81439285D01*
X95702438Y-81439285D02*
X95654819Y-81344047D01*
X100369104Y-82439285D02*
X100369104Y-81963095D01*
X100654819Y-82534523D02*
X99654819Y-82201190D01*
X99654819Y-82201190D02*
X100654819Y-81867857D01*
X100654819Y-81010714D02*
X100654819Y-81582142D01*
X100654819Y-81296428D02*
X99654819Y-81296428D01*
X99654819Y-81296428D02*
X99797676Y-81391666D01*
X99797676Y-81391666D02*
X99892914Y-81486904D01*
X99892914Y-81486904D02*
X99940533Y-81582142D01*
X104286240Y-82456727D02*
X104286240Y-81980537D01*
X104571955Y-82551965D02*
X103571955Y-82218632D01*
X103571955Y-82218632D02*
X104571955Y-81885299D01*
X103667193Y-81599584D02*
X103619574Y-81551965D01*
X103619574Y-81551965D02*
X103571955Y-81456727D01*
X103571955Y-81456727D02*
X103571955Y-81218632D01*
X103571955Y-81218632D02*
X103619574Y-81123394D01*
X103619574Y-81123394D02*
X103667193Y-81075775D01*
X103667193Y-81075775D02*
X103762431Y-81028156D01*
X103762431Y-81028156D02*
X103857669Y-81028156D01*
X103857669Y-81028156D02*
X104000526Y-81075775D01*
X104000526Y-81075775D02*
X104571955Y-81647203D01*
X104571955Y-81647203D02*
X104571955Y-81028156D01*
D11*
%TO.C,R6*%
X98403456Y-64769731D02*
X98403456Y-64315603D01*
X99873456Y-64769731D02*
X99873456Y-64315603D01*
%TO.C,R5*%
X92326776Y-65151427D02*
X92326776Y-64697299D01*
X90856776Y-65151427D02*
X90856776Y-64697299D01*
%TO.C,R4*%
X95735000Y-65139564D02*
X95735000Y-64685436D01*
X94265000Y-65139564D02*
X94265000Y-64685436D01*
%TO.C,U3*%
X100552500Y-66765000D02*
X100552500Y-67040000D01*
X100552500Y-76685000D02*
X100552500Y-76410000D01*
X102862500Y-66765000D02*
X100552500Y-66765000D01*
X102862500Y-66765000D02*
X105172500Y-66765000D01*
X102862500Y-76685000D02*
X100552500Y-76685000D01*
X102862500Y-76685000D02*
X105172500Y-76685000D01*
X105172500Y-66765000D02*
X105172500Y-67040000D01*
X105172500Y-76685000D02*
X105172500Y-76410000D01*
X99962500Y-67040000D02*
X99722500Y-66710000D01*
X100202500Y-66710000D01*
X99962500Y-67040000D01*
G36*
X99962500Y-67040000D02*
G01*
X99722500Y-66710000D01*
X100202500Y-66710000D01*
X99962500Y-67040000D01*
G37*
%TO.C,U2*%
X121810000Y-58850000D02*
G75*
G02*
X119810000Y-58850000I-1000000J0D01*
G01*
X123460000Y-81830000D02*
X123460000Y-58850000D01*
X123460000Y-58850000D02*
X121810000Y-58850000D01*
X119810000Y-58850000D02*
X118160000Y-58850000D01*
X118160000Y-81830000D02*
X123460000Y-81830000D01*
X118160000Y-58850000D02*
X118160000Y-81830000D01*
%TO.C,U1*%
X82740000Y-81830000D02*
G75*
G02*
X84740000Y-81830000I1000000J0D01*
G01*
X81090000Y-58850000D02*
X81090000Y-81830000D01*
X81090000Y-81830000D02*
X82740000Y-81830000D01*
X84740000Y-81830000D02*
X86390000Y-81830000D01*
X86390000Y-58850000D02*
X81090000Y-58850000D01*
X86390000Y-81830000D02*
X86390000Y-58850000D01*
%TO.C,R9*%
X101275790Y-55040368D02*
X101275790Y-55494496D01*
X99805790Y-55040368D02*
X99805790Y-55494496D01*
%TO.C,R8*%
X104458290Y-55040368D02*
X104458290Y-55494496D01*
X102988290Y-55040368D02*
X102988290Y-55494496D01*
%TO.C,R7*%
X110265000Y-64227064D02*
X110265000Y-63772936D01*
X111735000Y-64227064D02*
X111735000Y-63772936D01*
%TO.C,R3*%
X106652136Y-86000009D02*
X106652136Y-86454137D01*
X105182136Y-86000009D02*
X105182136Y-86454137D01*
%TO.C,R2*%
X101265000Y-85997936D02*
X101265000Y-86452064D01*
X102735000Y-85997936D02*
X102735000Y-86452064D01*
%TO.C,R1*%
X98735000Y-85997936D02*
X98735000Y-86452064D01*
X97265000Y-85997936D02*
X97265000Y-86452064D01*
%TO.C,J3*%
X130560000Y-63680000D02*
X130560000Y-81740000D01*
X128440000Y-81740000D02*
X130560000Y-81740000D01*
X128440000Y-63680000D02*
X130560000Y-63680000D01*
X128440000Y-63680000D02*
X128440000Y-81740000D01*
X128440000Y-62680000D02*
X128440000Y-61620000D01*
X128440000Y-61620000D02*
X129500000Y-61620000D01*
%TO.C,J2*%
X73610000Y-81560000D02*
X72550000Y-81560000D01*
X73610000Y-80500000D02*
X73610000Y-81560000D01*
X73610000Y-79500000D02*
X73610000Y-61440000D01*
X73610000Y-79500000D02*
X71490000Y-79500000D01*
X73610000Y-61440000D02*
X71490000Y-61440000D01*
X71490000Y-79500000D02*
X71490000Y-61440000D01*
%TO.C,J1*%
X99270000Y-57670000D02*
X109490000Y-57670000D01*
X109490000Y-60330000D02*
X109490000Y-57670000D01*
X99270000Y-60330000D02*
X99270000Y-57670000D01*
X99270000Y-60330000D02*
X109490000Y-60330000D01*
X98000000Y-60330000D02*
X96670000Y-60330000D01*
X96670000Y-60330000D02*
X96670000Y-59000000D01*
%TO.C,C2*%
X120688748Y-82445000D02*
X121211252Y-82445000D01*
X120688748Y-83915000D02*
X121211252Y-83915000D01*
%TO.C,C1*%
X84261252Y-56765000D02*
X83738748Y-56765000D01*
X84261252Y-58235000D02*
X83738748Y-58235000D01*
%TO.C,A0*%
X97000000Y-83125000D02*
X97000000Y-80325000D01*
X99000000Y-83125000D02*
X97000000Y-83125000D01*
X97000000Y-80325000D02*
X99000000Y-80325000D01*
X99000000Y-80325000D02*
X99000000Y-83125000D01*
%TO.C,A1*%
X101000000Y-83125000D02*
X101000000Y-80325000D01*
X103000000Y-83125000D02*
X101000000Y-83125000D01*
X101000000Y-80325000D02*
X103000000Y-80325000D01*
X103000000Y-80325000D02*
X103000000Y-83125000D01*
%TO.C,A2*%
X104917136Y-83142442D02*
X104917136Y-80342442D01*
X106917136Y-83142442D02*
X104917136Y-83142442D01*
X104917136Y-80342442D02*
X106917136Y-80342442D01*
X106917136Y-80342442D02*
X106917136Y-83142442D01*
%TD*%
M02*
