%TF.GenerationSoftware,KiCad,Pcbnew,8.0.4*%
%TF.CreationDate,2024-10-03T18:10:01-05:00*%
%TF.ProjectId,Haptics PWM module,48617074-6963-4732-9050-574d206d6f64,rev?*%
%TF.SameCoordinates,Original*%
%TF.FileFunction,Soldermask,Top*%
%TF.FilePolarity,Negative*%
%FSLAX46Y46*%
G04 Gerber Fmt 4.6, Leading zero omitted, Abs format (unit mm)*
G04 Created by KiCad (PCBNEW 8.0.4) date 2024-10-03 18:10:01*
%MOMM*%
%LPD*%
G01*
G04 APERTURE LIST*
G04 Aperture macros list*
%AMRoundRect*
0 Rectangle with rounded corners*
0 $1 Rounding radius*
0 $2 $3 $4 $5 $6 $7 $8 $9 X,Y pos of 4 corners*
0 Add a 4 corners polygon primitive as box body*
4,1,4,$2,$3,$4,$5,$6,$7,$8,$9,$2,$3,0*
0 Add four circle primitives for the rounded corners*
1,1,$1+$1,$2,$3*
1,1,$1+$1,$4,$5*
1,1,$1+$1,$6,$7*
1,1,$1+$1,$8,$9*
0 Add four rect primitives between the rounded corners*
20,1,$1+$1,$2,$3,$4,$5,0*
20,1,$1+$1,$4,$5,$6,$7,0*
20,1,$1+$1,$6,$7,$8,$9,0*
20,1,$1+$1,$8,$9,$2,$3,0*%
%AMFreePoly0*
4,1,6,1.000000,0.000000,0.500000,-0.750000,-0.500000,-0.750000,-0.500000,0.750000,0.500000,0.750000,1.000000,0.000000,1.000000,0.000000,$1*%
%AMFreePoly1*
4,1,6,0.500000,-0.750000,-0.650000,-0.750000,-0.150000,0.000000,-0.650000,0.750000,0.500000,0.750000,0.500000,-0.750000,0.500000,-0.750000,$1*%
G04 Aperture macros list end*
%ADD10RoundRect,0.250000X0.450000X-0.262500X0.450000X0.262500X-0.450000X0.262500X-0.450000X-0.262500X0*%
%ADD11RoundRect,0.100000X-0.637500X-0.100000X0.637500X-0.100000X0.637500X0.100000X-0.637500X0.100000X0*%
%ADD12O,1.600000X1.600000*%
%ADD13R,1.600000X1.600000*%
%ADD14RoundRect,0.250000X-0.450000X0.262500X-0.450000X-0.262500X0.450000X-0.262500X0.450000X0.262500X0*%
%ADD15O,1.350000X1.350000*%
%ADD16R,1.350000X1.350000*%
%ADD17O,1.700000X1.700000*%
%ADD18R,1.700000X1.700000*%
%ADD19RoundRect,0.250000X-0.250000X-0.475000X0.250000X-0.475000X0.250000X0.475000X-0.250000X0.475000X0*%
%ADD20RoundRect,0.250000X0.250000X0.475000X-0.250000X0.475000X-0.250000X-0.475000X0.250000X-0.475000X0*%
%ADD21FreePoly0,90.000000*%
%ADD22FreePoly1,90.000000*%
G04 APERTURE END LIST*
D10*
%TO.C,R6*%
X99138456Y-65455167D03*
X99138456Y-63630167D03*
%TD*%
%TO.C,R5*%
X91591776Y-64011863D03*
X91591776Y-65836863D03*
%TD*%
%TO.C,R4*%
X95000000Y-64000000D03*
X95000000Y-65825000D03*
%TD*%
D11*
%TO.C,U3*%
X100000000Y-67500000D03*
X100000000Y-68150000D03*
X100000000Y-68800000D03*
X100000000Y-69450000D03*
X100000000Y-70100000D03*
X100000000Y-70750000D03*
X100000000Y-71400000D03*
X100000000Y-72050000D03*
X100000000Y-72700000D03*
X100000000Y-73350000D03*
X100000000Y-74000000D03*
X100000000Y-74650000D03*
X100000000Y-75300000D03*
X100000000Y-75950000D03*
X105725000Y-75950000D03*
X105725000Y-75300000D03*
X105725000Y-74650000D03*
X105725000Y-74000000D03*
X105725000Y-73350000D03*
X105725000Y-72700000D03*
X105725000Y-72050000D03*
X105725000Y-71400000D03*
X105725000Y-70750000D03*
X105725000Y-70100000D03*
X105725000Y-69450000D03*
X105725000Y-68800000D03*
X105725000Y-68150000D03*
X105725000Y-67500000D03*
%TD*%
D12*
%TO.C,U2*%
X124620000Y-60180000D03*
X124620000Y-62720000D03*
X124620000Y-65260000D03*
X124620000Y-67800000D03*
X124620000Y-70340000D03*
X124620000Y-72880000D03*
X124620000Y-75420000D03*
X124620000Y-77960000D03*
X124620000Y-80500000D03*
X117000000Y-80500000D03*
X117000000Y-77960000D03*
X117000000Y-75420000D03*
X117000000Y-72880000D03*
X117000000Y-70340000D03*
X117000000Y-67800000D03*
X117000000Y-65260000D03*
X117000000Y-62720000D03*
D13*
X117000000Y-60180000D03*
%TD*%
D12*
%TO.C,U1*%
X79930000Y-80500000D03*
X79930000Y-77960000D03*
X79930000Y-75420000D03*
X79930000Y-72880000D03*
X79930000Y-70340000D03*
X79930000Y-67800000D03*
X79930000Y-65260000D03*
X79930000Y-62720000D03*
X79930000Y-60180000D03*
X87550000Y-60180000D03*
X87550000Y-62720000D03*
X87550000Y-65260000D03*
X87550000Y-67800000D03*
X87550000Y-70340000D03*
X87550000Y-72880000D03*
X87550000Y-75420000D03*
X87550000Y-77960000D03*
D13*
X87550000Y-80500000D03*
%TD*%
D14*
%TO.C,R9*%
X100540790Y-54354932D03*
X100540790Y-56179932D03*
%TD*%
%TO.C,R8*%
X103723290Y-54354932D03*
X103723290Y-56179932D03*
%TD*%
D10*
%TO.C,R7*%
X111000000Y-64912500D03*
X111000000Y-63087500D03*
%TD*%
D14*
%TO.C,R3*%
X105917136Y-85314573D03*
X105917136Y-87139573D03*
%TD*%
%TO.C,R2*%
X102000000Y-87137500D03*
X102000000Y-85312500D03*
%TD*%
%TO.C,R1*%
X98000000Y-85312500D03*
X98000000Y-87137500D03*
%TD*%
D15*
%TO.C,J3*%
X129500000Y-80680000D03*
X129500000Y-78680000D03*
X129500000Y-76680000D03*
X129500000Y-74680000D03*
X129500000Y-72680000D03*
X129500000Y-70680000D03*
X129500000Y-68680000D03*
X129500000Y-66680000D03*
X129500000Y-64680000D03*
D16*
X129500000Y-62680000D03*
%TD*%
%TO.C,J2*%
X72550000Y-80500000D03*
D15*
X72550000Y-78500000D03*
X72550000Y-76500000D03*
X72550000Y-74500000D03*
X72550000Y-72500000D03*
X72550000Y-70500000D03*
X72550000Y-68500000D03*
X72550000Y-66500000D03*
X72550000Y-64500000D03*
X72550000Y-62500000D03*
%TD*%
D17*
%TO.C,J1*%
X108160000Y-59000000D03*
X105620000Y-59000000D03*
X103080000Y-59000000D03*
X100540000Y-59000000D03*
D18*
X98000000Y-59000000D03*
%TD*%
D19*
%TO.C,C2*%
X120000000Y-83180000D03*
X121900000Y-83180000D03*
%TD*%
D20*
%TO.C,C1*%
X83050000Y-57500000D03*
X84950000Y-57500000D03*
%TD*%
D21*
%TO.C,A0*%
X98000000Y-82450000D03*
D22*
X98000000Y-81000000D03*
%TD*%
D21*
%TO.C,A1*%
X102000000Y-82450000D03*
D22*
X102000000Y-81000000D03*
%TD*%
D21*
%TO.C,A2*%
X105917136Y-82467442D03*
D22*
X105917136Y-81017442D03*
%TD*%
M02*
