%TF.GenerationSoftware,KiCad,Pcbnew,8.0.4*%
%TF.CreationDate,2024-09-01T22:57:30-05:00*%
%TF.ProjectId,Haptics PWM module,48617074-6963-4732-9050-574d206d6f64,rev?*%
%TF.SameCoordinates,Original*%
%TF.FileFunction,Legend,Top*%
%TF.FilePolarity,Positive*%
%FSLAX46Y46*%
G04 Gerber Fmt 4.6, Leading zero omitted, Abs format (unit mm)*
G04 Created by KiCad (PCBNEW 8.0.4) date 2024-09-01 22:57:30*
%MOMM*%
%LPD*%
G01*
G04 APERTURE LIST*
%ADD10C,0.100000*%
%ADD11C,0.200000*%
%ADD12C,0.150000*%
%ADD13C,0.120000*%
G04 APERTURE END LIST*
D10*
X84447070Y-142658235D02*
X84523260Y-142658235D01*
X84523260Y-142658235D02*
X84599451Y-142696330D01*
X84599451Y-142696330D02*
X84637546Y-142734425D01*
X84637546Y-142734425D02*
X84675641Y-142810616D01*
X84675641Y-142810616D02*
X84713736Y-142962997D01*
X84713736Y-142962997D02*
X84713736Y-143153473D01*
X84713736Y-143153473D02*
X84675641Y-143305854D01*
X84675641Y-143305854D02*
X84637546Y-143382044D01*
X84637546Y-143382044D02*
X84599451Y-143420140D01*
X84599451Y-143420140D02*
X84523260Y-143458235D01*
X84523260Y-143458235D02*
X84447070Y-143458235D01*
X84447070Y-143458235D02*
X84370879Y-143420140D01*
X84370879Y-143420140D02*
X84332784Y-143382044D01*
X84332784Y-143382044D02*
X84294689Y-143305854D01*
X84294689Y-143305854D02*
X84256593Y-143153473D01*
X84256593Y-143153473D02*
X84256593Y-142962997D01*
X84256593Y-142962997D02*
X84294689Y-142810616D01*
X84294689Y-142810616D02*
X84332784Y-142734425D01*
X84332784Y-142734425D02*
X84370879Y-142696330D01*
X84370879Y-142696330D02*
X84447070Y-142658235D01*
X86770900Y-143488487D02*
X86313757Y-143488487D01*
X86542329Y-143488487D02*
X86542329Y-142688487D01*
X86542329Y-142688487D02*
X86466138Y-142802772D01*
X86466138Y-142802772D02*
X86389948Y-142878963D01*
X86389948Y-142878963D02*
X86313757Y-142917058D01*
X88370920Y-142779803D02*
X88409016Y-142741708D01*
X88409016Y-142741708D02*
X88485206Y-142703613D01*
X88485206Y-142703613D02*
X88675682Y-142703613D01*
X88675682Y-142703613D02*
X88751873Y-142741708D01*
X88751873Y-142741708D02*
X88789968Y-142779803D01*
X88789968Y-142779803D02*
X88828063Y-142855994D01*
X88828063Y-142855994D02*
X88828063Y-142932184D01*
X88828063Y-142932184D02*
X88789968Y-143046470D01*
X88789968Y-143046470D02*
X88332825Y-143503613D01*
X88332825Y-143503613D02*
X88828063Y-143503613D01*
X90238727Y-142627982D02*
X90733965Y-142627982D01*
X90733965Y-142627982D02*
X90467299Y-142932744D01*
X90467299Y-142932744D02*
X90581584Y-142932744D01*
X90581584Y-142932744D02*
X90657775Y-142970839D01*
X90657775Y-142970839D02*
X90695870Y-143008934D01*
X90695870Y-143008934D02*
X90733965Y-143085125D01*
X90733965Y-143085125D02*
X90733965Y-143275601D01*
X90733965Y-143275601D02*
X90695870Y-143351791D01*
X90695870Y-143351791D02*
X90657775Y-143389887D01*
X90657775Y-143389887D02*
X90581584Y-143427982D01*
X90581584Y-143427982D02*
X90353013Y-143427982D01*
X90353013Y-143427982D02*
X90276822Y-143389887D01*
X90276822Y-143389887D02*
X90238727Y-143351791D01*
X92639307Y-142909774D02*
X92639307Y-143443108D01*
X92448831Y-142605013D02*
X92258354Y-143176441D01*
X92258354Y-143176441D02*
X92753593Y-143176441D01*
X94734566Y-142673361D02*
X94353614Y-142673361D01*
X94353614Y-142673361D02*
X94315518Y-143054313D01*
X94315518Y-143054313D02*
X94353614Y-143016218D01*
X94353614Y-143016218D02*
X94429804Y-142978123D01*
X94429804Y-142978123D02*
X94620280Y-142978123D01*
X94620280Y-142978123D02*
X94696471Y-143016218D01*
X94696471Y-143016218D02*
X94734566Y-143054313D01*
X94734566Y-143054313D02*
X94772661Y-143130504D01*
X94772661Y-143130504D02*
X94772661Y-143320980D01*
X94772661Y-143320980D02*
X94734566Y-143397170D01*
X94734566Y-143397170D02*
X94696471Y-143435266D01*
X94696471Y-143435266D02*
X94620280Y-143473361D01*
X94620280Y-143473361D02*
X94429804Y-143473361D01*
X94429804Y-143473361D02*
X94353614Y-143435266D01*
X94353614Y-143435266D02*
X94315518Y-143397170D01*
X96662877Y-142643108D02*
X96510496Y-142643108D01*
X96510496Y-142643108D02*
X96434305Y-142681203D01*
X96434305Y-142681203D02*
X96396210Y-142719298D01*
X96396210Y-142719298D02*
X96320020Y-142833584D01*
X96320020Y-142833584D02*
X96281924Y-142985965D01*
X96281924Y-142985965D02*
X96281924Y-143290727D01*
X96281924Y-143290727D02*
X96320020Y-143366917D01*
X96320020Y-143366917D02*
X96358115Y-143405013D01*
X96358115Y-143405013D02*
X96434305Y-143443108D01*
X96434305Y-143443108D02*
X96586686Y-143443108D01*
X96586686Y-143443108D02*
X96662877Y-143405013D01*
X96662877Y-143405013D02*
X96700972Y-143366917D01*
X96700972Y-143366917D02*
X96739067Y-143290727D01*
X96739067Y-143290727D02*
X96739067Y-143100251D01*
X96739067Y-143100251D02*
X96700972Y-143024060D01*
X96700972Y-143024060D02*
X96662877Y-142985965D01*
X96662877Y-142985965D02*
X96586686Y-142947870D01*
X96586686Y-142947870D02*
X96434305Y-142947870D01*
X96434305Y-142947870D02*
X96358115Y-142985965D01*
X96358115Y-142985965D02*
X96320020Y-143024060D01*
X96320020Y-143024060D02*
X96281924Y-143100251D01*
X98225362Y-142597730D02*
X98758696Y-142597730D01*
X98758696Y-142597730D02*
X98415838Y-143397730D01*
X107443493Y-142978417D02*
X107367303Y-142940322D01*
X107367303Y-142940322D02*
X107329208Y-142902226D01*
X107329208Y-142902226D02*
X107291112Y-142826036D01*
X107291112Y-142826036D02*
X107291112Y-142787941D01*
X107291112Y-142787941D02*
X107329208Y-142711750D01*
X107329208Y-142711750D02*
X107367303Y-142673655D01*
X107367303Y-142673655D02*
X107443493Y-142635560D01*
X107443493Y-142635560D02*
X107595874Y-142635560D01*
X107595874Y-142635560D02*
X107672065Y-142673655D01*
X107672065Y-142673655D02*
X107710160Y-142711750D01*
X107710160Y-142711750D02*
X107748255Y-142787941D01*
X107748255Y-142787941D02*
X107748255Y-142826036D01*
X107748255Y-142826036D02*
X107710160Y-142902226D01*
X107710160Y-142902226D02*
X107672065Y-142940322D01*
X107672065Y-142940322D02*
X107595874Y-142978417D01*
X107595874Y-142978417D02*
X107443493Y-142978417D01*
X107443493Y-142978417D02*
X107367303Y-143016512D01*
X107367303Y-143016512D02*
X107329208Y-143054607D01*
X107329208Y-143054607D02*
X107291112Y-143130798D01*
X107291112Y-143130798D02*
X107291112Y-143283179D01*
X107291112Y-143283179D02*
X107329208Y-143359369D01*
X107329208Y-143359369D02*
X107367303Y-143397465D01*
X107367303Y-143397465D02*
X107443493Y-143435560D01*
X107443493Y-143435560D02*
X107595874Y-143435560D01*
X107595874Y-143435560D02*
X107672065Y-143397465D01*
X107672065Y-143397465D02*
X107710160Y-143359369D01*
X107710160Y-143359369D02*
X107748255Y-143283179D01*
X107748255Y-143283179D02*
X107748255Y-143130798D01*
X107748255Y-143130798D02*
X107710160Y-143054607D01*
X107710160Y-143054607D02*
X107672065Y-143016512D01*
X107672065Y-143016512D02*
X107595874Y-142978417D01*
X109294360Y-143455729D02*
X109446741Y-143455729D01*
X109446741Y-143455729D02*
X109522931Y-143417634D01*
X109522931Y-143417634D02*
X109561027Y-143379538D01*
X109561027Y-143379538D02*
X109637217Y-143265253D01*
X109637217Y-143265253D02*
X109675312Y-143112872D01*
X109675312Y-143112872D02*
X109675312Y-142808110D01*
X109675312Y-142808110D02*
X109637217Y-142731919D01*
X109637217Y-142731919D02*
X109599122Y-142693824D01*
X109599122Y-142693824D02*
X109522931Y-142655729D01*
X109522931Y-142655729D02*
X109370550Y-142655729D01*
X109370550Y-142655729D02*
X109294360Y-142693824D01*
X109294360Y-142693824D02*
X109256265Y-142731919D01*
X109256265Y-142731919D02*
X109218169Y-142808110D01*
X109218169Y-142808110D02*
X109218169Y-142998586D01*
X109218169Y-142998586D02*
X109256265Y-143074776D01*
X109256265Y-143074776D02*
X109294360Y-143112872D01*
X109294360Y-143112872D02*
X109370550Y-143150967D01*
X109370550Y-143150967D02*
X109522931Y-143150967D01*
X109522931Y-143150967D02*
X109599122Y-143112872D01*
X109599122Y-143112872D02*
X109637217Y-143074776D01*
X109637217Y-143074776D02*
X109675312Y-142998586D01*
X111348292Y-143435560D02*
X110891149Y-143435560D01*
X111119721Y-143435560D02*
X111119721Y-142635560D01*
X111119721Y-142635560D02*
X111043530Y-142749845D01*
X111043530Y-142749845D02*
X110967340Y-142826036D01*
X110967340Y-142826036D02*
X110891149Y-142864131D01*
X111843531Y-142635560D02*
X111919721Y-142635560D01*
X111919721Y-142635560D02*
X111995912Y-142673655D01*
X111995912Y-142673655D02*
X112034007Y-142711750D01*
X112034007Y-142711750D02*
X112072102Y-142787941D01*
X112072102Y-142787941D02*
X112110197Y-142940322D01*
X112110197Y-142940322D02*
X112110197Y-143130798D01*
X112110197Y-143130798D02*
X112072102Y-143283179D01*
X112072102Y-143283179D02*
X112034007Y-143359369D01*
X112034007Y-143359369D02*
X111995912Y-143397465D01*
X111995912Y-143397465D02*
X111919721Y-143435560D01*
X111919721Y-143435560D02*
X111843531Y-143435560D01*
X111843531Y-143435560D02*
X111767340Y-143397465D01*
X111767340Y-143397465D02*
X111729245Y-143359369D01*
X111729245Y-143359369D02*
X111691150Y-143283179D01*
X111691150Y-143283179D02*
X111653054Y-143130798D01*
X111653054Y-143130798D02*
X111653054Y-142940322D01*
X111653054Y-142940322D02*
X111691150Y-142787941D01*
X111691150Y-142787941D02*
X111729245Y-142711750D01*
X111729245Y-142711750D02*
X111767340Y-142673655D01*
X111767340Y-142673655D02*
X111843531Y-142635560D01*
X113344950Y-143475897D02*
X112887807Y-143475897D01*
X113116379Y-143475897D02*
X113116379Y-142675897D01*
X113116379Y-142675897D02*
X113040188Y-142790182D01*
X113040188Y-142790182D02*
X112963998Y-142866373D01*
X112963998Y-142866373D02*
X112887807Y-142904468D01*
X114106855Y-143475897D02*
X113649712Y-143475897D01*
X113878284Y-143475897D02*
X113878284Y-142675897D01*
X113878284Y-142675897D02*
X113802093Y-142790182D01*
X113802093Y-142790182D02*
X113725903Y-142866373D01*
X113725903Y-142866373D02*
X113649712Y-142904468D01*
X115321441Y-143435560D02*
X114864298Y-143435560D01*
X115092870Y-143435560D02*
X115092870Y-142635560D01*
X115092870Y-142635560D02*
X115016679Y-142749845D01*
X115016679Y-142749845D02*
X114940489Y-142826036D01*
X114940489Y-142826036D02*
X114864298Y-142864131D01*
X115626203Y-142711750D02*
X115664299Y-142673655D01*
X115664299Y-142673655D02*
X115740489Y-142635560D01*
X115740489Y-142635560D02*
X115930965Y-142635560D01*
X115930965Y-142635560D02*
X116007156Y-142673655D01*
X116007156Y-142673655D02*
X116045251Y-142711750D01*
X116045251Y-142711750D02*
X116083346Y-142787941D01*
X116083346Y-142787941D02*
X116083346Y-142864131D01*
X116083346Y-142864131D02*
X116045251Y-142978417D01*
X116045251Y-142978417D02*
X115588108Y-143435560D01*
X115588108Y-143435560D02*
X116083346Y-143435560D01*
X117328184Y-143475897D02*
X116871041Y-143475897D01*
X117099613Y-143475897D02*
X117099613Y-142675897D01*
X117099613Y-142675897D02*
X117023422Y-142790182D01*
X117023422Y-142790182D02*
X116947232Y-142866373D01*
X116947232Y-142866373D02*
X116871041Y-142904468D01*
X117594851Y-142675897D02*
X118090089Y-142675897D01*
X118090089Y-142675897D02*
X117823423Y-142980659D01*
X117823423Y-142980659D02*
X117937708Y-142980659D01*
X117937708Y-142980659D02*
X118013899Y-143018754D01*
X118013899Y-143018754D02*
X118051994Y-143056849D01*
X118051994Y-143056849D02*
X118090089Y-143133040D01*
X118090089Y-143133040D02*
X118090089Y-143323516D01*
X118090089Y-143323516D02*
X118051994Y-143399706D01*
X118051994Y-143399706D02*
X118013899Y-143437802D01*
X118013899Y-143437802D02*
X117937708Y-143475897D01*
X117937708Y-143475897D02*
X117709137Y-143475897D01*
X117709137Y-143475897D02*
X117632946Y-143437802D01*
X117632946Y-143437802D02*
X117594851Y-143399706D01*
X119355095Y-143425476D02*
X118897952Y-143425476D01*
X119126524Y-143425476D02*
X119126524Y-142625476D01*
X119126524Y-142625476D02*
X119050333Y-142739761D01*
X119050333Y-142739761D02*
X118974143Y-142815952D01*
X118974143Y-142815952D02*
X118897952Y-142854047D01*
X120040810Y-142892142D02*
X120040810Y-143425476D01*
X119850334Y-142587381D02*
X119659857Y-143158809D01*
X119659857Y-143158809D02*
X120155096Y-143158809D01*
X121361838Y-143385140D02*
X120904695Y-143385140D01*
X121133267Y-143385140D02*
X121133267Y-142585140D01*
X121133267Y-142585140D02*
X121057076Y-142699425D01*
X121057076Y-142699425D02*
X120980886Y-142775616D01*
X120980886Y-142775616D02*
X120904695Y-142813711D01*
X122085648Y-142585140D02*
X121704696Y-142585140D01*
X121704696Y-142585140D02*
X121666600Y-142966092D01*
X121666600Y-142966092D02*
X121704696Y-142927997D01*
X121704696Y-142927997D02*
X121780886Y-142889902D01*
X121780886Y-142889902D02*
X121971362Y-142889902D01*
X121971362Y-142889902D02*
X122047553Y-142927997D01*
X122047553Y-142927997D02*
X122085648Y-142966092D01*
X122085648Y-142966092D02*
X122123743Y-143042283D01*
X122123743Y-143042283D02*
X122123743Y-143232759D01*
X122123743Y-143232759D02*
X122085648Y-143308949D01*
X122085648Y-143308949D02*
X122047553Y-143347045D01*
X122047553Y-143347045D02*
X121971362Y-143385140D01*
X121971362Y-143385140D02*
X121780886Y-143385140D01*
X121780886Y-143385140D02*
X121704696Y-143347045D01*
X121704696Y-143347045D02*
X121666600Y-143308949D01*
X82137217Y-142596895D02*
X81756265Y-142596895D01*
X81756265Y-142596895D02*
X81718169Y-142977847D01*
X81718169Y-142977847D02*
X81756265Y-142939752D01*
X81756265Y-142939752D02*
X81832455Y-142901657D01*
X81832455Y-142901657D02*
X82022931Y-142901657D01*
X82022931Y-142901657D02*
X82099122Y-142939752D01*
X82099122Y-142939752D02*
X82137217Y-142977847D01*
X82137217Y-142977847D02*
X82175312Y-143054038D01*
X82175312Y-143054038D02*
X82175312Y-143244514D01*
X82175312Y-143244514D02*
X82137217Y-143320704D01*
X82137217Y-143320704D02*
X82099122Y-143358800D01*
X82099122Y-143358800D02*
X82022931Y-143396895D01*
X82022931Y-143396895D02*
X81832455Y-143396895D01*
X81832455Y-143396895D02*
X81756265Y-143358800D01*
X81756265Y-143358800D02*
X81718169Y-143320704D01*
X82403884Y-142596895D02*
X82670551Y-143396895D01*
X82670551Y-143396895D02*
X82937217Y-142596895D01*
X100137217Y-142596895D02*
X99756265Y-142596895D01*
X99756265Y-142596895D02*
X99718169Y-142977847D01*
X99718169Y-142977847D02*
X99756265Y-142939752D01*
X99756265Y-142939752D02*
X99832455Y-142901657D01*
X99832455Y-142901657D02*
X100022931Y-142901657D01*
X100022931Y-142901657D02*
X100099122Y-142939752D01*
X100099122Y-142939752D02*
X100137217Y-142977847D01*
X100137217Y-142977847D02*
X100175312Y-143054038D01*
X100175312Y-143054038D02*
X100175312Y-143244514D01*
X100175312Y-143244514D02*
X100137217Y-143320704D01*
X100137217Y-143320704D02*
X100099122Y-143358800D01*
X100099122Y-143358800D02*
X100022931Y-143396895D01*
X100022931Y-143396895D02*
X99832455Y-143396895D01*
X99832455Y-143396895D02*
X99756265Y-143358800D01*
X99756265Y-143358800D02*
X99718169Y-143320704D01*
X100403884Y-142596895D02*
X100670551Y-143396895D01*
X100670551Y-143396895D02*
X100937217Y-142596895D01*
X105137217Y-142596895D02*
X104756265Y-142596895D01*
X104756265Y-142596895D02*
X104718169Y-142977847D01*
X104718169Y-142977847D02*
X104756265Y-142939752D01*
X104756265Y-142939752D02*
X104832455Y-142901657D01*
X104832455Y-142901657D02*
X105022931Y-142901657D01*
X105022931Y-142901657D02*
X105099122Y-142939752D01*
X105099122Y-142939752D02*
X105137217Y-142977847D01*
X105137217Y-142977847D02*
X105175312Y-143054038D01*
X105175312Y-143054038D02*
X105175312Y-143244514D01*
X105175312Y-143244514D02*
X105137217Y-143320704D01*
X105137217Y-143320704D02*
X105099122Y-143358800D01*
X105099122Y-143358800D02*
X105022931Y-143396895D01*
X105022931Y-143396895D02*
X104832455Y-143396895D01*
X104832455Y-143396895D02*
X104756265Y-143358800D01*
X104756265Y-143358800D02*
X104718169Y-143320704D01*
X105403884Y-142596895D02*
X105670551Y-143396895D01*
X105670551Y-143396895D02*
X105937217Y-142596895D01*
X123137217Y-142596895D02*
X122756265Y-142596895D01*
X122756265Y-142596895D02*
X122718169Y-142977847D01*
X122718169Y-142977847D02*
X122756265Y-142939752D01*
X122756265Y-142939752D02*
X122832455Y-142901657D01*
X122832455Y-142901657D02*
X123022931Y-142901657D01*
X123022931Y-142901657D02*
X123099122Y-142939752D01*
X123099122Y-142939752D02*
X123137217Y-142977847D01*
X123137217Y-142977847D02*
X123175312Y-143054038D01*
X123175312Y-143054038D02*
X123175312Y-143244514D01*
X123175312Y-143244514D02*
X123137217Y-143320704D01*
X123137217Y-143320704D02*
X123099122Y-143358800D01*
X123099122Y-143358800D02*
X123022931Y-143396895D01*
X123022931Y-143396895D02*
X122832455Y-143396895D01*
X122832455Y-143396895D02*
X122756265Y-143358800D01*
X122756265Y-143358800D02*
X122718169Y-143320704D01*
X123403884Y-142596895D02*
X123670551Y-143396895D01*
X123670551Y-143396895D02*
X123937217Y-142596895D01*
X119780074Y-137372419D02*
X119303884Y-137372419D01*
X119303884Y-137372419D02*
X119256265Y-137848609D01*
X119256265Y-137848609D02*
X119303884Y-137800990D01*
X119303884Y-137800990D02*
X119399122Y-137753371D01*
X119399122Y-137753371D02*
X119637217Y-137753371D01*
X119637217Y-137753371D02*
X119732455Y-137800990D01*
X119732455Y-137800990D02*
X119780074Y-137848609D01*
X119780074Y-137848609D02*
X119827693Y-137943847D01*
X119827693Y-137943847D02*
X119827693Y-138181942D01*
X119827693Y-138181942D02*
X119780074Y-138277180D01*
X119780074Y-138277180D02*
X119732455Y-138324800D01*
X119732455Y-138324800D02*
X119637217Y-138372419D01*
X119637217Y-138372419D02*
X119399122Y-138372419D01*
X119399122Y-138372419D02*
X119303884Y-138324800D01*
X119303884Y-138324800D02*
X119256265Y-138277180D01*
X120113408Y-137372419D02*
X120446741Y-138372419D01*
X120446741Y-138372419D02*
X120780074Y-137372419D01*
X119208646Y-134872419D02*
X119827693Y-134872419D01*
X119827693Y-134872419D02*
X119494360Y-135253371D01*
X119494360Y-135253371D02*
X119637217Y-135253371D01*
X119637217Y-135253371D02*
X119732455Y-135300990D01*
X119732455Y-135300990D02*
X119780074Y-135348609D01*
X119780074Y-135348609D02*
X119827693Y-135443847D01*
X119827693Y-135443847D02*
X119827693Y-135681942D01*
X119827693Y-135681942D02*
X119780074Y-135777180D01*
X119780074Y-135777180D02*
X119732455Y-135824800D01*
X119732455Y-135824800D02*
X119637217Y-135872419D01*
X119637217Y-135872419D02*
X119351503Y-135872419D01*
X119351503Y-135872419D02*
X119256265Y-135824800D01*
X119256265Y-135824800D02*
X119208646Y-135777180D01*
X120161027Y-135205752D02*
X120399122Y-135872419D01*
X120399122Y-135872419D02*
X120637217Y-135205752D01*
X120922932Y-134872419D02*
X121541979Y-134872419D01*
X121541979Y-134872419D02*
X121208646Y-135253371D01*
X121208646Y-135253371D02*
X121351503Y-135253371D01*
X121351503Y-135253371D02*
X121446741Y-135300990D01*
X121446741Y-135300990D02*
X121494360Y-135348609D01*
X121494360Y-135348609D02*
X121541979Y-135443847D01*
X121541979Y-135443847D02*
X121541979Y-135681942D01*
X121541979Y-135681942D02*
X121494360Y-135777180D01*
X121494360Y-135777180D02*
X121446741Y-135824800D01*
X121446741Y-135824800D02*
X121351503Y-135872419D01*
X121351503Y-135872419D02*
X121065789Y-135872419D01*
X121065789Y-135872419D02*
X120970551Y-135824800D01*
X120970551Y-135824800D02*
X120922932Y-135777180D01*
X119256265Y-133324800D02*
X119399122Y-133372419D01*
X119399122Y-133372419D02*
X119637217Y-133372419D01*
X119637217Y-133372419D02*
X119732455Y-133324800D01*
X119732455Y-133324800D02*
X119780074Y-133277180D01*
X119780074Y-133277180D02*
X119827693Y-133181942D01*
X119827693Y-133181942D02*
X119827693Y-133086704D01*
X119827693Y-133086704D02*
X119780074Y-132991466D01*
X119780074Y-132991466D02*
X119732455Y-132943847D01*
X119732455Y-132943847D02*
X119637217Y-132896228D01*
X119637217Y-132896228D02*
X119446741Y-132848609D01*
X119446741Y-132848609D02*
X119351503Y-132800990D01*
X119351503Y-132800990D02*
X119303884Y-132753371D01*
X119303884Y-132753371D02*
X119256265Y-132658133D01*
X119256265Y-132658133D02*
X119256265Y-132562895D01*
X119256265Y-132562895D02*
X119303884Y-132467657D01*
X119303884Y-132467657D02*
X119351503Y-132420038D01*
X119351503Y-132420038D02*
X119446741Y-132372419D01*
X119446741Y-132372419D02*
X119684836Y-132372419D01*
X119684836Y-132372419D02*
X119827693Y-132420038D01*
X120827693Y-133277180D02*
X120780074Y-133324800D01*
X120780074Y-133324800D02*
X120637217Y-133372419D01*
X120637217Y-133372419D02*
X120541979Y-133372419D01*
X120541979Y-133372419D02*
X120399122Y-133324800D01*
X120399122Y-133324800D02*
X120303884Y-133229561D01*
X120303884Y-133229561D02*
X120256265Y-133134323D01*
X120256265Y-133134323D02*
X120208646Y-132943847D01*
X120208646Y-132943847D02*
X120208646Y-132800990D01*
X120208646Y-132800990D02*
X120256265Y-132610514D01*
X120256265Y-132610514D02*
X120303884Y-132515276D01*
X120303884Y-132515276D02*
X120399122Y-132420038D01*
X120399122Y-132420038D02*
X120541979Y-132372419D01*
X120541979Y-132372419D02*
X120637217Y-132372419D01*
X120637217Y-132372419D02*
X120780074Y-132420038D01*
X120780074Y-132420038D02*
X120827693Y-132467657D01*
X121732455Y-133372419D02*
X121256265Y-133372419D01*
X121256265Y-133372419D02*
X121256265Y-132372419D01*
X119256265Y-130824800D02*
X119399122Y-130872419D01*
X119399122Y-130872419D02*
X119637217Y-130872419D01*
X119637217Y-130872419D02*
X119732455Y-130824800D01*
X119732455Y-130824800D02*
X119780074Y-130777180D01*
X119780074Y-130777180D02*
X119827693Y-130681942D01*
X119827693Y-130681942D02*
X119827693Y-130586704D01*
X119827693Y-130586704D02*
X119780074Y-130491466D01*
X119780074Y-130491466D02*
X119732455Y-130443847D01*
X119732455Y-130443847D02*
X119637217Y-130396228D01*
X119637217Y-130396228D02*
X119446741Y-130348609D01*
X119446741Y-130348609D02*
X119351503Y-130300990D01*
X119351503Y-130300990D02*
X119303884Y-130253371D01*
X119303884Y-130253371D02*
X119256265Y-130158133D01*
X119256265Y-130158133D02*
X119256265Y-130062895D01*
X119256265Y-130062895D02*
X119303884Y-129967657D01*
X119303884Y-129967657D02*
X119351503Y-129920038D01*
X119351503Y-129920038D02*
X119446741Y-129872419D01*
X119446741Y-129872419D02*
X119684836Y-129872419D01*
X119684836Y-129872419D02*
X119827693Y-129920038D01*
X120256265Y-130872419D02*
X120256265Y-129872419D01*
X120256265Y-129872419D02*
X120494360Y-129872419D01*
X120494360Y-129872419D02*
X120637217Y-129920038D01*
X120637217Y-129920038D02*
X120732455Y-130015276D01*
X120732455Y-130015276D02*
X120780074Y-130110514D01*
X120780074Y-130110514D02*
X120827693Y-130300990D01*
X120827693Y-130300990D02*
X120827693Y-130443847D01*
X120827693Y-130443847D02*
X120780074Y-130634323D01*
X120780074Y-130634323D02*
X120732455Y-130729561D01*
X120732455Y-130729561D02*
X120637217Y-130824800D01*
X120637217Y-130824800D02*
X120494360Y-130872419D01*
X120494360Y-130872419D02*
X120256265Y-130872419D01*
X121208646Y-130586704D02*
X121684836Y-130586704D01*
X121113408Y-130872419D02*
X121446741Y-129872419D01*
X121446741Y-129872419D02*
X121780074Y-130872419D01*
X119827693Y-127420038D02*
X119732455Y-127372419D01*
X119732455Y-127372419D02*
X119589598Y-127372419D01*
X119589598Y-127372419D02*
X119446741Y-127420038D01*
X119446741Y-127420038D02*
X119351503Y-127515276D01*
X119351503Y-127515276D02*
X119303884Y-127610514D01*
X119303884Y-127610514D02*
X119256265Y-127800990D01*
X119256265Y-127800990D02*
X119256265Y-127943847D01*
X119256265Y-127943847D02*
X119303884Y-128134323D01*
X119303884Y-128134323D02*
X119351503Y-128229561D01*
X119351503Y-128229561D02*
X119446741Y-128324800D01*
X119446741Y-128324800D02*
X119589598Y-128372419D01*
X119589598Y-128372419D02*
X119684836Y-128372419D01*
X119684836Y-128372419D02*
X119827693Y-128324800D01*
X119827693Y-128324800D02*
X119875312Y-128277180D01*
X119875312Y-128277180D02*
X119875312Y-127943847D01*
X119875312Y-127943847D02*
X119684836Y-127943847D01*
X120303884Y-128372419D02*
X120303884Y-127372419D01*
X120303884Y-127372419D02*
X120875312Y-128372419D01*
X120875312Y-128372419D02*
X120875312Y-127372419D01*
X121351503Y-128372419D02*
X121351503Y-127372419D01*
X121351503Y-127372419D02*
X121589598Y-127372419D01*
X121589598Y-127372419D02*
X121732455Y-127420038D01*
X121732455Y-127420038D02*
X121827693Y-127515276D01*
X121827693Y-127515276D02*
X121875312Y-127610514D01*
X121875312Y-127610514D02*
X121922931Y-127800990D01*
X121922931Y-127800990D02*
X121922931Y-127943847D01*
X121922931Y-127943847D02*
X121875312Y-128134323D01*
X121875312Y-128134323D02*
X121827693Y-128229561D01*
X121827693Y-128229561D02*
X121732455Y-128324800D01*
X121732455Y-128324800D02*
X121589598Y-128372419D01*
X121589598Y-128372419D02*
X121351503Y-128372419D01*
G36*
X81871946Y-121330000D02*
G01*
X81750314Y-121330000D01*
X81643335Y-121048632D01*
X81247418Y-121048632D01*
X81140683Y-121330000D01*
X81020272Y-121330000D01*
X81170991Y-120954842D01*
X81283321Y-120954842D01*
X81607920Y-120954842D01*
X81572749Y-120862519D01*
X81551881Y-120807719D01*
X81533952Y-120760609D01*
X81515535Y-120712187D01*
X81496629Y-120662454D01*
X81477234Y-120611408D01*
X81457350Y-120559051D01*
X81453314Y-120548422D01*
X81437683Y-120548422D01*
X81417514Y-120601481D01*
X81397917Y-120653037D01*
X81378893Y-120703090D01*
X81360441Y-120751640D01*
X81342562Y-120798688D01*
X81321862Y-120853162D01*
X81318492Y-120862030D01*
X81283321Y-120954842D01*
X81170991Y-120954842D01*
X81390788Y-120407739D01*
X81500209Y-120407739D01*
X81871946Y-121330000D01*
G37*
G36*
X82181402Y-121221556D02*
G01*
X82197984Y-121172812D01*
X82215681Y-121122335D01*
X82233618Y-121072212D01*
X82245882Y-121038374D01*
X82377529Y-120673475D01*
X82484019Y-120673475D01*
X82236113Y-121330000D01*
X82125226Y-121330000D01*
X81877320Y-120673475D01*
X81983810Y-120673475D01*
X82114724Y-121038374D01*
X82133286Y-121090306D01*
X82150139Y-121138147D01*
X82167055Y-121187078D01*
X82178715Y-121221556D01*
X82181402Y-121221556D01*
G37*
G36*
X82919573Y-120661976D02*
G01*
X82969506Y-120675493D01*
X82972505Y-120676650D01*
X83017201Y-120700647D01*
X83055547Y-120735512D01*
X83085246Y-120778217D01*
X83105690Y-120823562D01*
X83110990Y-120839071D01*
X83123493Y-120890271D01*
X83129884Y-120943479D01*
X83131507Y-120991479D01*
X83131507Y-121005889D01*
X83130774Y-121033000D01*
X82671842Y-121033000D01*
X82675442Y-121081900D01*
X82688371Y-121129314D01*
X82690648Y-121134605D01*
X82716331Y-121176568D01*
X82742184Y-121202260D01*
X82785010Y-121228097D01*
X82818876Y-121240118D01*
X82867518Y-121249266D01*
X82913642Y-121251842D01*
X82964262Y-121249827D01*
X83010118Y-121243782D01*
X83059148Y-121232353D01*
X83097069Y-121220579D01*
X83097069Y-121308750D01*
X83049738Y-121326470D01*
X83010607Y-121335617D01*
X82960629Y-121342805D01*
X82910981Y-121345543D01*
X82899965Y-121345631D01*
X82848593Y-121343124D01*
X82799627Y-121335602D01*
X82768318Y-121327801D01*
X82721410Y-121309687D01*
X82677385Y-121282064D01*
X82663293Y-121270160D01*
X82628732Y-121230483D01*
X82603253Y-121185352D01*
X82595150Y-121165868D01*
X82581383Y-121118450D01*
X82573827Y-121069983D01*
X82570993Y-121016412D01*
X82570969Y-121010774D01*
X82573379Y-120957217D01*
X82576039Y-120939211D01*
X82677459Y-120939211D01*
X83024284Y-120939211D01*
X83019761Y-120889593D01*
X83013782Y-120865450D01*
X82993637Y-120820838D01*
X82983007Y-120805854D01*
X82945751Y-120772873D01*
X82933182Y-120766043D01*
X82885778Y-120752772D01*
X82864549Y-120751632D01*
X82814363Y-120758674D01*
X82793230Y-120766531D01*
X82750347Y-120793149D01*
X82735833Y-120806587D01*
X82705518Y-120847644D01*
X82696266Y-120866182D01*
X82681335Y-120913061D01*
X82677459Y-120939211D01*
X82576039Y-120939211D01*
X82580606Y-120908288D01*
X82594120Y-120859809D01*
X82595638Y-120855680D01*
X82616624Y-120809461D01*
X82644552Y-120766289D01*
X82661828Y-120746015D01*
X82700496Y-120711587D01*
X82743840Y-120685668D01*
X82757083Y-120679825D01*
X82805034Y-120664798D01*
X82854856Y-120658187D01*
X82869434Y-120657843D01*
X82919573Y-120661976D01*
G37*
G36*
X83289532Y-120407739D02*
G01*
X83396022Y-120407739D01*
X83396022Y-120751632D01*
X83289532Y-120751632D01*
X83289532Y-120407739D01*
G37*
G36*
X83647592Y-120849085D02*
G01*
X83659560Y-120893293D01*
X83691556Y-120921137D01*
X83737962Y-120938478D01*
X83787177Y-120949871D01*
X83792428Y-120950935D01*
X83841505Y-120962570D01*
X83865701Y-120969253D01*
X83912430Y-120988596D01*
X83929204Y-120999050D01*
X83965406Y-121035033D01*
X83976343Y-121053028D01*
X83991434Y-121100576D01*
X83994417Y-121141444D01*
X83988902Y-121190884D01*
X83974877Y-121229127D01*
X83945905Y-121270068D01*
X83919434Y-121293119D01*
X83874912Y-121318106D01*
X83834193Y-121332198D01*
X83785511Y-121341840D01*
X83736103Y-121345513D01*
X83725017Y-121345631D01*
X83676110Y-121343612D01*
X83658827Y-121341723D01*
X83609425Y-121332922D01*
X83606559Y-121332198D01*
X83567725Y-121320474D01*
X83541102Y-121308995D01*
X83541102Y-121220579D01*
X83588131Y-121234936D01*
X83624389Y-121243538D01*
X83673651Y-121250252D01*
X83715491Y-121251842D01*
X83765867Y-121248725D01*
X83786322Y-121245247D01*
X83833231Y-121229360D01*
X83840544Y-121225464D01*
X83875715Y-121192735D01*
X83887927Y-121146817D01*
X83876448Y-121101388D01*
X83846161Y-121071835D01*
X83801953Y-121052540D01*
X83754593Y-121040020D01*
X83749441Y-121038862D01*
X83701792Y-121027767D01*
X83676413Y-121021032D01*
X83630526Y-121003777D01*
X83608757Y-120991967D01*
X83571151Y-120958470D01*
X83559665Y-120941653D01*
X83543712Y-120894503D01*
X83541102Y-120859344D01*
X83546410Y-120808448D01*
X83559909Y-120769951D01*
X83588569Y-120727781D01*
X83610711Y-120707424D01*
X83655018Y-120681245D01*
X83685450Y-120670300D01*
X83734883Y-120660227D01*
X83775575Y-120657843D01*
X83825378Y-120660097D01*
X83874715Y-120667470D01*
X83877669Y-120668101D01*
X83925272Y-120680327D01*
X83963154Y-120693747D01*
X83963154Y-120782896D01*
X83915858Y-120769131D01*
X83878646Y-120760669D01*
X83829788Y-120753603D01*
X83790718Y-120751632D01*
X83741625Y-120755418D01*
X83725505Y-120758960D01*
X83680809Y-120779476D01*
X83655408Y-120810251D01*
X83647592Y-120849085D01*
G37*
X81303884Y-122762475D02*
X81303884Y-121762475D01*
X81732455Y-121857713D02*
X81780074Y-121810094D01*
X81780074Y-121810094D02*
X81875312Y-121762475D01*
X81875312Y-121762475D02*
X82113407Y-121762475D01*
X82113407Y-121762475D02*
X82208645Y-121810094D01*
X82208645Y-121810094D02*
X82256264Y-121857713D01*
X82256264Y-121857713D02*
X82303883Y-121952951D01*
X82303883Y-121952951D02*
X82303883Y-122048189D01*
X82303883Y-122048189D02*
X82256264Y-122191046D01*
X82256264Y-122191046D02*
X81684836Y-122762475D01*
X81684836Y-122762475D02*
X82303883Y-122762475D01*
X83303883Y-122667236D02*
X83256264Y-122714856D01*
X83256264Y-122714856D02*
X83113407Y-122762475D01*
X83113407Y-122762475D02*
X83018169Y-122762475D01*
X83018169Y-122762475D02*
X82875312Y-122714856D01*
X82875312Y-122714856D02*
X82780074Y-122619617D01*
X82780074Y-122619617D02*
X82732455Y-122524379D01*
X82732455Y-122524379D02*
X82684836Y-122333903D01*
X82684836Y-122333903D02*
X82684836Y-122191046D01*
X82684836Y-122191046D02*
X82732455Y-122000570D01*
X82732455Y-122000570D02*
X82780074Y-121905332D01*
X82780074Y-121905332D02*
X82875312Y-121810094D01*
X82875312Y-121810094D02*
X83018169Y-121762475D01*
X83018169Y-121762475D02*
X83113407Y-121762475D01*
X83113407Y-121762475D02*
X83256264Y-121810094D01*
X83256264Y-121810094D02*
X83303883Y-121857713D01*
X84494360Y-122762475D02*
X84494360Y-121762475D01*
X84494360Y-122238665D02*
X85065788Y-122238665D01*
X85065788Y-122762475D02*
X85065788Y-121762475D01*
X85970550Y-122762475D02*
X85970550Y-122238665D01*
X85970550Y-122238665D02*
X85922931Y-122143427D01*
X85922931Y-122143427D02*
X85827693Y-122095808D01*
X85827693Y-122095808D02*
X85637217Y-122095808D01*
X85637217Y-122095808D02*
X85541979Y-122143427D01*
X85970550Y-122714856D02*
X85875312Y-122762475D01*
X85875312Y-122762475D02*
X85637217Y-122762475D01*
X85637217Y-122762475D02*
X85541979Y-122714856D01*
X85541979Y-122714856D02*
X85494360Y-122619617D01*
X85494360Y-122619617D02*
X85494360Y-122524379D01*
X85494360Y-122524379D02*
X85541979Y-122429141D01*
X85541979Y-122429141D02*
X85637217Y-122381522D01*
X85637217Y-122381522D02*
X85875312Y-122381522D01*
X85875312Y-122381522D02*
X85970550Y-122333903D01*
X86446741Y-122095808D02*
X86446741Y-123095808D01*
X86446741Y-122143427D02*
X86541979Y-122095808D01*
X86541979Y-122095808D02*
X86732455Y-122095808D01*
X86732455Y-122095808D02*
X86827693Y-122143427D01*
X86827693Y-122143427D02*
X86875312Y-122191046D01*
X86875312Y-122191046D02*
X86922931Y-122286284D01*
X86922931Y-122286284D02*
X86922931Y-122571998D01*
X86922931Y-122571998D02*
X86875312Y-122667236D01*
X86875312Y-122667236D02*
X86827693Y-122714856D01*
X86827693Y-122714856D02*
X86732455Y-122762475D01*
X86732455Y-122762475D02*
X86541979Y-122762475D01*
X86541979Y-122762475D02*
X86446741Y-122714856D01*
X87208646Y-122095808D02*
X87589598Y-122095808D01*
X87351503Y-121762475D02*
X87351503Y-122619617D01*
X87351503Y-122619617D02*
X87399122Y-122714856D01*
X87399122Y-122714856D02*
X87494360Y-122762475D01*
X87494360Y-122762475D02*
X87589598Y-122762475D01*
X87922932Y-122762475D02*
X87922932Y-122095808D01*
X87922932Y-121762475D02*
X87875313Y-121810094D01*
X87875313Y-121810094D02*
X87922932Y-121857713D01*
X87922932Y-121857713D02*
X87970551Y-121810094D01*
X87970551Y-121810094D02*
X87922932Y-121762475D01*
X87922932Y-121762475D02*
X87922932Y-121857713D01*
X88827693Y-122714856D02*
X88732455Y-122762475D01*
X88732455Y-122762475D02*
X88541979Y-122762475D01*
X88541979Y-122762475D02*
X88446741Y-122714856D01*
X88446741Y-122714856D02*
X88399122Y-122667236D01*
X88399122Y-122667236D02*
X88351503Y-122571998D01*
X88351503Y-122571998D02*
X88351503Y-122286284D01*
X88351503Y-122286284D02*
X88399122Y-122191046D01*
X88399122Y-122191046D02*
X88446741Y-122143427D01*
X88446741Y-122143427D02*
X88541979Y-122095808D01*
X88541979Y-122095808D02*
X88732455Y-122095808D01*
X88732455Y-122095808D02*
X88827693Y-122143427D01*
X90018170Y-122762475D02*
X90018170Y-121762475D01*
X90018170Y-121762475D02*
X90351503Y-122476760D01*
X90351503Y-122476760D02*
X90684836Y-121762475D01*
X90684836Y-121762475D02*
X90684836Y-122762475D01*
X91303884Y-122762475D02*
X91208646Y-122714856D01*
X91208646Y-122714856D02*
X91161027Y-122667236D01*
X91161027Y-122667236D02*
X91113408Y-122571998D01*
X91113408Y-122571998D02*
X91113408Y-122286284D01*
X91113408Y-122286284D02*
X91161027Y-122191046D01*
X91161027Y-122191046D02*
X91208646Y-122143427D01*
X91208646Y-122143427D02*
X91303884Y-122095808D01*
X91303884Y-122095808D02*
X91446741Y-122095808D01*
X91446741Y-122095808D02*
X91541979Y-122143427D01*
X91541979Y-122143427D02*
X91589598Y-122191046D01*
X91589598Y-122191046D02*
X91637217Y-122286284D01*
X91637217Y-122286284D02*
X91637217Y-122571998D01*
X91637217Y-122571998D02*
X91589598Y-122667236D01*
X91589598Y-122667236D02*
X91541979Y-122714856D01*
X91541979Y-122714856D02*
X91446741Y-122762475D01*
X91446741Y-122762475D02*
X91303884Y-122762475D01*
X92494360Y-122762475D02*
X92494360Y-121762475D01*
X92494360Y-122714856D02*
X92399122Y-122762475D01*
X92399122Y-122762475D02*
X92208646Y-122762475D01*
X92208646Y-122762475D02*
X92113408Y-122714856D01*
X92113408Y-122714856D02*
X92065789Y-122667236D01*
X92065789Y-122667236D02*
X92018170Y-122571998D01*
X92018170Y-122571998D02*
X92018170Y-122286284D01*
X92018170Y-122286284D02*
X92065789Y-122191046D01*
X92065789Y-122191046D02*
X92113408Y-122143427D01*
X92113408Y-122143427D02*
X92208646Y-122095808D01*
X92208646Y-122095808D02*
X92399122Y-122095808D01*
X92399122Y-122095808D02*
X92494360Y-122143427D01*
X93399122Y-122095808D02*
X93399122Y-122762475D01*
X92970551Y-122095808D02*
X92970551Y-122619617D01*
X92970551Y-122619617D02*
X93018170Y-122714856D01*
X93018170Y-122714856D02*
X93113408Y-122762475D01*
X93113408Y-122762475D02*
X93256265Y-122762475D01*
X93256265Y-122762475D02*
X93351503Y-122714856D01*
X93351503Y-122714856D02*
X93399122Y-122667236D01*
X94018170Y-122762475D02*
X93922932Y-122714856D01*
X93922932Y-122714856D02*
X93875313Y-122619617D01*
X93875313Y-122619617D02*
X93875313Y-121762475D01*
X94780075Y-122714856D02*
X94684837Y-122762475D01*
X94684837Y-122762475D02*
X94494361Y-122762475D01*
X94494361Y-122762475D02*
X94399123Y-122714856D01*
X94399123Y-122714856D02*
X94351504Y-122619617D01*
X94351504Y-122619617D02*
X94351504Y-122238665D01*
X94351504Y-122238665D02*
X94399123Y-122143427D01*
X94399123Y-122143427D02*
X94494361Y-122095808D01*
X94494361Y-122095808D02*
X94684837Y-122095808D01*
X94684837Y-122095808D02*
X94780075Y-122143427D01*
X94780075Y-122143427D02*
X94827694Y-122238665D01*
X94827694Y-122238665D02*
X94827694Y-122333903D01*
X94827694Y-122333903D02*
X94351504Y-122429141D01*
X81827693Y-124372419D02*
X81256265Y-124372419D01*
X81541979Y-124372419D02*
X81541979Y-123372419D01*
X81541979Y-123372419D02*
X81446741Y-123515276D01*
X81446741Y-123515276D02*
X81351503Y-123610514D01*
X81351503Y-123610514D02*
X81256265Y-123658133D01*
X82684836Y-123372419D02*
X82494360Y-123372419D01*
X82494360Y-123372419D02*
X82399122Y-123420038D01*
X82399122Y-123420038D02*
X82351503Y-123467657D01*
X82351503Y-123467657D02*
X82256265Y-123610514D01*
X82256265Y-123610514D02*
X82208646Y-123800990D01*
X82208646Y-123800990D02*
X82208646Y-124181942D01*
X82208646Y-124181942D02*
X82256265Y-124277180D01*
X82256265Y-124277180D02*
X82303884Y-124324800D01*
X82303884Y-124324800D02*
X82399122Y-124372419D01*
X82399122Y-124372419D02*
X82589598Y-124372419D01*
X82589598Y-124372419D02*
X82684836Y-124324800D01*
X82684836Y-124324800D02*
X82732455Y-124277180D01*
X82732455Y-124277180D02*
X82780074Y-124181942D01*
X82780074Y-124181942D02*
X82780074Y-123943847D01*
X82780074Y-123943847D02*
X82732455Y-123848609D01*
X82732455Y-123848609D02*
X82684836Y-123800990D01*
X82684836Y-123800990D02*
X82589598Y-123753371D01*
X82589598Y-123753371D02*
X82399122Y-123753371D01*
X82399122Y-123753371D02*
X82303884Y-123800990D01*
X82303884Y-123800990D02*
X82256265Y-123848609D01*
X82256265Y-123848609D02*
X82208646Y-123943847D01*
X84541979Y-124277180D02*
X84494360Y-124324800D01*
X84494360Y-124324800D02*
X84351503Y-124372419D01*
X84351503Y-124372419D02*
X84256265Y-124372419D01*
X84256265Y-124372419D02*
X84113408Y-124324800D01*
X84113408Y-124324800D02*
X84018170Y-124229561D01*
X84018170Y-124229561D02*
X83970551Y-124134323D01*
X83970551Y-124134323D02*
X83922932Y-123943847D01*
X83922932Y-123943847D02*
X83922932Y-123800990D01*
X83922932Y-123800990D02*
X83970551Y-123610514D01*
X83970551Y-123610514D02*
X84018170Y-123515276D01*
X84018170Y-123515276D02*
X84113408Y-123420038D01*
X84113408Y-123420038D02*
X84256265Y-123372419D01*
X84256265Y-123372419D02*
X84351503Y-123372419D01*
X84351503Y-123372419D02*
X84494360Y-123420038D01*
X84494360Y-123420038D02*
X84541979Y-123467657D01*
X84970551Y-124372419D02*
X84970551Y-123372419D01*
X85399122Y-124372419D02*
X85399122Y-123848609D01*
X85399122Y-123848609D02*
X85351503Y-123753371D01*
X85351503Y-123753371D02*
X85256265Y-123705752D01*
X85256265Y-123705752D02*
X85113408Y-123705752D01*
X85113408Y-123705752D02*
X85018170Y-123753371D01*
X85018170Y-123753371D02*
X84970551Y-123800990D01*
X86303884Y-124372419D02*
X86303884Y-123848609D01*
X86303884Y-123848609D02*
X86256265Y-123753371D01*
X86256265Y-123753371D02*
X86161027Y-123705752D01*
X86161027Y-123705752D02*
X85970551Y-123705752D01*
X85970551Y-123705752D02*
X85875313Y-123753371D01*
X86303884Y-124324800D02*
X86208646Y-124372419D01*
X86208646Y-124372419D02*
X85970551Y-124372419D01*
X85970551Y-124372419D02*
X85875313Y-124324800D01*
X85875313Y-124324800D02*
X85827694Y-124229561D01*
X85827694Y-124229561D02*
X85827694Y-124134323D01*
X85827694Y-124134323D02*
X85875313Y-124039085D01*
X85875313Y-124039085D02*
X85970551Y-123991466D01*
X85970551Y-123991466D02*
X86208646Y-123991466D01*
X86208646Y-123991466D02*
X86303884Y-123943847D01*
X86780075Y-123705752D02*
X86780075Y-124372419D01*
X86780075Y-123800990D02*
X86827694Y-123753371D01*
X86827694Y-123753371D02*
X86922932Y-123705752D01*
X86922932Y-123705752D02*
X87065789Y-123705752D01*
X87065789Y-123705752D02*
X87161027Y-123753371D01*
X87161027Y-123753371D02*
X87208646Y-123848609D01*
X87208646Y-123848609D02*
X87208646Y-124372419D01*
X87684837Y-123705752D02*
X87684837Y-124372419D01*
X87684837Y-123800990D02*
X87732456Y-123753371D01*
X87732456Y-123753371D02*
X87827694Y-123705752D01*
X87827694Y-123705752D02*
X87970551Y-123705752D01*
X87970551Y-123705752D02*
X88065789Y-123753371D01*
X88065789Y-123753371D02*
X88113408Y-123848609D01*
X88113408Y-123848609D02*
X88113408Y-124372419D01*
X88970551Y-124324800D02*
X88875313Y-124372419D01*
X88875313Y-124372419D02*
X88684837Y-124372419D01*
X88684837Y-124372419D02*
X88589599Y-124324800D01*
X88589599Y-124324800D02*
X88541980Y-124229561D01*
X88541980Y-124229561D02*
X88541980Y-123848609D01*
X88541980Y-123848609D02*
X88589599Y-123753371D01*
X88589599Y-123753371D02*
X88684837Y-123705752D01*
X88684837Y-123705752D02*
X88875313Y-123705752D01*
X88875313Y-123705752D02*
X88970551Y-123753371D01*
X88970551Y-123753371D02*
X89018170Y-123848609D01*
X89018170Y-123848609D02*
X89018170Y-123943847D01*
X89018170Y-123943847D02*
X88541980Y-124039085D01*
X89589599Y-124372419D02*
X89494361Y-124324800D01*
X89494361Y-124324800D02*
X89446742Y-124229561D01*
X89446742Y-124229561D02*
X89446742Y-123372419D01*
D11*
G36*
X81421807Y-125633384D02*
G01*
X81625750Y-125173475D01*
X81593510Y-125173475D01*
X81543428Y-125166672D01*
X81520969Y-125154180D01*
X81499665Y-125108935D01*
X81499476Y-125103133D01*
X81517128Y-125056055D01*
X81520969Y-125052330D01*
X81567232Y-125034336D01*
X81593510Y-125032791D01*
X81782309Y-125032791D01*
X81832509Y-125039679D01*
X81854849Y-125052330D01*
X81876396Y-125097332D01*
X81876587Y-125103133D01*
X81856462Y-125148934D01*
X81843614Y-125160530D01*
X81796049Y-125173020D01*
X81778890Y-125173475D01*
X81489706Y-125830000D01*
X81354396Y-125830000D01*
X81065945Y-125173475D01*
X81017345Y-125168323D01*
X81000732Y-125160286D01*
X80970368Y-125120392D01*
X80967759Y-125103133D01*
X80985612Y-125056055D01*
X80989497Y-125052330D01*
X81035535Y-125034336D01*
X81061793Y-125032791D01*
X81252058Y-125032791D01*
X81301646Y-125039679D01*
X81323866Y-125052330D01*
X81345412Y-125097332D01*
X81345603Y-125103133D01*
X81327951Y-125150411D01*
X81324110Y-125154180D01*
X81278297Y-125171948D01*
X81252058Y-125173475D01*
X81219085Y-125173475D01*
X81421807Y-125633384D01*
G37*
G36*
X82311559Y-124958092D02*
G01*
X82361037Y-124969885D01*
X82404396Y-124990048D01*
X82444200Y-125021583D01*
X82479234Y-125062722D01*
X82506471Y-125104186D01*
X82516503Y-125121695D01*
X82539798Y-125170574D01*
X82556437Y-125220980D01*
X82566420Y-125272912D01*
X82569748Y-125326371D01*
X82569748Y-125473893D01*
X82566958Y-125522774D01*
X82556648Y-125578804D01*
X82541764Y-125625973D01*
X82521299Y-125672353D01*
X82495253Y-125717942D01*
X82490369Y-125725464D01*
X82458207Y-125766302D01*
X82421252Y-125798691D01*
X82372084Y-125825799D01*
X82324748Y-125839881D01*
X82272621Y-125845514D01*
X82263468Y-125845631D01*
X82212768Y-125842149D01*
X82162949Y-125830274D01*
X82119364Y-125809972D01*
X82079786Y-125778159D01*
X82045058Y-125736867D01*
X82018134Y-125695349D01*
X82008234Y-125677836D01*
X81985260Y-125629003D01*
X81968850Y-125578735D01*
X81959004Y-125527032D01*
X81955722Y-125473893D01*
X81955722Y-125327592D01*
X82096406Y-125327592D01*
X82096406Y-125472672D01*
X82100436Y-125524894D01*
X82112526Y-125573606D01*
X82132676Y-125618806D01*
X82160886Y-125660495D01*
X82201307Y-125692402D01*
X82251236Y-125704556D01*
X82263468Y-125704947D01*
X82314472Y-125695597D01*
X82356780Y-125667547D01*
X82367271Y-125656099D01*
X82396788Y-125611669D01*
X82416644Y-125561637D01*
X82426185Y-125512460D01*
X82428332Y-125472672D01*
X82428332Y-125327592D01*
X82424332Y-125275553D01*
X82412334Y-125226903D01*
X82392336Y-125181642D01*
X82364340Y-125139769D01*
X82323729Y-125107863D01*
X82274107Y-125095708D01*
X82262002Y-125095317D01*
X82210498Y-125104667D01*
X82167969Y-125132717D01*
X82157466Y-125144166D01*
X82127950Y-125188595D01*
X82108093Y-125238627D01*
X82098552Y-125287804D01*
X82096406Y-125327592D01*
X81955722Y-125327592D01*
X81955722Y-125326371D01*
X81959497Y-125269694D01*
X81970822Y-125213998D01*
X81986538Y-125167040D01*
X82007802Y-125120804D01*
X82034612Y-125075289D01*
X82066692Y-125034285D01*
X82103580Y-125001764D01*
X82152694Y-124974546D01*
X82200001Y-124960407D01*
X82252116Y-124954751D01*
X82261270Y-124954633D01*
X82311559Y-124958092D01*
G37*
G36*
X83209909Y-125751842D02*
G01*
X83196517Y-125800685D01*
X83181577Y-125818764D01*
X83138166Y-125841853D01*
X83104152Y-125845631D01*
X83055294Y-125837130D01*
X83026482Y-125818764D01*
X83001137Y-125775589D01*
X82998394Y-125751842D01*
X83011670Y-125702999D01*
X83026482Y-125684919D01*
X83070103Y-125661831D01*
X83104152Y-125658053D01*
X83152932Y-125666553D01*
X83181577Y-125684919D01*
X83207142Y-125728095D01*
X83209909Y-125751842D01*
G37*
G36*
X84014445Y-124954633D02*
G01*
X84014445Y-125689316D01*
X84156594Y-125689316D01*
X84206793Y-125696204D01*
X84229134Y-125708855D01*
X84250681Y-125753857D01*
X84250872Y-125759658D01*
X84234229Y-125805632D01*
X84229134Y-125810704D01*
X84182970Y-125828473D01*
X84156594Y-125830000D01*
X83731367Y-125830000D01*
X83681286Y-125823197D01*
X83658827Y-125810704D01*
X83637523Y-125765460D01*
X83637334Y-125759658D01*
X83654986Y-125712580D01*
X83658827Y-125708855D01*
X83705090Y-125690861D01*
X83731367Y-125689316D01*
X83873761Y-125689316D01*
X83873761Y-125146120D01*
X83747976Y-125180558D01*
X83702547Y-125189106D01*
X83657369Y-125168248D01*
X83656140Y-125166880D01*
X83636906Y-125120318D01*
X83636601Y-125112414D01*
X83651011Y-125066252D01*
X83695389Y-125041446D01*
X83711584Y-125036454D01*
X84014445Y-124954633D01*
G37*
D12*
X123666666Y-124964819D02*
X123666666Y-125679104D01*
X123666666Y-125679104D02*
X123619047Y-125821961D01*
X123619047Y-125821961D02*
X123523809Y-125917200D01*
X123523809Y-125917200D02*
X123380952Y-125964819D01*
X123380952Y-125964819D02*
X123285714Y-125964819D01*
X124666666Y-125964819D02*
X124095238Y-125964819D01*
X124380952Y-125964819D02*
X124380952Y-124964819D01*
X124380952Y-124964819D02*
X124285714Y-125107676D01*
X124285714Y-125107676D02*
X124190476Y-125202914D01*
X124190476Y-125202914D02*
X124095238Y-125250533D01*
X125014819Y-145333333D02*
X125729104Y-145333333D01*
X125729104Y-145333333D02*
X125871961Y-145380952D01*
X125871961Y-145380952D02*
X125967200Y-145476190D01*
X125967200Y-145476190D02*
X126014819Y-145619047D01*
X126014819Y-145619047D02*
X126014819Y-145714285D01*
X125014819Y-144952380D02*
X125014819Y-144333333D01*
X125014819Y-144333333D02*
X125395771Y-144666666D01*
X125395771Y-144666666D02*
X125395771Y-144523809D01*
X125395771Y-144523809D02*
X125443390Y-144428571D01*
X125443390Y-144428571D02*
X125491009Y-144380952D01*
X125491009Y-144380952D02*
X125586247Y-144333333D01*
X125586247Y-144333333D02*
X125824342Y-144333333D01*
X125824342Y-144333333D02*
X125919580Y-144380952D01*
X125919580Y-144380952D02*
X125967200Y-144428571D01*
X125967200Y-144428571D02*
X126014819Y-144523809D01*
X126014819Y-144523809D02*
X126014819Y-144809523D01*
X126014819Y-144809523D02*
X125967200Y-144904761D01*
X125967200Y-144904761D02*
X125919580Y-144952380D01*
X102014819Y-145333333D02*
X102729104Y-145333333D01*
X102729104Y-145333333D02*
X102871961Y-145380952D01*
X102871961Y-145380952D02*
X102967200Y-145476190D01*
X102967200Y-145476190D02*
X103014819Y-145619047D01*
X103014819Y-145619047D02*
X103014819Y-145714285D01*
X102110057Y-144904761D02*
X102062438Y-144857142D01*
X102062438Y-144857142D02*
X102014819Y-144761904D01*
X102014819Y-144761904D02*
X102014819Y-144523809D01*
X102014819Y-144523809D02*
X102062438Y-144428571D01*
X102062438Y-144428571D02*
X102110057Y-144380952D01*
X102110057Y-144380952D02*
X102205295Y-144333333D01*
X102205295Y-144333333D02*
X102300533Y-144333333D01*
X102300533Y-144333333D02*
X102443390Y-144380952D01*
X102443390Y-144380952D02*
X103014819Y-144952380D01*
X103014819Y-144952380D02*
X103014819Y-144333333D01*
X100875595Y-119429819D02*
X100875595Y-120239342D01*
X100875595Y-120239342D02*
X100923214Y-120334580D01*
X100923214Y-120334580D02*
X100970833Y-120382200D01*
X100970833Y-120382200D02*
X101066071Y-120429819D01*
X101066071Y-120429819D02*
X101256547Y-120429819D01*
X101256547Y-120429819D02*
X101351785Y-120382200D01*
X101351785Y-120382200D02*
X101399404Y-120334580D01*
X101399404Y-120334580D02*
X101447023Y-120239342D01*
X101447023Y-120239342D02*
X101447023Y-119429819D01*
X101827976Y-119429819D02*
X102447023Y-119429819D01*
X102447023Y-119429819D02*
X102113690Y-119810771D01*
X102113690Y-119810771D02*
X102256547Y-119810771D01*
X102256547Y-119810771D02*
X102351785Y-119858390D01*
X102351785Y-119858390D02*
X102399404Y-119906009D01*
X102399404Y-119906009D02*
X102447023Y-120001247D01*
X102447023Y-120001247D02*
X102447023Y-120239342D01*
X102447023Y-120239342D02*
X102399404Y-120334580D01*
X102399404Y-120334580D02*
X102351785Y-120382200D01*
X102351785Y-120382200D02*
X102256547Y-120429819D01*
X102256547Y-120429819D02*
X101970833Y-120429819D01*
X101970833Y-120429819D02*
X101875595Y-120382200D01*
X101875595Y-120382200D02*
X101827976Y-120334580D01*
X89738095Y-129454819D02*
X89738095Y-130264342D01*
X89738095Y-130264342D02*
X89785714Y-130359580D01*
X89785714Y-130359580D02*
X89833333Y-130407200D01*
X89833333Y-130407200D02*
X89928571Y-130454819D01*
X89928571Y-130454819D02*
X90119047Y-130454819D01*
X90119047Y-130454819D02*
X90214285Y-130407200D01*
X90214285Y-130407200D02*
X90261904Y-130359580D01*
X90261904Y-130359580D02*
X90309523Y-130264342D01*
X90309523Y-130264342D02*
X90309523Y-129454819D01*
X91309523Y-130454819D02*
X90738095Y-130454819D01*
X91023809Y-130454819D02*
X91023809Y-129454819D01*
X91023809Y-129454819D02*
X90928571Y-129597676D01*
X90928571Y-129597676D02*
X90833333Y-129692914D01*
X90833333Y-129692914D02*
X90738095Y-129740533D01*
X109333333Y-120454819D02*
X109000000Y-119978628D01*
X108761905Y-120454819D02*
X108761905Y-119454819D01*
X108761905Y-119454819D02*
X109142857Y-119454819D01*
X109142857Y-119454819D02*
X109238095Y-119502438D01*
X109238095Y-119502438D02*
X109285714Y-119550057D01*
X109285714Y-119550057D02*
X109333333Y-119645295D01*
X109333333Y-119645295D02*
X109333333Y-119788152D01*
X109333333Y-119788152D02*
X109285714Y-119883390D01*
X109285714Y-119883390D02*
X109238095Y-119931009D01*
X109238095Y-119931009D02*
X109142857Y-119978628D01*
X109142857Y-119978628D02*
X108761905Y-119978628D01*
X109809524Y-120454819D02*
X110000000Y-120454819D01*
X110000000Y-120454819D02*
X110095238Y-120407200D01*
X110095238Y-120407200D02*
X110142857Y-120359580D01*
X110142857Y-120359580D02*
X110238095Y-120216723D01*
X110238095Y-120216723D02*
X110285714Y-120026247D01*
X110285714Y-120026247D02*
X110285714Y-119645295D01*
X110285714Y-119645295D02*
X110238095Y-119550057D01*
X110238095Y-119550057D02*
X110190476Y-119502438D01*
X110190476Y-119502438D02*
X110095238Y-119454819D01*
X110095238Y-119454819D02*
X109904762Y-119454819D01*
X109904762Y-119454819D02*
X109809524Y-119502438D01*
X109809524Y-119502438D02*
X109761905Y-119550057D01*
X109761905Y-119550057D02*
X109714286Y-119645295D01*
X109714286Y-119645295D02*
X109714286Y-119883390D01*
X109714286Y-119883390D02*
X109761905Y-119978628D01*
X109761905Y-119978628D02*
X109809524Y-120026247D01*
X109809524Y-120026247D02*
X109904762Y-120073866D01*
X109904762Y-120073866D02*
X110095238Y-120073866D01*
X110095238Y-120073866D02*
X110190476Y-120026247D01*
X110190476Y-120026247D02*
X110238095Y-119978628D01*
X110238095Y-119978628D02*
X110285714Y-119883390D01*
X116333333Y-120454819D02*
X116000000Y-119978628D01*
X115761905Y-120454819D02*
X115761905Y-119454819D01*
X115761905Y-119454819D02*
X116142857Y-119454819D01*
X116142857Y-119454819D02*
X116238095Y-119502438D01*
X116238095Y-119502438D02*
X116285714Y-119550057D01*
X116285714Y-119550057D02*
X116333333Y-119645295D01*
X116333333Y-119645295D02*
X116333333Y-119788152D01*
X116333333Y-119788152D02*
X116285714Y-119883390D01*
X116285714Y-119883390D02*
X116238095Y-119931009D01*
X116238095Y-119931009D02*
X116142857Y-119978628D01*
X116142857Y-119978628D02*
X115761905Y-119978628D01*
X116904762Y-119883390D02*
X116809524Y-119835771D01*
X116809524Y-119835771D02*
X116761905Y-119788152D01*
X116761905Y-119788152D02*
X116714286Y-119692914D01*
X116714286Y-119692914D02*
X116714286Y-119645295D01*
X116714286Y-119645295D02*
X116761905Y-119550057D01*
X116761905Y-119550057D02*
X116809524Y-119502438D01*
X116809524Y-119502438D02*
X116904762Y-119454819D01*
X116904762Y-119454819D02*
X117095238Y-119454819D01*
X117095238Y-119454819D02*
X117190476Y-119502438D01*
X117190476Y-119502438D02*
X117238095Y-119550057D01*
X117238095Y-119550057D02*
X117285714Y-119645295D01*
X117285714Y-119645295D02*
X117285714Y-119692914D01*
X117285714Y-119692914D02*
X117238095Y-119788152D01*
X117238095Y-119788152D02*
X117190476Y-119835771D01*
X117190476Y-119835771D02*
X117095238Y-119883390D01*
X117095238Y-119883390D02*
X116904762Y-119883390D01*
X116904762Y-119883390D02*
X116809524Y-119931009D01*
X116809524Y-119931009D02*
X116761905Y-119978628D01*
X116761905Y-119978628D02*
X116714286Y-120073866D01*
X116714286Y-120073866D02*
X116714286Y-120264342D01*
X116714286Y-120264342D02*
X116761905Y-120359580D01*
X116761905Y-120359580D02*
X116809524Y-120407200D01*
X116809524Y-120407200D02*
X116904762Y-120454819D01*
X116904762Y-120454819D02*
X117095238Y-120454819D01*
X117095238Y-120454819D02*
X117190476Y-120407200D01*
X117190476Y-120407200D02*
X117238095Y-120359580D01*
X117238095Y-120359580D02*
X117285714Y-120264342D01*
X117285714Y-120264342D02*
X117285714Y-120073866D01*
X117285714Y-120073866D02*
X117238095Y-119978628D01*
X117238095Y-119978628D02*
X117190476Y-119931009D01*
X117190476Y-119931009D02*
X117095238Y-119883390D01*
X114331648Y-123634928D02*
X113998315Y-123158737D01*
X113760220Y-123634928D02*
X113760220Y-122634928D01*
X113760220Y-122634928D02*
X114141172Y-122634928D01*
X114141172Y-122634928D02*
X114236410Y-122682547D01*
X114236410Y-122682547D02*
X114284029Y-122730166D01*
X114284029Y-122730166D02*
X114331648Y-122825404D01*
X114331648Y-122825404D02*
X114331648Y-122968261D01*
X114331648Y-122968261D02*
X114284029Y-123063499D01*
X114284029Y-123063499D02*
X114236410Y-123111118D01*
X114236410Y-123111118D02*
X114141172Y-123158737D01*
X114141172Y-123158737D02*
X113760220Y-123158737D01*
X114664982Y-122634928D02*
X115331648Y-122634928D01*
X115331648Y-122634928D02*
X114903077Y-123634928D01*
X124333333Y-114954819D02*
X124000000Y-114478628D01*
X123761905Y-114954819D02*
X123761905Y-113954819D01*
X123761905Y-113954819D02*
X124142857Y-113954819D01*
X124142857Y-113954819D02*
X124238095Y-114002438D01*
X124238095Y-114002438D02*
X124285714Y-114050057D01*
X124285714Y-114050057D02*
X124333333Y-114145295D01*
X124333333Y-114145295D02*
X124333333Y-114288152D01*
X124333333Y-114288152D02*
X124285714Y-114383390D01*
X124285714Y-114383390D02*
X124238095Y-114431009D01*
X124238095Y-114431009D02*
X124142857Y-114478628D01*
X124142857Y-114478628D02*
X123761905Y-114478628D01*
X125190476Y-113954819D02*
X125000000Y-113954819D01*
X125000000Y-113954819D02*
X124904762Y-114002438D01*
X124904762Y-114002438D02*
X124857143Y-114050057D01*
X124857143Y-114050057D02*
X124761905Y-114192914D01*
X124761905Y-114192914D02*
X124714286Y-114383390D01*
X124714286Y-114383390D02*
X124714286Y-114764342D01*
X124714286Y-114764342D02*
X124761905Y-114859580D01*
X124761905Y-114859580D02*
X124809524Y-114907200D01*
X124809524Y-114907200D02*
X124904762Y-114954819D01*
X124904762Y-114954819D02*
X125095238Y-114954819D01*
X125095238Y-114954819D02*
X125190476Y-114907200D01*
X125190476Y-114907200D02*
X125238095Y-114859580D01*
X125238095Y-114859580D02*
X125285714Y-114764342D01*
X125285714Y-114764342D02*
X125285714Y-114526247D01*
X125285714Y-114526247D02*
X125238095Y-114431009D01*
X125238095Y-114431009D02*
X125190476Y-114383390D01*
X125190476Y-114383390D02*
X125095238Y-114335771D01*
X125095238Y-114335771D02*
X124904762Y-114335771D01*
X124904762Y-114335771D02*
X124809524Y-114383390D01*
X124809524Y-114383390D02*
X124761905Y-114431009D01*
X124761905Y-114431009D02*
X124714286Y-114526247D01*
X121333333Y-114954819D02*
X121000000Y-114478628D01*
X120761905Y-114954819D02*
X120761905Y-113954819D01*
X120761905Y-113954819D02*
X121142857Y-113954819D01*
X121142857Y-113954819D02*
X121238095Y-114002438D01*
X121238095Y-114002438D02*
X121285714Y-114050057D01*
X121285714Y-114050057D02*
X121333333Y-114145295D01*
X121333333Y-114145295D02*
X121333333Y-114288152D01*
X121333333Y-114288152D02*
X121285714Y-114383390D01*
X121285714Y-114383390D02*
X121238095Y-114431009D01*
X121238095Y-114431009D02*
X121142857Y-114478628D01*
X121142857Y-114478628D02*
X120761905Y-114478628D01*
X122238095Y-113954819D02*
X121761905Y-113954819D01*
X121761905Y-113954819D02*
X121714286Y-114431009D01*
X121714286Y-114431009D02*
X121761905Y-114383390D01*
X121761905Y-114383390D02*
X121857143Y-114335771D01*
X121857143Y-114335771D02*
X122095238Y-114335771D01*
X122095238Y-114335771D02*
X122190476Y-114383390D01*
X122190476Y-114383390D02*
X122238095Y-114431009D01*
X122238095Y-114431009D02*
X122285714Y-114526247D01*
X122285714Y-114526247D02*
X122285714Y-114764342D01*
X122285714Y-114764342D02*
X122238095Y-114859580D01*
X122238095Y-114859580D02*
X122190476Y-114907200D01*
X122190476Y-114907200D02*
X122095238Y-114954819D01*
X122095238Y-114954819D02*
X121857143Y-114954819D01*
X121857143Y-114954819D02*
X121761905Y-114907200D01*
X121761905Y-114907200D02*
X121714286Y-114859580D01*
X109333333Y-114954819D02*
X109000000Y-114478628D01*
X108761905Y-114954819D02*
X108761905Y-113954819D01*
X108761905Y-113954819D02*
X109142857Y-113954819D01*
X109142857Y-113954819D02*
X109238095Y-114002438D01*
X109238095Y-114002438D02*
X109285714Y-114050057D01*
X109285714Y-114050057D02*
X109333333Y-114145295D01*
X109333333Y-114145295D02*
X109333333Y-114288152D01*
X109333333Y-114288152D02*
X109285714Y-114383390D01*
X109285714Y-114383390D02*
X109238095Y-114431009D01*
X109238095Y-114431009D02*
X109142857Y-114478628D01*
X109142857Y-114478628D02*
X108761905Y-114478628D01*
X110190476Y-114288152D02*
X110190476Y-114954819D01*
X109952381Y-113907200D02*
X109714286Y-114621485D01*
X109714286Y-114621485D02*
X110333333Y-114621485D01*
X112333333Y-114954819D02*
X112000000Y-114478628D01*
X111761905Y-114954819D02*
X111761905Y-113954819D01*
X111761905Y-113954819D02*
X112142857Y-113954819D01*
X112142857Y-113954819D02*
X112238095Y-114002438D01*
X112238095Y-114002438D02*
X112285714Y-114050057D01*
X112285714Y-114050057D02*
X112333333Y-114145295D01*
X112333333Y-114145295D02*
X112333333Y-114288152D01*
X112333333Y-114288152D02*
X112285714Y-114383390D01*
X112285714Y-114383390D02*
X112238095Y-114431009D01*
X112238095Y-114431009D02*
X112142857Y-114478628D01*
X112142857Y-114478628D02*
X111761905Y-114478628D01*
X112666667Y-113954819D02*
X113285714Y-113954819D01*
X113285714Y-113954819D02*
X112952381Y-114335771D01*
X112952381Y-114335771D02*
X113095238Y-114335771D01*
X113095238Y-114335771D02*
X113190476Y-114383390D01*
X113190476Y-114383390D02*
X113238095Y-114431009D01*
X113238095Y-114431009D02*
X113285714Y-114526247D01*
X113285714Y-114526247D02*
X113285714Y-114764342D01*
X113285714Y-114764342D02*
X113238095Y-114859580D01*
X113238095Y-114859580D02*
X113190476Y-114907200D01*
X113190476Y-114907200D02*
X113095238Y-114954819D01*
X113095238Y-114954819D02*
X112809524Y-114954819D01*
X112809524Y-114954819D02*
X112714286Y-114907200D01*
X112714286Y-114907200D02*
X112666667Y-114859580D01*
X115333333Y-114954819D02*
X115000000Y-114478628D01*
X114761905Y-114954819D02*
X114761905Y-113954819D01*
X114761905Y-113954819D02*
X115142857Y-113954819D01*
X115142857Y-113954819D02*
X115238095Y-114002438D01*
X115238095Y-114002438D02*
X115285714Y-114050057D01*
X115285714Y-114050057D02*
X115333333Y-114145295D01*
X115333333Y-114145295D02*
X115333333Y-114288152D01*
X115333333Y-114288152D02*
X115285714Y-114383390D01*
X115285714Y-114383390D02*
X115238095Y-114431009D01*
X115238095Y-114431009D02*
X115142857Y-114478628D01*
X115142857Y-114478628D02*
X114761905Y-114478628D01*
X115714286Y-114050057D02*
X115761905Y-114002438D01*
X115761905Y-114002438D02*
X115857143Y-113954819D01*
X115857143Y-113954819D02*
X116095238Y-113954819D01*
X116095238Y-113954819D02*
X116190476Y-114002438D01*
X116190476Y-114002438D02*
X116238095Y-114050057D01*
X116238095Y-114050057D02*
X116285714Y-114145295D01*
X116285714Y-114145295D02*
X116285714Y-114240533D01*
X116285714Y-114240533D02*
X116238095Y-114383390D01*
X116238095Y-114383390D02*
X115666667Y-114954819D01*
X115666667Y-114954819D02*
X116285714Y-114954819D01*
X84785714Y-115169104D02*
X85261904Y-115169104D01*
X84690476Y-115454819D02*
X85023809Y-114454819D01*
X85023809Y-114454819D02*
X85357142Y-115454819D01*
X86166666Y-114454819D02*
X85690476Y-114454819D01*
X85690476Y-114454819D02*
X85642857Y-114931009D01*
X85642857Y-114931009D02*
X85690476Y-114883390D01*
X85690476Y-114883390D02*
X85785714Y-114835771D01*
X85785714Y-114835771D02*
X86023809Y-114835771D01*
X86023809Y-114835771D02*
X86119047Y-114883390D01*
X86119047Y-114883390D02*
X86166666Y-114931009D01*
X86166666Y-114931009D02*
X86214285Y-115026247D01*
X86214285Y-115026247D02*
X86214285Y-115264342D01*
X86214285Y-115264342D02*
X86166666Y-115359580D01*
X86166666Y-115359580D02*
X86119047Y-115407200D01*
X86119047Y-115407200D02*
X86023809Y-115454819D01*
X86023809Y-115454819D02*
X85785714Y-115454819D01*
X85785714Y-115454819D02*
X85690476Y-115407200D01*
X85690476Y-115407200D02*
X85642857Y-115359580D01*
X88785714Y-115169104D02*
X89261904Y-115169104D01*
X88690476Y-115454819D02*
X89023809Y-114454819D01*
X89023809Y-114454819D02*
X89357142Y-115454819D01*
X90119047Y-114788152D02*
X90119047Y-115454819D01*
X89880952Y-114407200D02*
X89642857Y-115121485D01*
X89642857Y-115121485D02*
X90261904Y-115121485D01*
X92785714Y-115169104D02*
X93261904Y-115169104D01*
X92690476Y-115454819D02*
X93023809Y-114454819D01*
X93023809Y-114454819D02*
X93357142Y-115454819D01*
X93595238Y-114454819D02*
X94214285Y-114454819D01*
X94214285Y-114454819D02*
X93880952Y-114835771D01*
X93880952Y-114835771D02*
X94023809Y-114835771D01*
X94023809Y-114835771D02*
X94119047Y-114883390D01*
X94119047Y-114883390D02*
X94166666Y-114931009D01*
X94166666Y-114931009D02*
X94214285Y-115026247D01*
X94214285Y-115026247D02*
X94214285Y-115264342D01*
X94214285Y-115264342D02*
X94166666Y-115359580D01*
X94166666Y-115359580D02*
X94119047Y-115407200D01*
X94119047Y-115407200D02*
X94023809Y-115454819D01*
X94023809Y-115454819D02*
X93738095Y-115454819D01*
X93738095Y-115454819D02*
X93642857Y-115407200D01*
X93642857Y-115407200D02*
X93595238Y-115359580D01*
X96785714Y-115169104D02*
X97261904Y-115169104D01*
X96690476Y-115454819D02*
X97023809Y-114454819D01*
X97023809Y-114454819D02*
X97357142Y-115454819D01*
X97642857Y-114550057D02*
X97690476Y-114502438D01*
X97690476Y-114502438D02*
X97785714Y-114454819D01*
X97785714Y-114454819D02*
X98023809Y-114454819D01*
X98023809Y-114454819D02*
X98119047Y-114502438D01*
X98119047Y-114502438D02*
X98166666Y-114550057D01*
X98166666Y-114550057D02*
X98214285Y-114645295D01*
X98214285Y-114645295D02*
X98214285Y-114740533D01*
X98214285Y-114740533D02*
X98166666Y-114883390D01*
X98166666Y-114883390D02*
X97595238Y-115454819D01*
X97595238Y-115454819D02*
X98214285Y-115454819D01*
X100785714Y-115169104D02*
X101261904Y-115169104D01*
X100690476Y-115454819D02*
X101023809Y-114454819D01*
X101023809Y-114454819D02*
X101357142Y-115454819D01*
X102214285Y-115454819D02*
X101642857Y-115454819D01*
X101928571Y-115454819D02*
X101928571Y-114454819D01*
X101928571Y-114454819D02*
X101833333Y-114597676D01*
X101833333Y-114597676D02*
X101738095Y-114692914D01*
X101738095Y-114692914D02*
X101642857Y-114740533D01*
X104785714Y-115169104D02*
X105261904Y-115169104D01*
X104690476Y-115454819D02*
X105023809Y-114454819D01*
X105023809Y-114454819D02*
X105357142Y-115454819D01*
X105880952Y-114454819D02*
X105976190Y-114454819D01*
X105976190Y-114454819D02*
X106071428Y-114502438D01*
X106071428Y-114502438D02*
X106119047Y-114550057D01*
X106119047Y-114550057D02*
X106166666Y-114645295D01*
X106166666Y-114645295D02*
X106214285Y-114835771D01*
X106214285Y-114835771D02*
X106214285Y-115073866D01*
X106214285Y-115073866D02*
X106166666Y-115264342D01*
X106166666Y-115264342D02*
X106119047Y-115359580D01*
X106119047Y-115359580D02*
X106071428Y-115407200D01*
X106071428Y-115407200D02*
X105976190Y-115454819D01*
X105976190Y-115454819D02*
X105880952Y-115454819D01*
X105880952Y-115454819D02*
X105785714Y-115407200D01*
X105785714Y-115407200D02*
X105738095Y-115359580D01*
X105738095Y-115359580D02*
X105690476Y-115264342D01*
X105690476Y-115264342D02*
X105642857Y-115073866D01*
X105642857Y-115073866D02*
X105642857Y-114835771D01*
X105642857Y-114835771D02*
X105690476Y-114645295D01*
X105690476Y-114645295D02*
X105738095Y-114550057D01*
X105738095Y-114550057D02*
X105785714Y-114502438D01*
X105785714Y-114502438D02*
X105880952Y-114454819D01*
X104333333Y-134859580D02*
X104285714Y-134907200D01*
X104285714Y-134907200D02*
X104142857Y-134954819D01*
X104142857Y-134954819D02*
X104047619Y-134954819D01*
X104047619Y-134954819D02*
X103904762Y-134907200D01*
X103904762Y-134907200D02*
X103809524Y-134811961D01*
X103809524Y-134811961D02*
X103761905Y-134716723D01*
X103761905Y-134716723D02*
X103714286Y-134526247D01*
X103714286Y-134526247D02*
X103714286Y-134383390D01*
X103714286Y-134383390D02*
X103761905Y-134192914D01*
X103761905Y-134192914D02*
X103809524Y-134097676D01*
X103809524Y-134097676D02*
X103904762Y-134002438D01*
X103904762Y-134002438D02*
X104047619Y-133954819D01*
X104047619Y-133954819D02*
X104142857Y-133954819D01*
X104142857Y-133954819D02*
X104285714Y-134002438D01*
X104285714Y-134002438D02*
X104333333Y-134050057D01*
X104714286Y-134050057D02*
X104761905Y-134002438D01*
X104761905Y-134002438D02*
X104857143Y-133954819D01*
X104857143Y-133954819D02*
X105095238Y-133954819D01*
X105095238Y-133954819D02*
X105190476Y-134002438D01*
X105190476Y-134002438D02*
X105238095Y-134050057D01*
X105238095Y-134050057D02*
X105285714Y-134145295D01*
X105285714Y-134145295D02*
X105285714Y-134240533D01*
X105285714Y-134240533D02*
X105238095Y-134383390D01*
X105238095Y-134383390D02*
X104666667Y-134954819D01*
X104666667Y-134954819D02*
X105285714Y-134954819D01*
X82833333Y-130859580D02*
X82785714Y-130907200D01*
X82785714Y-130907200D02*
X82642857Y-130954819D01*
X82642857Y-130954819D02*
X82547619Y-130954819D01*
X82547619Y-130954819D02*
X82404762Y-130907200D01*
X82404762Y-130907200D02*
X82309524Y-130811961D01*
X82309524Y-130811961D02*
X82261905Y-130716723D01*
X82261905Y-130716723D02*
X82214286Y-130526247D01*
X82214286Y-130526247D02*
X82214286Y-130383390D01*
X82214286Y-130383390D02*
X82261905Y-130192914D01*
X82261905Y-130192914D02*
X82309524Y-130097676D01*
X82309524Y-130097676D02*
X82404762Y-130002438D01*
X82404762Y-130002438D02*
X82547619Y-129954819D01*
X82547619Y-129954819D02*
X82642857Y-129954819D01*
X82642857Y-129954819D02*
X82785714Y-130002438D01*
X82785714Y-130002438D02*
X82833333Y-130050057D01*
X83785714Y-130954819D02*
X83214286Y-130954819D01*
X83500000Y-130954819D02*
X83500000Y-129954819D01*
X83500000Y-129954819D02*
X83404762Y-130097676D01*
X83404762Y-130097676D02*
X83309524Y-130192914D01*
X83309524Y-130192914D02*
X83214286Y-130240533D01*
X111238095Y-129454819D02*
X111238095Y-130264342D01*
X111238095Y-130264342D02*
X111285714Y-130359580D01*
X111285714Y-130359580D02*
X111333333Y-130407200D01*
X111333333Y-130407200D02*
X111428571Y-130454819D01*
X111428571Y-130454819D02*
X111619047Y-130454819D01*
X111619047Y-130454819D02*
X111714285Y-130407200D01*
X111714285Y-130407200D02*
X111761904Y-130359580D01*
X111761904Y-130359580D02*
X111809523Y-130264342D01*
X111809523Y-130264342D02*
X111809523Y-129454819D01*
X112238095Y-129550057D02*
X112285714Y-129502438D01*
X112285714Y-129502438D02*
X112380952Y-129454819D01*
X112380952Y-129454819D02*
X112619047Y-129454819D01*
X112619047Y-129454819D02*
X112714285Y-129502438D01*
X112714285Y-129502438D02*
X112761904Y-129550057D01*
X112761904Y-129550057D02*
X112809523Y-129645295D01*
X112809523Y-129645295D02*
X112809523Y-129740533D01*
X112809523Y-129740533D02*
X112761904Y-129883390D01*
X112761904Y-129883390D02*
X112190476Y-130454819D01*
X112190476Y-130454819D02*
X112809523Y-130454819D01*
X118333333Y-114954819D02*
X118000000Y-114478628D01*
X117761905Y-114954819D02*
X117761905Y-113954819D01*
X117761905Y-113954819D02*
X118142857Y-113954819D01*
X118142857Y-113954819D02*
X118238095Y-114002438D01*
X118238095Y-114002438D02*
X118285714Y-114050057D01*
X118285714Y-114050057D02*
X118333333Y-114145295D01*
X118333333Y-114145295D02*
X118333333Y-114288152D01*
X118333333Y-114288152D02*
X118285714Y-114383390D01*
X118285714Y-114383390D02*
X118238095Y-114431009D01*
X118238095Y-114431009D02*
X118142857Y-114478628D01*
X118142857Y-114478628D02*
X117761905Y-114478628D01*
X119285714Y-114954819D02*
X118714286Y-114954819D01*
X119000000Y-114954819D02*
X119000000Y-113954819D01*
X119000000Y-113954819D02*
X118904762Y-114097676D01*
X118904762Y-114097676D02*
X118809524Y-114192914D01*
X118809524Y-114192914D02*
X118714286Y-114240533D01*
D13*
%TO.C,J1*%
X125330000Y-129110000D02*
X125330000Y-139330000D01*
X122670000Y-139330000D02*
X125330000Y-139330000D01*
X122670000Y-129110000D02*
X125330000Y-129110000D01*
X122670000Y-129110000D02*
X122670000Y-139330000D01*
X122670000Y-127840000D02*
X122670000Y-126510000D01*
X122670000Y-126510000D02*
X124000000Y-126510000D01*
%TO.C,J3*%
X124560000Y-143940000D02*
X124560000Y-145000000D01*
X123500000Y-143940000D02*
X124560000Y-143940000D01*
X122500000Y-143940000D02*
X104440000Y-143940000D01*
X122500000Y-143940000D02*
X122500000Y-146060000D01*
X104440000Y-143940000D02*
X104440000Y-146060000D01*
X122500000Y-146060000D02*
X104440000Y-146060000D01*
%TO.C,J2*%
X101560000Y-143940000D02*
X101560000Y-145000000D01*
X100500000Y-143940000D02*
X101560000Y-143940000D01*
X99500000Y-143940000D02*
X81440000Y-143940000D01*
X99500000Y-143940000D02*
X99500000Y-146060000D01*
X81440000Y-143940000D02*
X81440000Y-146060000D01*
X99500000Y-146060000D02*
X81440000Y-146060000D01*
%TO.C,U3*%
X99327500Y-120815000D02*
X99327500Y-121090000D01*
X99327500Y-130735000D02*
X99327500Y-130460000D01*
X101637500Y-120815000D02*
X99327500Y-120815000D01*
X101637500Y-120815000D02*
X103947500Y-120815000D01*
X101637500Y-130735000D02*
X99327500Y-130735000D01*
X101637500Y-130735000D02*
X103947500Y-130735000D01*
X103947500Y-120815000D02*
X103947500Y-121090000D01*
X103947500Y-130735000D02*
X103947500Y-130460000D01*
X98737500Y-121090000D02*
X98497500Y-120760000D01*
X98977500Y-120760000D01*
X98737500Y-121090000D01*
G36*
X98737500Y-121090000D02*
G01*
X98497500Y-120760000D01*
X98977500Y-120760000D01*
X98737500Y-121090000D01*
G37*
%TO.C,U1*%
X96305000Y-132790000D02*
X96060000Y-132790000D01*
X84535000Y-132790000D02*
X84780000Y-132790000D01*
X96305000Y-136650000D02*
X96305000Y-132790000D01*
X96305000Y-136650000D02*
X96305000Y-140510000D01*
X84535000Y-136650000D02*
X84535000Y-132790000D01*
X84535000Y-136650000D02*
X84535000Y-140510000D01*
X96305000Y-140510000D02*
X96060000Y-140510000D01*
X84535000Y-140510000D02*
X84780000Y-140510000D01*
X96530000Y-132277500D02*
X96060000Y-131937500D01*
X96530000Y-131597500D01*
X96530000Y-132277500D01*
G36*
X96530000Y-132277500D02*
G01*
X96060000Y-131937500D01*
X96530000Y-131597500D01*
X96530000Y-132277500D01*
G37*
%TO.C,R9*%
X110765000Y-120772936D02*
X110765000Y-121227064D01*
X112235000Y-120772936D02*
X112235000Y-121227064D01*
%TO.C,R8*%
X115235000Y-120772936D02*
X115235000Y-121227064D01*
X113765000Y-120772936D02*
X113765000Y-121227064D01*
%TO.C,R7*%
X114271251Y-125565109D02*
X114725379Y-125565109D01*
X114271251Y-124095109D02*
X114725379Y-124095109D01*
%TO.C,R6*%
X125235000Y-116772936D02*
X125235000Y-117227064D01*
X123765000Y-116772936D02*
X123765000Y-117227064D01*
%TO.C,R5*%
X122235000Y-116772936D02*
X122235000Y-117227064D01*
X120765000Y-116772936D02*
X120765000Y-117227064D01*
%TO.C,R4*%
X108765000Y-116772936D02*
X108765000Y-117227064D01*
X110235000Y-116772936D02*
X110235000Y-117227064D01*
%TO.C,R3*%
X113235000Y-116772936D02*
X113235000Y-117227064D01*
X111765000Y-116772936D02*
X111765000Y-117227064D01*
%TO.C,R2*%
X116235000Y-116772936D02*
X116235000Y-117227064D01*
X114765000Y-116772936D02*
X114765000Y-117227064D01*
%TO.C,A5*%
X84500000Y-118587500D02*
X84500000Y-115787500D01*
X86500000Y-118587500D02*
X84500000Y-118587500D01*
X84500000Y-115787500D02*
X86500000Y-115787500D01*
X86500000Y-115787500D02*
X86500000Y-118587500D01*
%TO.C,A4*%
X88500000Y-118537500D02*
X88500000Y-115737500D01*
X90500000Y-118537500D02*
X88500000Y-118537500D01*
X88500000Y-115737500D02*
X90500000Y-115737500D01*
X90500000Y-115737500D02*
X90500000Y-118537500D01*
%TO.C,A3*%
X92500000Y-118537500D02*
X92500000Y-115737500D01*
X94500000Y-118537500D02*
X92500000Y-118537500D01*
X92500000Y-115737500D02*
X94500000Y-115737500D01*
X94500000Y-115737500D02*
X94500000Y-118537500D01*
%TO.C,A2*%
X96500000Y-118537500D02*
X96500000Y-115737500D01*
X98500000Y-118537500D02*
X96500000Y-118537500D01*
X96500000Y-115737500D02*
X98500000Y-115737500D01*
X98500000Y-115737500D02*
X98500000Y-118537500D01*
%TO.C,A1*%
X100500000Y-118537500D02*
X100500000Y-115737500D01*
X102500000Y-118537500D02*
X100500000Y-118537500D01*
X100500000Y-115737500D02*
X102500000Y-115737500D01*
X102500000Y-115737500D02*
X102500000Y-118537500D01*
%TO.C,A0*%
X106500000Y-115737500D02*
X106500000Y-118537500D01*
X104500000Y-115737500D02*
X106500000Y-115737500D01*
X106500000Y-118537500D02*
X104500000Y-118537500D01*
X104500000Y-118537500D02*
X104500000Y-115737500D01*
%TO.C,C2*%
X103765000Y-136688748D02*
X103765000Y-137211252D01*
X105235000Y-136688748D02*
X105235000Y-137211252D01*
%TO.C,C1*%
X83695000Y-132688748D02*
X83695000Y-133211252D01*
X82225000Y-132688748D02*
X82225000Y-133211252D01*
%TO.C,U2*%
X117805000Y-132790000D02*
X117560000Y-132790000D01*
X106035000Y-132790000D02*
X106280000Y-132790000D01*
X117805000Y-136650000D02*
X117805000Y-132790000D01*
X117805000Y-136650000D02*
X117805000Y-140510000D01*
X106035000Y-136650000D02*
X106035000Y-132790000D01*
X106035000Y-136650000D02*
X106035000Y-140510000D01*
X117805000Y-140510000D02*
X117560000Y-140510000D01*
X106035000Y-140510000D02*
X106280000Y-140510000D01*
X118030000Y-132277500D02*
X117560000Y-131937500D01*
X118030000Y-131597500D01*
X118030000Y-132277500D01*
G36*
X118030000Y-132277500D02*
G01*
X117560000Y-131937500D01*
X118030000Y-131597500D01*
X118030000Y-132277500D01*
G37*
%TO.C,R1*%
X117765000Y-116772936D02*
X117765000Y-117227064D01*
X119235000Y-116772936D02*
X119235000Y-117227064D01*
%TD*%
M02*
