%TF.GenerationSoftware,KiCad,Pcbnew,8.0.4*%
%TF.CreationDate,2024-10-03T18:09:18-05:00*%
%TF.ProjectId,Haptics PWM module,48617074-6963-4732-9050-574d206d6f64,rev?*%
%TF.SameCoordinates,Original*%
%TF.FileFunction,Drillmap*%
%TF.FilePolarity,Positive*%
%FSLAX45Y45*%
G04 Gerber Fmt 4.5, Leading zero omitted, Abs format (unit mm)*
G04 Created by KiCad (PCBNEW 8.0.4) date 2024-10-03 18:09:18*
%MOMM*%
%LPD*%
G01*
G04 APERTURE LIST*
%ADD10C,0.050000*%
%ADD11C,0.200000*%
G04 APERTURE END LIST*
D10*
X7000000Y-5300000D02*
X13200000Y-5300000D01*
X13200000Y-8900000D01*
X7000000Y-8900000D01*
X7000000Y-5300000D01*
D11*
X7258277Y-9213984D02*
X7258277Y-9013984D01*
X7258277Y-9013984D02*
X7305896Y-9013984D01*
X7305896Y-9013984D02*
X7334467Y-9023508D01*
X7334467Y-9023508D02*
X7353515Y-9042555D01*
X7353515Y-9042555D02*
X7363039Y-9061603D01*
X7363039Y-9061603D02*
X7372562Y-9099698D01*
X7372562Y-9099698D02*
X7372562Y-9128270D01*
X7372562Y-9128270D02*
X7363039Y-9166365D01*
X7363039Y-9166365D02*
X7353515Y-9185412D01*
X7353515Y-9185412D02*
X7334467Y-9204460D01*
X7334467Y-9204460D02*
X7305896Y-9213984D01*
X7305896Y-9213984D02*
X7258277Y-9213984D01*
X7458277Y-9213984D02*
X7458277Y-9080650D01*
X7458277Y-9118746D02*
X7467801Y-9099698D01*
X7467801Y-9099698D02*
X7477324Y-9090174D01*
X7477324Y-9090174D02*
X7496372Y-9080650D01*
X7496372Y-9080650D02*
X7515420Y-9080650D01*
X7582086Y-9213984D02*
X7582086Y-9080650D01*
X7582086Y-9013984D02*
X7572562Y-9023508D01*
X7572562Y-9023508D02*
X7582086Y-9033031D01*
X7582086Y-9033031D02*
X7591610Y-9023508D01*
X7591610Y-9023508D02*
X7582086Y-9013984D01*
X7582086Y-9013984D02*
X7582086Y-9033031D01*
X7705896Y-9213984D02*
X7686848Y-9204460D01*
X7686848Y-9204460D02*
X7677324Y-9185412D01*
X7677324Y-9185412D02*
X7677324Y-9013984D01*
X7810658Y-9213984D02*
X7791610Y-9204460D01*
X7791610Y-9204460D02*
X7782086Y-9185412D01*
X7782086Y-9185412D02*
X7782086Y-9013984D01*
X8039229Y-9213984D02*
X8039229Y-9013984D01*
X8039229Y-9013984D02*
X8105896Y-9156841D01*
X8105896Y-9156841D02*
X8172562Y-9013984D01*
X8172562Y-9013984D02*
X8172562Y-9213984D01*
X8353515Y-9213984D02*
X8353515Y-9109222D01*
X8353515Y-9109222D02*
X8343991Y-9090174D01*
X8343991Y-9090174D02*
X8324943Y-9080650D01*
X8324943Y-9080650D02*
X8286848Y-9080650D01*
X8286848Y-9080650D02*
X8267801Y-9090174D01*
X8353515Y-9204460D02*
X8334467Y-9213984D01*
X8334467Y-9213984D02*
X8286848Y-9213984D01*
X8286848Y-9213984D02*
X8267801Y-9204460D01*
X8267801Y-9204460D02*
X8258277Y-9185412D01*
X8258277Y-9185412D02*
X8258277Y-9166365D01*
X8258277Y-9166365D02*
X8267801Y-9147317D01*
X8267801Y-9147317D02*
X8286848Y-9137793D01*
X8286848Y-9137793D02*
X8334467Y-9137793D01*
X8334467Y-9137793D02*
X8353515Y-9128270D01*
X8448753Y-9080650D02*
X8448753Y-9280650D01*
X8448753Y-9090174D02*
X8467801Y-9080650D01*
X8467801Y-9080650D02*
X8505896Y-9080650D01*
X8505896Y-9080650D02*
X8524944Y-9090174D01*
X8524944Y-9090174D02*
X8534467Y-9099698D01*
X8534467Y-9099698D02*
X8543991Y-9118746D01*
X8543991Y-9118746D02*
X8543991Y-9175889D01*
X8543991Y-9175889D02*
X8534467Y-9194936D01*
X8534467Y-9194936D02*
X8524944Y-9204460D01*
X8524944Y-9204460D02*
X8505896Y-9213984D01*
X8505896Y-9213984D02*
X8467801Y-9213984D01*
X8467801Y-9213984D02*
X8448753Y-9204460D01*
X8629705Y-9194936D02*
X8639229Y-9204460D01*
X8639229Y-9204460D02*
X8629705Y-9213984D01*
X8629705Y-9213984D02*
X8620182Y-9204460D01*
X8620182Y-9204460D02*
X8629705Y-9194936D01*
X8629705Y-9194936D02*
X8629705Y-9213984D01*
X8629705Y-9090174D02*
X8639229Y-9099698D01*
X8639229Y-9099698D02*
X8629705Y-9109222D01*
X8629705Y-9109222D02*
X8620182Y-9099698D01*
X8620182Y-9099698D02*
X8629705Y-9090174D01*
X8629705Y-9090174D02*
X8629705Y-9109222D01*
M02*
