%TF.GenerationSoftware,KiCad,Pcbnew,8.0.4*%
%TF.CreationDate,2024-09-01T22:57:30-05:00*%
%TF.ProjectId,Haptics PWM module,48617074-6963-4732-9050-574d206d6f64,rev?*%
%TF.SameCoordinates,Original*%
%TF.FileFunction,Copper,L2,Bot*%
%TF.FilePolarity,Positive*%
%FSLAX46Y46*%
G04 Gerber Fmt 4.6, Leading zero omitted, Abs format (unit mm)*
G04 Created by KiCad (PCBNEW 8.0.4) date 2024-09-01 22:57:30*
%MOMM*%
%LPD*%
G01*
G04 APERTURE LIST*
%TA.AperFunction,ComponentPad*%
%ADD10O,1.700000X1.700000*%
%TD*%
%TA.AperFunction,ComponentPad*%
%ADD11R,1.700000X1.700000*%
%TD*%
%TA.AperFunction,ComponentPad*%
%ADD12R,1.350000X1.350000*%
%TD*%
%TA.AperFunction,ComponentPad*%
%ADD13O,1.350000X1.350000*%
%TD*%
%TA.AperFunction,ViaPad*%
%ADD14C,0.300000*%
%TD*%
%TA.AperFunction,ViaPad*%
%ADD15C,0.600000*%
%TD*%
%TA.AperFunction,Conductor*%
%ADD16C,0.200000*%
%TD*%
G04 APERTURE END LIST*
D10*
%TO.P,J1,5,Pin_5*%
%TO.N,MCU_5V+*%
X124000000Y-138000000D03*
%TO.P,J1,4,Pin_4*%
%TO.N,MCU_3V3+*%
X124000000Y-135460000D03*
%TO.P,J1,3,Pin_3*%
%TO.N,MCU_SCL*%
X124000000Y-132920000D03*
%TO.P,J1,2,Pin_2*%
%TO.N,MCU_SDA*%
X124000000Y-130380000D03*
D11*
%TO.P,J1,1,Pin_1*%
%TO.N,MCU_GND*%
X124000000Y-127840000D03*
%TD*%
D12*
%TO.P,J3,1,Pin_1*%
%TO.N,MCU_5V+*%
X123500000Y-145000000D03*
D13*
%TO.P,J3,2,Pin_2*%
%TO.N,/M15*%
X121500000Y-145000000D03*
%TO.P,J3,3,Pin_3*%
%TO.N,/M14*%
X119500000Y-145000000D03*
%TO.P,J3,4,Pin_4*%
%TO.N,/M13*%
X117500000Y-145000000D03*
%TO.P,J3,5,Pin_5*%
%TO.N,/M12*%
X115500000Y-145000000D03*
%TO.P,J3,6,Pin_6*%
%TO.N,/M11*%
X113500000Y-145000000D03*
%TO.P,J3,7,Pin_7*%
%TO.N,/M10*%
X111500000Y-145000000D03*
%TO.P,J3,8,Pin_8*%
%TO.N,/M9*%
X109500000Y-145000000D03*
%TO.P,J3,9,Pin_9*%
%TO.N,/M8*%
X107500000Y-145000000D03*
%TO.P,J3,10,Pin_10*%
%TO.N,MCU_5V+*%
X105500000Y-145000000D03*
%TD*%
D12*
%TO.P,J2,1,Pin_1*%
%TO.N,MCU_5V+*%
X100500000Y-145000000D03*
D13*
%TO.P,J2,2,Pin_2*%
%TO.N,/M7*%
X98500000Y-145000000D03*
%TO.P,J2,3,Pin_3*%
%TO.N,/M6*%
X96500000Y-145000000D03*
%TO.P,J2,4,Pin_4*%
%TO.N,/M5*%
X94500000Y-145000000D03*
%TO.P,J2,5,Pin_5*%
%TO.N,/M4*%
X92500000Y-145000000D03*
%TO.P,J2,6,Pin_6*%
%TO.N,/M3*%
X90500000Y-145000000D03*
%TO.P,J2,7,Pin_7*%
%TO.N,/M2*%
X88500000Y-145000000D03*
%TO.P,J2,8,Pin_8*%
%TO.N,/M1*%
X86500000Y-145000000D03*
%TO.P,J2,9,Pin_9*%
%TO.N,/M0*%
X84500000Y-145000000D03*
%TO.P,J2,10,Pin_10*%
%TO.N,MCU_5V+*%
X82500000Y-145000000D03*
%TD*%
D14*
%TO.N,Net-(A5-A)*%
X106500000Y-124150000D03*
X94500000Y-124000000D03*
%TO.N,MCU_SDA*%
X120500000Y-126000000D03*
%TO.N,MCU_SCL*%
X118000000Y-125500000D03*
D15*
%TO.N,MCU_3V3+*%
X120500000Y-135500000D03*
D14*
X105500000Y-119187500D03*
X101500000Y-119187500D03*
X97500000Y-119187500D03*
X89500000Y-119187500D03*
X93500000Y-119187500D03*
X85500000Y-119187500D03*
%TD*%
D16*
%TO.N,MCU_SDA*%
X120500000Y-127000000D02*
X120500000Y-126000000D01*
%TO.N,Net-(A5-A)*%
X106350000Y-124000000D02*
X106500000Y-124150000D01*
X94500000Y-124000000D02*
X106350000Y-124000000D01*
%TO.N,MCU_SCL*%
X118500000Y-126000000D02*
X118500000Y-127420000D01*
%TO.N,MCU_3V3+*%
X106500000Y-120000000D02*
X120500000Y-134000000D01*
X106312500Y-120000000D02*
X106500000Y-120000000D01*
X105500000Y-119187500D02*
X106312500Y-120000000D01*
X120500000Y-135500000D02*
X120500000Y-134000000D01*
%TO.N,MCU_SDA*%
X123880000Y-130380000D02*
X124000000Y-130380000D01*
X120500000Y-127000000D02*
X123880000Y-130380000D01*
%TO.N,MCU_SCL*%
X118000000Y-125500000D02*
X118500000Y-126000000D01*
X118500000Y-127420000D02*
X124000000Y-132920000D01*
%TO.N,MCU_3V3+*%
X101500000Y-119187500D02*
X105500000Y-119187500D01*
X97500000Y-119187500D02*
X101500000Y-119187500D01*
X93500000Y-119187500D02*
X97500000Y-119187500D01*
X89500000Y-119187500D02*
X93500000Y-119187500D01*
X85500000Y-119187500D02*
X89500000Y-119187500D01*
%TD*%
M02*
