%TF.GenerationSoftware,KiCad,Pcbnew,8.0.4*%
%TF.CreationDate,2024-09-01T22:57:30-05:00*%
%TF.ProjectId,Haptics PWM module,48617074-6963-4732-9050-574d206d6f64,rev?*%
%TF.SameCoordinates,Original*%
%TF.FileFunction,Soldermask,Top*%
%TF.FilePolarity,Negative*%
%FSLAX46Y46*%
G04 Gerber Fmt 4.6, Leading zero omitted, Abs format (unit mm)*
G04 Created by KiCad (PCBNEW 8.0.4) date 2024-09-01 22:57:30*
%MOMM*%
%LPD*%
G01*
G04 APERTURE LIST*
G04 Aperture macros list*
%AMRoundRect*
0 Rectangle with rounded corners*
0 $1 Rounding radius*
0 $2 $3 $4 $5 $6 $7 $8 $9 X,Y pos of 4 corners*
0 Add a 4 corners polygon primitive as box body*
4,1,4,$2,$3,$4,$5,$6,$7,$8,$9,$2,$3,0*
0 Add four circle primitives for the rounded corners*
1,1,$1+$1,$2,$3*
1,1,$1+$1,$4,$5*
1,1,$1+$1,$6,$7*
1,1,$1+$1,$8,$9*
0 Add four rect primitives between the rounded corners*
20,1,$1+$1,$2,$3,$4,$5,0*
20,1,$1+$1,$4,$5,$6,$7,0*
20,1,$1+$1,$6,$7,$8,$9,0*
20,1,$1+$1,$8,$9,$2,$3,0*%
%AMFreePoly0*
4,1,6,0.500000,-0.750000,-0.650000,-0.750000,-0.150000,0.000000,-0.650000,0.750000,0.500000,0.750000,0.500000,-0.750000,0.500000,-0.750000,$1*%
%AMFreePoly1*
4,1,6,1.000000,0.000000,0.500000,-0.750000,-0.500000,-0.750000,-0.500000,0.750000,0.500000,0.750000,1.000000,0.000000,1.000000,0.000000,$1*%
G04 Aperture macros list end*
%ADD10O,1.700000X1.700000*%
%ADD11R,1.700000X1.700000*%
%ADD12R,1.350000X1.350000*%
%ADD13O,1.350000X1.350000*%
%ADD14RoundRect,0.100000X-0.637500X-0.100000X0.637500X-0.100000X0.637500X0.100000X-0.637500X0.100000X0*%
%ADD15RoundRect,0.150000X-0.150000X0.875000X-0.150000X-0.875000X0.150000X-0.875000X0.150000X0.875000X0*%
%ADD16RoundRect,0.250000X-0.450000X0.262500X-0.450000X-0.262500X0.450000X-0.262500X0.450000X0.262500X0*%
%ADD17RoundRect,0.250000X-0.262500X-0.450000X0.262500X-0.450000X0.262500X0.450000X-0.262500X0.450000X0*%
%ADD18FreePoly0,270.000000*%
%ADD19FreePoly1,270.000000*%
%ADD20RoundRect,0.250000X-0.475000X0.250000X-0.475000X-0.250000X0.475000X-0.250000X0.475000X0.250000X0*%
G04 APERTURE END LIST*
D10*
%TO.C,J1*%
X124000000Y-138000000D03*
X124000000Y-135460000D03*
X124000000Y-132920000D03*
X124000000Y-130380000D03*
D11*
X124000000Y-127840000D03*
%TD*%
D12*
%TO.C,J3*%
X123500000Y-145000000D03*
D13*
X121500000Y-145000000D03*
X119500000Y-145000000D03*
X117500000Y-145000000D03*
X115500000Y-145000000D03*
X113500000Y-145000000D03*
X111500000Y-145000000D03*
X109500000Y-145000000D03*
X107500000Y-145000000D03*
X105500000Y-145000000D03*
%TD*%
D12*
%TO.C,J2*%
X100500000Y-145000000D03*
D13*
X98500000Y-145000000D03*
X96500000Y-145000000D03*
X94500000Y-145000000D03*
X92500000Y-145000000D03*
X90500000Y-145000000D03*
X88500000Y-145000000D03*
X86500000Y-145000000D03*
X84500000Y-145000000D03*
X82500000Y-145000000D03*
%TD*%
D14*
%TO.C,U3*%
X98775000Y-121550000D03*
X98775000Y-122200000D03*
X98775000Y-122850000D03*
X98775000Y-123500000D03*
X98775000Y-124150000D03*
X98775000Y-124800000D03*
X98775000Y-125450000D03*
X98775000Y-126100000D03*
X98775000Y-126750000D03*
X98775000Y-127400000D03*
X98775000Y-128050000D03*
X98775000Y-128700000D03*
X98775000Y-129350000D03*
X98775000Y-130000000D03*
X104500000Y-130000000D03*
X104500000Y-129350000D03*
X104500000Y-128700000D03*
X104500000Y-128050000D03*
X104500000Y-127400000D03*
X104500000Y-126750000D03*
X104500000Y-126100000D03*
X104500000Y-125450000D03*
X104500000Y-124800000D03*
X104500000Y-124150000D03*
X104500000Y-123500000D03*
X104500000Y-122850000D03*
X104500000Y-122200000D03*
X104500000Y-121550000D03*
%TD*%
D15*
%TO.C,U1*%
X95500000Y-132000000D03*
X94230000Y-132000000D03*
X92960000Y-132000000D03*
X91690000Y-132000000D03*
X90420000Y-132000000D03*
X89150000Y-132000000D03*
X87880000Y-132000000D03*
X86610000Y-132000000D03*
X85340000Y-132000000D03*
X85340000Y-141300000D03*
X86610000Y-141300000D03*
X87880000Y-141300000D03*
X89150000Y-141300000D03*
X90420000Y-141300000D03*
X91690000Y-141300000D03*
X92960000Y-141300000D03*
X94230000Y-141300000D03*
X95500000Y-141300000D03*
%TD*%
D16*
%TO.C,R9*%
X111500000Y-121912500D03*
X111500000Y-120087500D03*
%TD*%
%TO.C,R8*%
X114500000Y-120087500D03*
X114500000Y-121912500D03*
%TD*%
D17*
%TO.C,R7*%
X115410815Y-124830109D03*
X113585815Y-124830109D03*
%TD*%
D16*
%TO.C,R6*%
X124500000Y-116087500D03*
X124500000Y-117912500D03*
%TD*%
%TO.C,R5*%
X121500000Y-116087500D03*
X121500000Y-117912500D03*
%TD*%
%TO.C,R4*%
X109500000Y-117912500D03*
X109500000Y-116087500D03*
%TD*%
%TO.C,R3*%
X112500000Y-116087500D03*
X112500000Y-117912500D03*
%TD*%
%TO.C,R2*%
X115500000Y-116087500D03*
X115500000Y-117912500D03*
%TD*%
D18*
%TO.C,A5*%
X85500000Y-117912500D03*
D19*
X85500000Y-116462500D03*
%TD*%
D18*
%TO.C,A4*%
X89500000Y-117862500D03*
D19*
X89500000Y-116412500D03*
%TD*%
D18*
%TO.C,A3*%
X93500000Y-117862500D03*
D19*
X93500000Y-116412500D03*
%TD*%
D18*
%TO.C,A2*%
X97500000Y-117862500D03*
D19*
X97500000Y-116412500D03*
%TD*%
D18*
%TO.C,A1*%
X101500000Y-117862500D03*
D19*
X101500000Y-116412500D03*
%TD*%
%TO.C,A0*%
X105500000Y-116412500D03*
D18*
X105500000Y-117862500D03*
%TD*%
D20*
%TO.C,C2*%
X104500000Y-137900000D03*
X104500000Y-136000000D03*
%TD*%
%TO.C,C1*%
X82960000Y-132000000D03*
X82960000Y-133900000D03*
%TD*%
D15*
%TO.C,U2*%
X117000000Y-132000000D03*
X115730000Y-132000000D03*
X114460000Y-132000000D03*
X113190000Y-132000000D03*
X111920000Y-132000000D03*
X110650000Y-132000000D03*
X109380000Y-132000000D03*
X108110000Y-132000000D03*
X106840000Y-132000000D03*
X106840000Y-141300000D03*
X108110000Y-141300000D03*
X109380000Y-141300000D03*
X110650000Y-141300000D03*
X111920000Y-141300000D03*
X113190000Y-141300000D03*
X114460000Y-141300000D03*
X115730000Y-141300000D03*
X117000000Y-141300000D03*
%TD*%
D16*
%TO.C,R1*%
X118500000Y-117912500D03*
X118500000Y-116087500D03*
%TD*%
M02*
