%TF.GenerationSoftware,KiCad,Pcbnew,8.0.4*%
%TF.CreationDate,2024-09-01T22:57:30-05:00*%
%TF.ProjectId,Haptics PWM module,48617074-6963-4732-9050-574d206d6f64,rev?*%
%TF.SameCoordinates,Original*%
%TF.FileFunction,Copper,L1,Top*%
%TF.FilePolarity,Positive*%
%FSLAX46Y46*%
G04 Gerber Fmt 4.6, Leading zero omitted, Abs format (unit mm)*
G04 Created by KiCad (PCBNEW 8.0.4) date 2024-09-01 22:57:30*
%MOMM*%
%LPD*%
G01*
G04 APERTURE LIST*
G04 Aperture macros list*
%AMRoundRect*
0 Rectangle with rounded corners*
0 $1 Rounding radius*
0 $2 $3 $4 $5 $6 $7 $8 $9 X,Y pos of 4 corners*
0 Add a 4 corners polygon primitive as box body*
4,1,4,$2,$3,$4,$5,$6,$7,$8,$9,$2,$3,0*
0 Add four circle primitives for the rounded corners*
1,1,$1+$1,$2,$3*
1,1,$1+$1,$4,$5*
1,1,$1+$1,$6,$7*
1,1,$1+$1,$8,$9*
0 Add four rect primitives between the rounded corners*
20,1,$1+$1,$2,$3,$4,$5,0*
20,1,$1+$1,$4,$5,$6,$7,0*
20,1,$1+$1,$6,$7,$8,$9,0*
20,1,$1+$1,$8,$9,$2,$3,0*%
%AMFreePoly0*
4,1,6,0.500000,-0.750000,-0.650000,-0.750000,-0.150000,0.000000,-0.650000,0.750000,0.500000,0.750000,0.500000,-0.750000,0.500000,-0.750000,$1*%
%AMFreePoly1*
4,1,6,1.000000,0.000000,0.500000,-0.750000,-0.500000,-0.750000,-0.500000,0.750000,0.500000,0.750000,1.000000,0.000000,1.000000,0.000000,$1*%
G04 Aperture macros list end*
%ADD10C,0.300000*%
%TA.AperFunction,NonConductor*%
%ADD11C,0.300000*%
%TD*%
%TA.AperFunction,NonConductor*%
%ADD12C,0.200000*%
%TD*%
%TA.AperFunction,ComponentPad*%
%ADD13O,1.700000X1.700000*%
%TD*%
%TA.AperFunction,ComponentPad*%
%ADD14R,1.700000X1.700000*%
%TD*%
%TA.AperFunction,ComponentPad*%
%ADD15R,1.350000X1.350000*%
%TD*%
%TA.AperFunction,ComponentPad*%
%ADD16O,1.350000X1.350000*%
%TD*%
%TA.AperFunction,SMDPad,CuDef*%
%ADD17RoundRect,0.100000X-0.637500X-0.100000X0.637500X-0.100000X0.637500X0.100000X-0.637500X0.100000X0*%
%TD*%
%TA.AperFunction,SMDPad,CuDef*%
%ADD18RoundRect,0.150000X-0.150000X0.875000X-0.150000X-0.875000X0.150000X-0.875000X0.150000X0.875000X0*%
%TD*%
%TA.AperFunction,SMDPad,CuDef*%
%ADD19RoundRect,0.250000X-0.450000X0.262500X-0.450000X-0.262500X0.450000X-0.262500X0.450000X0.262500X0*%
%TD*%
%TA.AperFunction,SMDPad,CuDef*%
%ADD20RoundRect,0.250000X-0.262500X-0.450000X0.262500X-0.450000X0.262500X0.450000X-0.262500X0.450000X0*%
%TD*%
%TA.AperFunction,SMDPad,CuDef*%
%ADD21FreePoly0,270.000000*%
%TD*%
%TA.AperFunction,SMDPad,CuDef*%
%ADD22FreePoly1,270.000000*%
%TD*%
%TA.AperFunction,SMDPad,CuDef*%
%ADD23RoundRect,0.250000X-0.475000X0.250000X-0.475000X-0.250000X0.475000X-0.250000X0.475000X0.250000X0*%
%TD*%
%TA.AperFunction,ViaPad*%
%ADD24C,0.300000*%
%TD*%
%TA.AperFunction,ViaPad*%
%ADD25C,0.600000*%
%TD*%
%TA.AperFunction,Conductor*%
%ADD26C,0.200000*%
%TD*%
%TA.AperFunction,Conductor*%
%ADD27C,1.500000*%
%TD*%
%TA.AperFunction,Conductor*%
%ADD28C,1.490000*%
%TD*%
G04 APERTURE END LIST*
D10*
D11*
X97285716Y-152878328D02*
X97285716Y-153878328D01*
X96928573Y-152306900D02*
X96571430Y-153378328D01*
X96571430Y-153378328D02*
X97500001Y-153378328D01*
X97928572Y-152378328D02*
X98928572Y-152378328D01*
X98928572Y-152378328D02*
X98285715Y-153878328D01*
X99500000Y-153735471D02*
X99571429Y-153806900D01*
X99571429Y-153806900D02*
X99500000Y-153878328D01*
X99500000Y-153878328D02*
X99428572Y-153806900D01*
X99428572Y-153806900D02*
X99500000Y-153735471D01*
X99500000Y-153735471D02*
X99500000Y-153878328D01*
X100500001Y-152378328D02*
X100642858Y-152378328D01*
X100642858Y-152378328D02*
X100785715Y-152449757D01*
X100785715Y-152449757D02*
X100857144Y-152521185D01*
X100857144Y-152521185D02*
X100928572Y-152664042D01*
X100928572Y-152664042D02*
X101000001Y-152949757D01*
X101000001Y-152949757D02*
X101000001Y-153306900D01*
X101000001Y-153306900D02*
X100928572Y-153592614D01*
X100928572Y-153592614D02*
X100857144Y-153735471D01*
X100857144Y-153735471D02*
X100785715Y-153806900D01*
X100785715Y-153806900D02*
X100642858Y-153878328D01*
X100642858Y-153878328D02*
X100500001Y-153878328D01*
X100500001Y-153878328D02*
X100357144Y-153806900D01*
X100357144Y-153806900D02*
X100285715Y-153735471D01*
X100285715Y-153735471D02*
X100214286Y-153592614D01*
X100214286Y-153592614D02*
X100142858Y-153306900D01*
X100142858Y-153306900D02*
X100142858Y-152949757D01*
X100142858Y-152949757D02*
X100214286Y-152664042D01*
X100214286Y-152664042D02*
X100285715Y-152521185D01*
X100285715Y-152521185D02*
X100357144Y-152449757D01*
X100357144Y-152449757D02*
X100500001Y-152378328D01*
X101928572Y-152378328D02*
X102071429Y-152378328D01*
X102071429Y-152378328D02*
X102214286Y-152449757D01*
X102214286Y-152449757D02*
X102285715Y-152521185D01*
X102285715Y-152521185D02*
X102357143Y-152664042D01*
X102357143Y-152664042D02*
X102428572Y-152949757D01*
X102428572Y-152949757D02*
X102428572Y-153306900D01*
X102428572Y-153306900D02*
X102357143Y-153592614D01*
X102357143Y-153592614D02*
X102285715Y-153735471D01*
X102285715Y-153735471D02*
X102214286Y-153806900D01*
X102214286Y-153806900D02*
X102071429Y-153878328D01*
X102071429Y-153878328D02*
X101928572Y-153878328D01*
X101928572Y-153878328D02*
X101785715Y-153806900D01*
X101785715Y-153806900D02*
X101714286Y-153735471D01*
X101714286Y-153735471D02*
X101642857Y-153592614D01*
X101642857Y-153592614D02*
X101571429Y-153306900D01*
X101571429Y-153306900D02*
X101571429Y-152949757D01*
X101571429Y-152949757D02*
X101642857Y-152664042D01*
X101642857Y-152664042D02*
X101714286Y-152521185D01*
X101714286Y-152521185D02*
X101785715Y-152449757D01*
X101785715Y-152449757D02*
X101928572Y-152378328D01*
X103357143Y-152378328D02*
X103500000Y-152378328D01*
X103500000Y-152378328D02*
X103642857Y-152449757D01*
X103642857Y-152449757D02*
X103714286Y-152521185D01*
X103714286Y-152521185D02*
X103785714Y-152664042D01*
X103785714Y-152664042D02*
X103857143Y-152949757D01*
X103857143Y-152949757D02*
X103857143Y-153306900D01*
X103857143Y-153306900D02*
X103785714Y-153592614D01*
X103785714Y-153592614D02*
X103714286Y-153735471D01*
X103714286Y-153735471D02*
X103642857Y-153806900D01*
X103642857Y-153806900D02*
X103500000Y-153878328D01*
X103500000Y-153878328D02*
X103357143Y-153878328D01*
X103357143Y-153878328D02*
X103214286Y-153806900D01*
X103214286Y-153806900D02*
X103142857Y-153735471D01*
X103142857Y-153735471D02*
X103071428Y-153592614D01*
X103071428Y-153592614D02*
X103000000Y-153306900D01*
X103000000Y-153306900D02*
X103000000Y-152949757D01*
X103000000Y-152949757D02*
X103071428Y-152664042D01*
X103071428Y-152664042D02*
X103142857Y-152521185D01*
X103142857Y-152521185D02*
X103214286Y-152449757D01*
X103214286Y-152449757D02*
X103357143Y-152378328D01*
X104785714Y-152378328D02*
X104928571Y-152378328D01*
X104928571Y-152378328D02*
X105071428Y-152449757D01*
X105071428Y-152449757D02*
X105142857Y-152521185D01*
X105142857Y-152521185D02*
X105214285Y-152664042D01*
X105214285Y-152664042D02*
X105285714Y-152949757D01*
X105285714Y-152949757D02*
X105285714Y-153306900D01*
X105285714Y-153306900D02*
X105214285Y-153592614D01*
X105214285Y-153592614D02*
X105142857Y-153735471D01*
X105142857Y-153735471D02*
X105071428Y-153806900D01*
X105071428Y-153806900D02*
X104928571Y-153878328D01*
X104928571Y-153878328D02*
X104785714Y-153878328D01*
X104785714Y-153878328D02*
X104642857Y-153806900D01*
X104642857Y-153806900D02*
X104571428Y-153735471D01*
X104571428Y-153735471D02*
X104499999Y-153592614D01*
X104499999Y-153592614D02*
X104428571Y-153306900D01*
X104428571Y-153306900D02*
X104428571Y-152949757D01*
X104428571Y-152949757D02*
X104499999Y-152664042D01*
X104499999Y-152664042D02*
X104571428Y-152521185D01*
X104571428Y-152521185D02*
X104642857Y-152449757D01*
X104642857Y-152449757D02*
X104785714Y-152378328D01*
X107071427Y-153878328D02*
X107071427Y-152878328D01*
X107071427Y-153021185D02*
X107142856Y-152949757D01*
X107142856Y-152949757D02*
X107285713Y-152878328D01*
X107285713Y-152878328D02*
X107499999Y-152878328D01*
X107499999Y-152878328D02*
X107642856Y-152949757D01*
X107642856Y-152949757D02*
X107714285Y-153092614D01*
X107714285Y-153092614D02*
X107714285Y-153878328D01*
X107714285Y-153092614D02*
X107785713Y-152949757D01*
X107785713Y-152949757D02*
X107928570Y-152878328D01*
X107928570Y-152878328D02*
X108142856Y-152878328D01*
X108142856Y-152878328D02*
X108285713Y-152949757D01*
X108285713Y-152949757D02*
X108357142Y-153092614D01*
X108357142Y-153092614D02*
X108357142Y-153878328D01*
X109071427Y-153878328D02*
X109071427Y-152878328D01*
X109071427Y-153021185D02*
X109142856Y-152949757D01*
X109142856Y-152949757D02*
X109285713Y-152878328D01*
X109285713Y-152878328D02*
X109499999Y-152878328D01*
X109499999Y-152878328D02*
X109642856Y-152949757D01*
X109642856Y-152949757D02*
X109714285Y-153092614D01*
X109714285Y-153092614D02*
X109714285Y-153878328D01*
X109714285Y-153092614D02*
X109785713Y-152949757D01*
X109785713Y-152949757D02*
X109928570Y-152878328D01*
X109928570Y-152878328D02*
X110142856Y-152878328D01*
X110142856Y-152878328D02*
X110285713Y-152949757D01*
X110285713Y-152949757D02*
X110357142Y-153092614D01*
X110357142Y-153092614D02*
X110357142Y-153878328D01*
D12*
X127000000Y-147500000D02*
X127000000Y-155586420D01*
X80000000Y-147500000D02*
X80000000Y-155586420D01*
X127000000Y-155000000D02*
X80000000Y-155000000D01*
X127000000Y-155000000D02*
X80000000Y-155000000D01*
X127000000Y-155000000D02*
X125873496Y-155586421D01*
X127000000Y-155000000D02*
X125873496Y-154413579D01*
X80000000Y-155000000D02*
X81126504Y-154413579D01*
X80000000Y-155000000D02*
X81126504Y-155586421D01*
D10*
D11*
X134878328Y-136749998D02*
X134878328Y-135821426D01*
X134878328Y-135821426D02*
X135449757Y-136321426D01*
X135449757Y-136321426D02*
X135449757Y-136107141D01*
X135449757Y-136107141D02*
X135521185Y-135964284D01*
X135521185Y-135964284D02*
X135592614Y-135892855D01*
X135592614Y-135892855D02*
X135735471Y-135821426D01*
X135735471Y-135821426D02*
X136092614Y-135821426D01*
X136092614Y-135821426D02*
X136235471Y-135892855D01*
X136235471Y-135892855D02*
X136306900Y-135964284D01*
X136306900Y-135964284D02*
X136378328Y-136107141D01*
X136378328Y-136107141D02*
X136378328Y-136535712D01*
X136378328Y-136535712D02*
X136306900Y-136678569D01*
X136306900Y-136678569D02*
X136235471Y-136749998D01*
X135378328Y-134535713D02*
X136378328Y-134535713D01*
X134806900Y-134892855D02*
X135878328Y-135249998D01*
X135878328Y-135249998D02*
X135878328Y-134321427D01*
X136235471Y-133749999D02*
X136306900Y-133678570D01*
X136306900Y-133678570D02*
X136378328Y-133749999D01*
X136378328Y-133749999D02*
X136306900Y-133821427D01*
X136306900Y-133821427D02*
X136235471Y-133749999D01*
X136235471Y-133749999D02*
X136378328Y-133749999D01*
X134878328Y-132321427D02*
X134878328Y-133035713D01*
X134878328Y-133035713D02*
X135592614Y-133107141D01*
X135592614Y-133107141D02*
X135521185Y-133035713D01*
X135521185Y-133035713D02*
X135449757Y-132892856D01*
X135449757Y-132892856D02*
X135449757Y-132535713D01*
X135449757Y-132535713D02*
X135521185Y-132392856D01*
X135521185Y-132392856D02*
X135592614Y-132321427D01*
X135592614Y-132321427D02*
X135735471Y-132249998D01*
X135735471Y-132249998D02*
X136092614Y-132249998D01*
X136092614Y-132249998D02*
X136235471Y-132321427D01*
X136235471Y-132321427D02*
X136306900Y-132392856D01*
X136306900Y-132392856D02*
X136378328Y-132535713D01*
X136378328Y-132535713D02*
X136378328Y-132892856D01*
X136378328Y-132892856D02*
X136306900Y-133035713D01*
X136306900Y-133035713D02*
X136235471Y-133107141D01*
X134878328Y-131321427D02*
X134878328Y-131178570D01*
X134878328Y-131178570D02*
X134949757Y-131035713D01*
X134949757Y-131035713D02*
X135021185Y-130964285D01*
X135021185Y-130964285D02*
X135164042Y-130892856D01*
X135164042Y-130892856D02*
X135449757Y-130821427D01*
X135449757Y-130821427D02*
X135806900Y-130821427D01*
X135806900Y-130821427D02*
X136092614Y-130892856D01*
X136092614Y-130892856D02*
X136235471Y-130964285D01*
X136235471Y-130964285D02*
X136306900Y-131035713D01*
X136306900Y-131035713D02*
X136378328Y-131178570D01*
X136378328Y-131178570D02*
X136378328Y-131321427D01*
X136378328Y-131321427D02*
X136306900Y-131464285D01*
X136306900Y-131464285D02*
X136235471Y-131535713D01*
X136235471Y-131535713D02*
X136092614Y-131607142D01*
X136092614Y-131607142D02*
X135806900Y-131678570D01*
X135806900Y-131678570D02*
X135449757Y-131678570D01*
X135449757Y-131678570D02*
X135164042Y-131607142D01*
X135164042Y-131607142D02*
X135021185Y-131535713D01*
X135021185Y-131535713D02*
X134949757Y-131464285D01*
X134949757Y-131464285D02*
X134878328Y-131321427D01*
X134878328Y-129892856D02*
X134878328Y-129749999D01*
X134878328Y-129749999D02*
X134949757Y-129607142D01*
X134949757Y-129607142D02*
X135021185Y-129535714D01*
X135021185Y-129535714D02*
X135164042Y-129464285D01*
X135164042Y-129464285D02*
X135449757Y-129392856D01*
X135449757Y-129392856D02*
X135806900Y-129392856D01*
X135806900Y-129392856D02*
X136092614Y-129464285D01*
X136092614Y-129464285D02*
X136235471Y-129535714D01*
X136235471Y-129535714D02*
X136306900Y-129607142D01*
X136306900Y-129607142D02*
X136378328Y-129749999D01*
X136378328Y-129749999D02*
X136378328Y-129892856D01*
X136378328Y-129892856D02*
X136306900Y-130035714D01*
X136306900Y-130035714D02*
X136235471Y-130107142D01*
X136235471Y-130107142D02*
X136092614Y-130178571D01*
X136092614Y-130178571D02*
X135806900Y-130249999D01*
X135806900Y-130249999D02*
X135449757Y-130249999D01*
X135449757Y-130249999D02*
X135164042Y-130178571D01*
X135164042Y-130178571D02*
X135021185Y-130107142D01*
X135021185Y-130107142D02*
X134949757Y-130035714D01*
X134949757Y-130035714D02*
X134878328Y-129892856D01*
X134878328Y-128464285D02*
X134878328Y-128321428D01*
X134878328Y-128321428D02*
X134949757Y-128178571D01*
X134949757Y-128178571D02*
X135021185Y-128107143D01*
X135021185Y-128107143D02*
X135164042Y-128035714D01*
X135164042Y-128035714D02*
X135449757Y-127964285D01*
X135449757Y-127964285D02*
X135806900Y-127964285D01*
X135806900Y-127964285D02*
X136092614Y-128035714D01*
X136092614Y-128035714D02*
X136235471Y-128107143D01*
X136235471Y-128107143D02*
X136306900Y-128178571D01*
X136306900Y-128178571D02*
X136378328Y-128321428D01*
X136378328Y-128321428D02*
X136378328Y-128464285D01*
X136378328Y-128464285D02*
X136306900Y-128607143D01*
X136306900Y-128607143D02*
X136235471Y-128678571D01*
X136235471Y-128678571D02*
X136092614Y-128750000D01*
X136092614Y-128750000D02*
X135806900Y-128821428D01*
X135806900Y-128821428D02*
X135449757Y-128821428D01*
X135449757Y-128821428D02*
X135164042Y-128750000D01*
X135164042Y-128750000D02*
X135021185Y-128678571D01*
X135021185Y-128678571D02*
X134949757Y-128607143D01*
X134949757Y-128607143D02*
X134878328Y-128464285D01*
X136378328Y-126178572D02*
X135378328Y-126178572D01*
X135521185Y-126178572D02*
X135449757Y-126107143D01*
X135449757Y-126107143D02*
X135378328Y-125964286D01*
X135378328Y-125964286D02*
X135378328Y-125750000D01*
X135378328Y-125750000D02*
X135449757Y-125607143D01*
X135449757Y-125607143D02*
X135592614Y-125535715D01*
X135592614Y-125535715D02*
X136378328Y-125535715D01*
X135592614Y-125535715D02*
X135449757Y-125464286D01*
X135449757Y-125464286D02*
X135378328Y-125321429D01*
X135378328Y-125321429D02*
X135378328Y-125107143D01*
X135378328Y-125107143D02*
X135449757Y-124964286D01*
X135449757Y-124964286D02*
X135592614Y-124892857D01*
X135592614Y-124892857D02*
X136378328Y-124892857D01*
X136378328Y-124178572D02*
X135378328Y-124178572D01*
X135521185Y-124178572D02*
X135449757Y-124107143D01*
X135449757Y-124107143D02*
X135378328Y-123964286D01*
X135378328Y-123964286D02*
X135378328Y-123750000D01*
X135378328Y-123750000D02*
X135449757Y-123607143D01*
X135449757Y-123607143D02*
X135592614Y-123535715D01*
X135592614Y-123535715D02*
X136378328Y-123535715D01*
X135592614Y-123535715D02*
X135449757Y-123464286D01*
X135449757Y-123464286D02*
X135378328Y-123321429D01*
X135378328Y-123321429D02*
X135378328Y-123107143D01*
X135378328Y-123107143D02*
X135449757Y-122964286D01*
X135449757Y-122964286D02*
X135592614Y-122892857D01*
X135592614Y-122892857D02*
X136378328Y-122892857D01*
D12*
X127500000Y-147000000D02*
X138086420Y-147000000D01*
X127500000Y-112500000D02*
X138086420Y-112500000D01*
X137500000Y-147000000D02*
X137500000Y-112500000D01*
X137500000Y-147000000D02*
X137500000Y-112500000D01*
X137500000Y-147000000D02*
X136913579Y-145873496D01*
X137500000Y-147000000D02*
X138086421Y-145873496D01*
X137500000Y-112500000D02*
X138086421Y-113626504D01*
X137500000Y-112500000D02*
X136913579Y-113626504D01*
D13*
%TO.P,J1,5,Pin_5*%
%TO.N,MCU_5V+*%
X124000000Y-138000000D03*
%TO.P,J1,4,Pin_4*%
%TO.N,MCU_3V3+*%
X124000000Y-135460000D03*
%TO.P,J1,3,Pin_3*%
%TO.N,MCU_SCL*%
X124000000Y-132920000D03*
%TO.P,J1,2,Pin_2*%
%TO.N,MCU_SDA*%
X124000000Y-130380000D03*
D14*
%TO.P,J1,1,Pin_1*%
%TO.N,MCU_GND*%
X124000000Y-127840000D03*
%TD*%
D15*
%TO.P,J3,1,Pin_1*%
%TO.N,MCU_5V+*%
X123500000Y-145000000D03*
D16*
%TO.P,J3,2,Pin_2*%
%TO.N,/M15*%
X121500000Y-145000000D03*
%TO.P,J3,3,Pin_3*%
%TO.N,/M14*%
X119500000Y-145000000D03*
%TO.P,J3,4,Pin_4*%
%TO.N,/M13*%
X117500000Y-145000000D03*
%TO.P,J3,5,Pin_5*%
%TO.N,/M12*%
X115500000Y-145000000D03*
%TO.P,J3,6,Pin_6*%
%TO.N,/M11*%
X113500000Y-145000000D03*
%TO.P,J3,7,Pin_7*%
%TO.N,/M10*%
X111500000Y-145000000D03*
%TO.P,J3,8,Pin_8*%
%TO.N,/M9*%
X109500000Y-145000000D03*
%TO.P,J3,9,Pin_9*%
%TO.N,/M8*%
X107500000Y-145000000D03*
%TO.P,J3,10,Pin_10*%
%TO.N,MCU_5V+*%
X105500000Y-145000000D03*
%TD*%
D15*
%TO.P,J2,1,Pin_1*%
%TO.N,MCU_5V+*%
X100500000Y-145000000D03*
D16*
%TO.P,J2,2,Pin_2*%
%TO.N,/M7*%
X98500000Y-145000000D03*
%TO.P,J2,3,Pin_3*%
%TO.N,/M6*%
X96500000Y-145000000D03*
%TO.P,J2,4,Pin_4*%
%TO.N,/M5*%
X94500000Y-145000000D03*
%TO.P,J2,5,Pin_5*%
%TO.N,/M4*%
X92500000Y-145000000D03*
%TO.P,J2,6,Pin_6*%
%TO.N,/M3*%
X90500000Y-145000000D03*
%TO.P,J2,7,Pin_7*%
%TO.N,/M2*%
X88500000Y-145000000D03*
%TO.P,J2,8,Pin_8*%
%TO.N,/M1*%
X86500000Y-145000000D03*
%TO.P,J2,9,Pin_9*%
%TO.N,/M0*%
X84500000Y-145000000D03*
%TO.P,J2,10,Pin_10*%
%TO.N,MCU_5V+*%
X82500000Y-145000000D03*
%TD*%
D17*
%TO.P,U3,1,A0*%
%TO.N,Net-(A3-A)*%
X98775000Y-121550000D03*
%TO.P,U3,2,A1*%
%TO.N,Net-(A2-A)*%
X98775000Y-122200000D03*
%TO.P,U3,3,A2*%
%TO.N,Net-(A1-A)*%
X98775000Y-122850000D03*
%TO.P,U3,4,A3*%
%TO.N,Net-(A0-A)*%
X98775000Y-123500000D03*
%TO.P,U3,5,A4*%
%TO.N,Net-(A4-A)*%
X98775000Y-124150000D03*
%TO.P,U3,6,LED0*%
%TO.N,/Signal0*%
X98775000Y-124800000D03*
%TO.P,U3,7,LED1*%
%TO.N,/Signal1*%
X98775000Y-125450000D03*
%TO.P,U3,8,LED2*%
%TO.N,/Signal2*%
X98775000Y-126100000D03*
%TO.P,U3,9,LED3*%
%TO.N,/Signal3*%
X98775000Y-126750000D03*
%TO.P,U3,10,LED4*%
%TO.N,/Signal4*%
X98775000Y-127400000D03*
%TO.P,U3,11,LED5*%
%TO.N,/Signal5*%
X98775000Y-128050000D03*
%TO.P,U3,12,LED6*%
%TO.N,/Signal6*%
X98775000Y-128700000D03*
%TO.P,U3,13,LED7*%
%TO.N,/Signal7*%
X98775000Y-129350000D03*
%TO.P,U3,14,VSS*%
%TO.N,MCU_GND*%
X98775000Y-130000000D03*
%TO.P,U3,15,LED8*%
%TO.N,/Signal8*%
X104500000Y-130000000D03*
%TO.P,U3,16,LED9*%
%TO.N,/Signal9*%
X104500000Y-129350000D03*
%TO.P,U3,17,LED10*%
%TO.N,/Signal10*%
X104500000Y-128700000D03*
%TO.P,U3,18,LED11*%
%TO.N,/Signal11*%
X104500000Y-128050000D03*
%TO.P,U3,19,LED12*%
%TO.N,/Signal12*%
X104500000Y-127400000D03*
%TO.P,U3,20,LED13*%
%TO.N,/Signal13*%
X104500000Y-126750000D03*
%TO.P,U3,21,LED14*%
%TO.N,/Signal14*%
X104500000Y-126100000D03*
%TO.P,U3,22,LED15*%
%TO.N,/Signal15*%
X104500000Y-125450000D03*
%TO.P,U3,23,~{OE}*%
%TO.N,Net-(U3-~{OE})*%
X104500000Y-124800000D03*
%TO.P,U3,24,A5*%
%TO.N,Net-(A5-A)*%
X104500000Y-124150000D03*
%TO.P,U3,25,EXTCLK*%
%TO.N,MCU_GND*%
X104500000Y-123500000D03*
%TO.P,U3,26,SCL*%
%TO.N,MCU_SCL*%
X104500000Y-122850000D03*
%TO.P,U3,27,SDA*%
%TO.N,MCU_SDA*%
X104500000Y-122200000D03*
%TO.P,U3,28,VDD*%
%TO.N,MCU_3V3+*%
X104500000Y-121550000D03*
%TD*%
D18*
%TO.P,U1,1,I1*%
%TO.N,/Signal7*%
X95500000Y-132000000D03*
%TO.P,U1,2,I2*%
%TO.N,/Signal6*%
X94230000Y-132000000D03*
%TO.P,U1,3,I3*%
%TO.N,/Signal5*%
X92960000Y-132000000D03*
%TO.P,U1,4,I4*%
%TO.N,/Signal4*%
X91690000Y-132000000D03*
%TO.P,U1,5,I5*%
%TO.N,/Signal3*%
X90420000Y-132000000D03*
%TO.P,U1,6,I6*%
%TO.N,/Signal2*%
X89150000Y-132000000D03*
%TO.P,U1,7,I7*%
%TO.N,/Signal1*%
X87880000Y-132000000D03*
%TO.P,U1,8,I8*%
%TO.N,/Signal0*%
X86610000Y-132000000D03*
%TO.P,U1,9,GND*%
%TO.N,MCU_GND*%
X85340000Y-132000000D03*
%TO.P,U1,10,COM*%
%TO.N,MCU_5V+*%
X85340000Y-141300000D03*
%TO.P,U1,11,O8*%
%TO.N,/M0*%
X86610000Y-141300000D03*
%TO.P,U1,12,O7*%
%TO.N,/M1*%
X87880000Y-141300000D03*
%TO.P,U1,13,O6*%
%TO.N,/M2*%
X89150000Y-141300000D03*
%TO.P,U1,14,O5*%
%TO.N,/M3*%
X90420000Y-141300000D03*
%TO.P,U1,15,O4*%
%TO.N,/M4*%
X91690000Y-141300000D03*
%TO.P,U1,16,O3*%
%TO.N,/M5*%
X92960000Y-141300000D03*
%TO.P,U1,17,O2*%
%TO.N,/M6*%
X94230000Y-141300000D03*
%TO.P,U1,18,O1*%
%TO.N,/M7*%
X95500000Y-141300000D03*
%TD*%
D19*
%TO.P,R9,2*%
%TO.N,MCU_SDA*%
X111500000Y-121912500D03*
%TO.P,R9,1*%
%TO.N,MCU_3V3+*%
X111500000Y-120087500D03*
%TD*%
%TO.P,R8,1*%
%TO.N,MCU_3V3+*%
X114500000Y-120087500D03*
%TO.P,R8,2*%
%TO.N,MCU_SCL*%
X114500000Y-121912500D03*
%TD*%
D20*
%TO.P,R7,2*%
%TO.N,MCU_GND*%
X115410815Y-124830109D03*
%TO.P,R7,1*%
%TO.N,Net-(U3-~{OE})*%
X113585815Y-124830109D03*
%TD*%
D19*
%TO.P,R6,1*%
%TO.N,Net-(A5-A)*%
X124500000Y-116087500D03*
%TO.P,R6,2*%
%TO.N,MCU_GND*%
X124500000Y-117912500D03*
%TD*%
%TO.P,R5,1*%
%TO.N,Net-(A4-A)*%
X121500000Y-116087500D03*
%TO.P,R5,2*%
%TO.N,MCU_GND*%
X121500000Y-117912500D03*
%TD*%
%TO.P,R4,2*%
%TO.N,MCU_GND*%
X109500000Y-117912500D03*
%TO.P,R4,1*%
%TO.N,Net-(A0-A)*%
X109500000Y-116087500D03*
%TD*%
%TO.P,R3,1*%
%TO.N,Net-(A1-A)*%
X112500000Y-116087500D03*
%TO.P,R3,2*%
%TO.N,MCU_GND*%
X112500000Y-117912500D03*
%TD*%
%TO.P,R2,1*%
%TO.N,Net-(A2-A)*%
X115500000Y-116087500D03*
%TO.P,R2,2*%
%TO.N,MCU_GND*%
X115500000Y-117912500D03*
%TD*%
D21*
%TO.P,A5,2,B*%
%TO.N,MCU_3V3+*%
X85500000Y-117912500D03*
D22*
%TO.P,A5,1,A*%
%TO.N,Net-(A5-A)*%
X85500000Y-116462500D03*
%TD*%
D21*
%TO.P,A4,2,B*%
%TO.N,MCU_3V3+*%
X89500000Y-117862500D03*
D22*
%TO.P,A4,1,A*%
%TO.N,Net-(A4-A)*%
X89500000Y-116412500D03*
%TD*%
D21*
%TO.P,A3,2,B*%
%TO.N,MCU_3V3+*%
X93500000Y-117862500D03*
D22*
%TO.P,A3,1,A*%
%TO.N,Net-(A3-A)*%
X93500000Y-116412500D03*
%TD*%
D21*
%TO.P,A2,2,B*%
%TO.N,MCU_3V3+*%
X97500000Y-117862500D03*
D22*
%TO.P,A2,1,A*%
%TO.N,Net-(A2-A)*%
X97500000Y-116412500D03*
%TD*%
D21*
%TO.P,A1,2,B*%
%TO.N,MCU_3V3+*%
X101500000Y-117862500D03*
D22*
%TO.P,A1,1,A*%
%TO.N,Net-(A1-A)*%
X101500000Y-116412500D03*
%TD*%
%TO.P,A0,1,A*%
%TO.N,Net-(A0-A)*%
X105500000Y-116412500D03*
D21*
%TO.P,A0,2,B*%
%TO.N,MCU_3V3+*%
X105500000Y-117862500D03*
%TD*%
D23*
%TO.P,C2,2*%
%TO.N,MCU_5V+*%
X104500000Y-137900000D03*
%TO.P,C2,1*%
%TO.N,MCU_GND*%
X104500000Y-136000000D03*
%TD*%
%TO.P,C1,1*%
%TO.N,MCU_GND*%
X82960000Y-132000000D03*
%TO.P,C1,2*%
%TO.N,MCU_5V+*%
X82960000Y-133900000D03*
%TD*%
D18*
%TO.P,U2,1,I1*%
%TO.N,/Signal15*%
X117000000Y-132000000D03*
%TO.P,U2,2,I2*%
%TO.N,/Signal14*%
X115730000Y-132000000D03*
%TO.P,U2,3,I3*%
%TO.N,/Signal13*%
X114460000Y-132000000D03*
%TO.P,U2,4,I4*%
%TO.N,/Signal12*%
X113190000Y-132000000D03*
%TO.P,U2,5,I5*%
%TO.N,/Signal11*%
X111920000Y-132000000D03*
%TO.P,U2,6,I6*%
%TO.N,/Signal10*%
X110650000Y-132000000D03*
%TO.P,U2,7,I7*%
%TO.N,/Signal9*%
X109380000Y-132000000D03*
%TO.P,U2,8,I8*%
%TO.N,/Signal8*%
X108110000Y-132000000D03*
%TO.P,U2,9,GND*%
%TO.N,MCU_GND*%
X106840000Y-132000000D03*
%TO.P,U2,10,COM*%
%TO.N,MCU_5V+*%
X106840000Y-141300000D03*
%TO.P,U2,11,O8*%
%TO.N,/M8*%
X108110000Y-141300000D03*
%TO.P,U2,12,O7*%
%TO.N,/M9*%
X109380000Y-141300000D03*
%TO.P,U2,13,O6*%
%TO.N,/M10*%
X110650000Y-141300000D03*
%TO.P,U2,14,O5*%
%TO.N,/M11*%
X111920000Y-141300000D03*
%TO.P,U2,15,O4*%
%TO.N,/M12*%
X113190000Y-141300000D03*
%TO.P,U2,16,O3*%
%TO.N,/M13*%
X114460000Y-141300000D03*
%TO.P,U2,17,O2*%
%TO.N,/M14*%
X115730000Y-141300000D03*
%TO.P,U2,18,O1*%
%TO.N,/M15*%
X117000000Y-141300000D03*
%TD*%
D19*
%TO.P,R1,2*%
%TO.N,MCU_GND*%
X118500000Y-117912500D03*
%TO.P,R1,1*%
%TO.N,Net-(A3-A)*%
X118500000Y-116087500D03*
%TD*%
D24*
%TO.N,Net-(A5-A)*%
X106500000Y-124150000D03*
X94500000Y-124000000D03*
%TO.N,MCU_SDA*%
X120500000Y-126000000D03*
%TO.N,MCU_SCL*%
X118000000Y-125500000D03*
D25*
%TO.N,MCU_3V3+*%
X120500000Y-135500000D03*
D24*
X105500000Y-119187500D03*
X101500000Y-119187500D03*
X97500000Y-119187500D03*
X89500000Y-119187500D03*
X93500000Y-119187500D03*
X85500000Y-119187500D03*
%TD*%
D26*
%TO.N,MCU_GND*%
X116479066Y-124830109D02*
X119500000Y-127851043D01*
X115410815Y-124830109D02*
X116479066Y-124830109D01*
X119500000Y-127851043D02*
X119511043Y-127840000D01*
D27*
X119511043Y-127840000D02*
X124000000Y-127840000D01*
X119500000Y-133500000D02*
X119500000Y-127851043D01*
X107000000Y-134920000D02*
X118080000Y-134920000D01*
X118080000Y-134920000D02*
X119500000Y-133500000D01*
X85760000Y-134920000D02*
X97500000Y-134920000D01*
X85340000Y-134500000D02*
X85760000Y-134920000D01*
X85340000Y-132000000D02*
X85340000Y-134500000D01*
D26*
X118500000Y-117912500D02*
X121500000Y-117912500D01*
%TO.N,Net-(A5-A)*%
X93588052Y-123911948D02*
X94411948Y-123911948D01*
X94411948Y-123911948D02*
X94500000Y-124000000D01*
X86138603Y-116462500D02*
X93588052Y-123911948D01*
D28*
%TO.N,MCU_5V+*%
X120500000Y-140000000D02*
X120500000Y-138000000D01*
X120500000Y-138000000D02*
X124000000Y-138000000D01*
X123500000Y-143000000D02*
X120500000Y-140000000D01*
X120000000Y-138000000D02*
X120500000Y-138000000D01*
X103600000Y-137900000D02*
X104500000Y-137900000D01*
D26*
X103500000Y-138000000D02*
X103600000Y-137900000D01*
%TO.N,MCU_SCL*%
X115437500Y-122850000D02*
X114500000Y-122850000D01*
X118000000Y-125412500D02*
X115437500Y-122850000D01*
X118000000Y-125500000D02*
X118000000Y-125412500D01*
%TO.N,MCU_SDA*%
X115600000Y-121100000D02*
X120500000Y-126000000D01*
X112312500Y-121100000D02*
X115600000Y-121100000D01*
X111500000Y-121912500D02*
X112312500Y-121100000D01*
%TO.N,MCU_3V3+*%
X111500000Y-120087500D02*
X114500000Y-120087500D01*
%TO.N,MCU_SCL*%
X114500000Y-122850000D02*
X114500000Y-121912500D01*
X104500000Y-122850000D02*
X114500000Y-122850000D01*
%TO.N,MCU_GND*%
X124500000Y-127340000D02*
X124000000Y-127840000D01*
X124500000Y-117912500D02*
X124500000Y-127340000D01*
X112500000Y-117912500D02*
X115500000Y-117912500D01*
X118500000Y-117912500D02*
X115500000Y-117912500D01*
X124500000Y-117912500D02*
X121500000Y-117912500D01*
X109500000Y-117912500D02*
X112500000Y-117912500D01*
%TO.N,Net-(A5-A)*%
X88287500Y-113675000D02*
X85500000Y-116462500D01*
X122087500Y-113675000D02*
X88287500Y-113675000D01*
X124500000Y-116087500D02*
X122087500Y-113675000D01*
%TO.N,Net-(A4-A)*%
X119487500Y-114075000D02*
X91837500Y-114075000D01*
X121500000Y-116087500D02*
X119487500Y-114075000D01*
X91837500Y-114075000D02*
X89500000Y-116412500D01*
%TO.N,Net-(A3-A)*%
X95437500Y-114475000D02*
X93500000Y-116412500D01*
X118500000Y-116087500D02*
X116887500Y-114475000D01*
X116887500Y-114475000D02*
X95437500Y-114475000D01*
%TO.N,Net-(A2-A)*%
X114287500Y-114875000D02*
X99037500Y-114875000D01*
X115500000Y-116087500D02*
X114287500Y-114875000D01*
X99037500Y-114875000D02*
X97500000Y-116412500D01*
%TO.N,Net-(A1-A)*%
X102637500Y-115275000D02*
X101500000Y-116412500D01*
X111687500Y-115275000D02*
X102637500Y-115275000D01*
X112500000Y-116087500D02*
X111687500Y-115275000D01*
%TO.N,Net-(A0-A)*%
X109500000Y-116087500D02*
X105825000Y-116087500D01*
X105825000Y-116087500D02*
X105500000Y-116412500D01*
%TO.N,MCU_3V3+*%
X106012500Y-120087500D02*
X111500000Y-120087500D01*
X104550000Y-121550000D02*
X106012500Y-120087500D01*
X104500000Y-121550000D02*
X104550000Y-121550000D01*
%TO.N,MCU_SDA*%
X111212500Y-122200000D02*
X111500000Y-121912500D01*
X104500000Y-122200000D02*
X111212500Y-122200000D01*
%TO.N,Net-(A5-A)*%
X104500000Y-124150000D02*
X106500000Y-124150000D01*
X84745000Y-116462500D02*
X86138603Y-116462500D01*
X85500000Y-116462500D02*
X84745000Y-116462500D01*
%TO.N,Net-(A4-A)*%
X97750000Y-124150000D02*
X98775000Y-124150000D01*
X93000000Y-119400000D02*
X97750000Y-124150000D01*
X93000000Y-119157500D02*
X93000000Y-119400000D01*
X90255000Y-116412500D02*
X93000000Y-119157500D01*
X89500000Y-116412500D02*
X90255000Y-116412500D01*
%TO.N,Net-(A3-A)*%
X96725000Y-119500000D02*
X98775000Y-121550000D01*
X95500000Y-117657500D02*
X95500000Y-119500000D01*
X95500000Y-119500000D02*
X96725000Y-119500000D01*
X94255000Y-116412500D02*
X95500000Y-117657500D01*
X93500000Y-116412500D02*
X94255000Y-116412500D01*
%TO.N,Net-(A2-A)*%
X100000000Y-121796813D02*
X99596813Y-122200000D01*
X98255000Y-116412500D02*
X100000000Y-118157500D01*
X100000000Y-118157500D02*
X100000000Y-121796813D01*
X99596813Y-122200000D02*
X98775000Y-122200000D01*
X97500000Y-116412500D02*
X98255000Y-116412500D01*
%TO.N,Net-(A1-A)*%
X100500000Y-121862499D02*
X99512499Y-122850000D01*
X100445000Y-116712500D02*
X100445000Y-118488836D01*
X100745000Y-116412500D02*
X100445000Y-116712500D01*
X101500000Y-116412500D02*
X100745000Y-116412500D01*
X100445000Y-118488836D02*
X100500000Y-118543836D01*
X100500000Y-118543836D02*
X100500000Y-121862499D01*
X99512499Y-122850000D02*
X98775000Y-122850000D01*
%TO.N,Net-(A0-A)*%
X100500000Y-123500000D02*
X98775000Y-123500000D01*
X104000000Y-117531164D02*
X104000000Y-120000000D01*
X105118664Y-116412500D02*
X104000000Y-117531164D01*
X105500000Y-116412500D02*
X105118664Y-116412500D01*
X104000000Y-120000000D02*
X100500000Y-123500000D01*
%TO.N,MCU_3V3+*%
X105500000Y-119000000D02*
X105500000Y-119187500D01*
X105500000Y-119000000D02*
X105500000Y-120550000D01*
X105500000Y-120550000D02*
X104500000Y-121550000D01*
X105500000Y-117862500D02*
X105500000Y-119000000D01*
X120540000Y-135460000D02*
X120500000Y-135500000D01*
X124000000Y-135460000D02*
X120540000Y-135460000D01*
X93500000Y-117862500D02*
X93500000Y-119137500D01*
X89500000Y-117862500D02*
X89500000Y-119137500D01*
D28*
%TO.N,MCU_5V+*%
X123500000Y-143000000D02*
X123500000Y-145000000D01*
D26*
%TO.N,MCU_GND*%
X98775000Y-130000000D02*
X97500000Y-130000000D01*
X97500000Y-130000000D02*
X97500000Y-134920000D01*
D27*
X103500000Y-134920000D02*
X97500000Y-134920000D01*
X107000000Y-134920000D02*
X103500000Y-134920000D01*
D26*
X106840000Y-132000000D02*
X106840000Y-134760000D01*
X106840000Y-134760000D02*
X107000000Y-134920000D01*
X104500000Y-136000000D02*
X104500000Y-134920000D01*
%TO.N,Net-(U3-~{OE})*%
X113555706Y-124800000D02*
X113585815Y-124830109D01*
X104500000Y-124800000D02*
X113555706Y-124800000D01*
%TO.N,/Signal0*%
X92785001Y-124800000D02*
X86610000Y-130975001D01*
X86610000Y-130975001D02*
X86610000Y-132000000D01*
X98775000Y-124800000D02*
X92785001Y-124800000D01*
%TO.N,/Signal1*%
X87880000Y-130975001D02*
X87880000Y-132000000D01*
X93405001Y-125450000D02*
X87880000Y-130975001D01*
X98775000Y-125450000D02*
X93405001Y-125450000D01*
%TO.N,/Signal2*%
X89150000Y-130975001D02*
X89150000Y-132000000D01*
X94025001Y-126100000D02*
X89150000Y-130975001D01*
X98775000Y-126100000D02*
X94025001Y-126100000D01*
%TO.N,/Signal3*%
X98775000Y-126750000D02*
X94645001Y-126750000D01*
X94645001Y-126750000D02*
X90420000Y-130975001D01*
X90420000Y-130975001D02*
X90420000Y-132000000D01*
%TO.N,/Signal4*%
X91690000Y-130975001D02*
X91690000Y-132000000D01*
X95265001Y-127400000D02*
X91690000Y-130975001D01*
X98775000Y-127400000D02*
X95265001Y-127400000D01*
%TO.N,/Signal5*%
X92960000Y-130975001D02*
X92960000Y-132000000D01*
X95885001Y-128050000D02*
X92960000Y-130975001D01*
X98775000Y-128050000D02*
X95885001Y-128050000D01*
%TO.N,/Signal6*%
X94230000Y-130975001D02*
X94230000Y-132000000D01*
X96505001Y-128700000D02*
X94230000Y-130975001D01*
X98775000Y-128700000D02*
X96505001Y-128700000D01*
%TO.N,/Signal7*%
X97125001Y-129350000D02*
X95500000Y-130975001D01*
X98775000Y-129350000D02*
X97125001Y-129350000D01*
X95500000Y-130975001D02*
X95500000Y-132000000D01*
%TO.N,/Signal15*%
X111474999Y-125450000D02*
X104500000Y-125450000D01*
X117000000Y-130975001D02*
X111474999Y-125450000D01*
X117000000Y-132000000D02*
X117000000Y-130975001D01*
%TO.N,/Signal14*%
X110854999Y-126100000D02*
X104500000Y-126100000D01*
X115730000Y-132000000D02*
X115730000Y-130975001D01*
X115730000Y-130975001D02*
X110854999Y-126100000D01*
%TO.N,/Signal13*%
X104500000Y-126750000D02*
X110234999Y-126750000D01*
X110234999Y-126750000D02*
X114460000Y-130975001D01*
X114460000Y-130975001D02*
X114460000Y-132000000D01*
%TO.N,/Signal12*%
X113190000Y-130975001D02*
X113190000Y-132000000D01*
X104500000Y-127400000D02*
X109614999Y-127400000D01*
X109614999Y-127400000D02*
X113190000Y-130975001D01*
%TO.N,/Signal11*%
X108994999Y-128050000D02*
X111920000Y-130975001D01*
X104500000Y-128050000D02*
X108994999Y-128050000D01*
X111920000Y-130975001D02*
X111920000Y-132000000D01*
%TO.N,/Signal10*%
X108374999Y-128700000D02*
X110650000Y-130975001D01*
X110650000Y-130975001D02*
X110650000Y-132000000D01*
X104500000Y-128700000D02*
X108374999Y-128700000D01*
%TO.N,/Signal9*%
X109380000Y-130975001D02*
X109380000Y-132000000D01*
X107754999Y-129350000D02*
X109380000Y-130975001D01*
X104500000Y-129350000D02*
X107754999Y-129350000D01*
%TO.N,/Signal8*%
X108110000Y-130975001D02*
X108110000Y-132000000D01*
X107134999Y-130000000D02*
X108110000Y-130975001D01*
X104500000Y-130000000D02*
X107134999Y-130000000D01*
%TO.N,MCU_5V+*%
X104500000Y-138000000D02*
X105000000Y-138000000D01*
D28*
X100460000Y-138000000D02*
X103500000Y-138000000D01*
D26*
%TO.N,/M8*%
X107500000Y-143000000D02*
X107500000Y-145000000D01*
X108110000Y-142390000D02*
X107500000Y-143000000D01*
X108110000Y-141300000D02*
X108110000Y-142390000D01*
%TO.N,/M9*%
X109380000Y-144880000D02*
X109500000Y-145000000D01*
X109380000Y-141300000D02*
X109380000Y-144880000D01*
%TO.N,/M10*%
X110650000Y-144150000D02*
X111500000Y-145000000D01*
X110650000Y-141300000D02*
X110650000Y-144150000D01*
%TO.N,/M11*%
X111920000Y-143420000D02*
X113500000Y-145000000D01*
X111920000Y-141300000D02*
X111920000Y-143420000D01*
%TO.N,/M12*%
X113190000Y-141300000D02*
X113190000Y-142690000D01*
X113190000Y-142690000D02*
X115500000Y-145000000D01*
%TO.N,/M13*%
X114460000Y-141960000D02*
X117500000Y-145000000D01*
X114460000Y-141300000D02*
X114460000Y-141960000D01*
%TO.N,/M14*%
X119034448Y-145000000D02*
X119500000Y-145000000D01*
X115730000Y-141695552D02*
X119034448Y-145000000D01*
X115730000Y-141300000D02*
X115730000Y-141695552D01*
%TO.N,/M15*%
X117800000Y-141300000D02*
X121500000Y-145000000D01*
X117000000Y-141300000D02*
X117800000Y-141300000D01*
%TO.N,MCU_5V+*%
X105700000Y-141300000D02*
X105500000Y-141500000D01*
X106840000Y-141300000D02*
X105700000Y-141300000D01*
%TO.N,MCU_GND*%
X106840000Y-132700000D02*
X106840000Y-131340000D01*
D28*
%TO.N,MCU_5V+*%
X105500000Y-138000000D02*
X120000000Y-138000000D01*
X105500000Y-141500000D02*
X105500000Y-138000000D01*
X105500000Y-145000000D02*
X105500000Y-141500000D01*
X104000000Y-138000000D02*
X105500000Y-138000000D01*
X100460000Y-138000000D02*
X100460000Y-145000000D01*
X82960000Y-138000000D02*
X100460000Y-138000000D01*
X82960000Y-138000000D02*
X82960000Y-141300000D01*
X82960000Y-133900000D02*
X82960000Y-138000000D01*
D26*
%TO.N,/M7*%
X95500000Y-142040000D02*
X95500000Y-141300000D01*
X98460000Y-145000000D02*
X95500000Y-142040000D01*
%TO.N,/M6*%
X94230000Y-142770000D02*
X94230000Y-141300000D01*
X96460000Y-145000000D02*
X94230000Y-142770000D01*
%TO.N,/M5*%
X92960000Y-143500000D02*
X92960000Y-141300000D01*
X94460000Y-145000000D02*
X92960000Y-143500000D01*
%TO.N,/M4*%
X91690000Y-144230000D02*
X91690000Y-141300000D01*
X92460000Y-145000000D02*
X91690000Y-144230000D01*
%TO.N,/M3*%
X90460000Y-141340000D02*
X90420000Y-141300000D01*
X90460000Y-145000000D02*
X90460000Y-141340000D01*
%TO.N,/M2*%
X89150000Y-143810000D02*
X89150000Y-141300000D01*
X88460000Y-144500000D02*
X89150000Y-143810000D01*
X88460000Y-145000000D02*
X88460000Y-144500000D01*
%TO.N,/M1*%
X87880000Y-143580000D02*
X87880000Y-141300000D01*
X86460000Y-145000000D02*
X87880000Y-143580000D01*
%TO.N,/M0*%
X86610000Y-142850000D02*
X86610000Y-141300000D01*
X84460000Y-145000000D02*
X86610000Y-142850000D01*
D28*
%TO.N,MCU_5V+*%
X82460000Y-141800000D02*
X82960000Y-141300000D01*
X82460000Y-145000000D02*
X82460000Y-141800000D01*
X85340000Y-141300000D02*
X82960000Y-141300000D01*
D26*
%TO.N,MCU_GND*%
X82960000Y-132000000D02*
X85340000Y-132000000D01*
%TO.N,MCU_3V3+*%
X97500000Y-117862500D02*
X97500000Y-119137500D01*
X101500000Y-119137500D02*
X101500000Y-117862500D01*
%TO.N,MCU_GND*%
X104500000Y-123500000D02*
X114080706Y-123500000D01*
X114080706Y-123500000D02*
X115410815Y-124830109D01*
%TO.N,MCU_3V3+*%
X85500000Y-117912500D02*
X85500000Y-119187500D01*
%TD*%
M02*
