%TF.GenerationSoftware,KiCad,Pcbnew,8.0.4*%
%TF.CreationDate,2024-10-03T18:10:01-05:00*%
%TF.ProjectId,Haptics PWM module,48617074-6963-4732-9050-574d206d6f64,rev?*%
%TF.SameCoordinates,Original*%
%TF.FileFunction,Copper,L1,Top*%
%TF.FilePolarity,Positive*%
%FSLAX46Y46*%
G04 Gerber Fmt 4.6, Leading zero omitted, Abs format (unit mm)*
G04 Created by KiCad (PCBNEW 8.0.4) date 2024-10-03 18:10:01*
%MOMM*%
%LPD*%
G01*
G04 APERTURE LIST*
G04 Aperture macros list*
%AMRoundRect*
0 Rectangle with rounded corners*
0 $1 Rounding radius*
0 $2 $3 $4 $5 $6 $7 $8 $9 X,Y pos of 4 corners*
0 Add a 4 corners polygon primitive as box body*
4,1,4,$2,$3,$4,$5,$6,$7,$8,$9,$2,$3,0*
0 Add four circle primitives for the rounded corners*
1,1,$1+$1,$2,$3*
1,1,$1+$1,$4,$5*
1,1,$1+$1,$6,$7*
1,1,$1+$1,$8,$9*
0 Add four rect primitives between the rounded corners*
20,1,$1+$1,$2,$3,$4,$5,0*
20,1,$1+$1,$4,$5,$6,$7,0*
20,1,$1+$1,$6,$7,$8,$9,0*
20,1,$1+$1,$8,$9,$2,$3,0*%
%AMFreePoly0*
4,1,6,1.000000,0.000000,0.500000,-0.750000,-0.500000,-0.750000,-0.500000,0.750000,0.500000,0.750000,1.000000,0.000000,1.000000,0.000000,$1*%
%AMFreePoly1*
4,1,6,0.500000,-0.750000,-0.650000,-0.750000,-0.150000,0.000000,-0.650000,0.750000,0.500000,0.750000,0.500000,-0.750000,0.500000,-0.750000,$1*%
G04 Aperture macros list end*
%TA.AperFunction,SMDPad,CuDef*%
%ADD10RoundRect,0.250000X0.450000X-0.262500X0.450000X0.262500X-0.450000X0.262500X-0.450000X-0.262500X0*%
%TD*%
%TA.AperFunction,SMDPad,CuDef*%
%ADD11RoundRect,0.100000X-0.637500X-0.100000X0.637500X-0.100000X0.637500X0.100000X-0.637500X0.100000X0*%
%TD*%
%TA.AperFunction,ComponentPad*%
%ADD12O,1.600000X1.600000*%
%TD*%
%TA.AperFunction,ComponentPad*%
%ADD13R,1.600000X1.600000*%
%TD*%
%TA.AperFunction,SMDPad,CuDef*%
%ADD14RoundRect,0.250000X-0.450000X0.262500X-0.450000X-0.262500X0.450000X-0.262500X0.450000X0.262500X0*%
%TD*%
%TA.AperFunction,ComponentPad*%
%ADD15O,1.350000X1.350000*%
%TD*%
%TA.AperFunction,ComponentPad*%
%ADD16R,1.350000X1.350000*%
%TD*%
%TA.AperFunction,ComponentPad*%
%ADD17O,1.700000X1.700000*%
%TD*%
%TA.AperFunction,ComponentPad*%
%ADD18R,1.700000X1.700000*%
%TD*%
%TA.AperFunction,SMDPad,CuDef*%
%ADD19RoundRect,0.250000X-0.250000X-0.475000X0.250000X-0.475000X0.250000X0.475000X-0.250000X0.475000X0*%
%TD*%
%TA.AperFunction,SMDPad,CuDef*%
%ADD20RoundRect,0.250000X0.250000X0.475000X-0.250000X0.475000X-0.250000X-0.475000X0.250000X-0.475000X0*%
%TD*%
%TA.AperFunction,SMDPad,CuDef*%
%ADD21FreePoly0,90.000000*%
%TD*%
%TA.AperFunction,SMDPad,CuDef*%
%ADD22FreePoly1,90.000000*%
%TD*%
%TA.AperFunction,ViaPad*%
%ADD23C,0.500000*%
%TD*%
%TA.AperFunction,ViaPad*%
%ADD24C,0.600000*%
%TD*%
%TA.AperFunction,Conductor*%
%ADD25C,0.300000*%
%TD*%
%TA.AperFunction,Conductor*%
%ADD26C,0.200000*%
%TD*%
%TA.AperFunction,Conductor*%
%ADD27C,0.500000*%
%TD*%
%TA.AperFunction,Conductor*%
%ADD28C,0.600000*%
%TD*%
%TA.AperFunction,Conductor*%
%ADD29C,0.400000*%
%TD*%
G04 APERTURE END LIST*
D10*
%TO.P,R6,1*%
%TO.N,Net-(U3-A5)*%
X99138456Y-65455167D03*
%TO.P,R6,2*%
%TO.N,MCU_GND*%
X99138456Y-63630167D03*
%TD*%
%TO.P,R5,2*%
%TO.N,MCU_GND*%
X91591776Y-64011863D03*
%TO.P,R5,1*%
%TO.N,Net-(U3-A4)*%
X91591776Y-65836863D03*
%TD*%
%TO.P,R4,2*%
%TO.N,MCU_GND*%
X95000000Y-64000000D03*
%TO.P,R4,1*%
%TO.N,Net-(U3-A3)*%
X95000000Y-65825000D03*
%TD*%
D11*
%TO.P,U3,1,A0*%
%TO.N,Net-(A0-A)*%
X100000000Y-67500000D03*
%TO.P,U3,2,A1*%
%TO.N,Net-(A1-A)*%
X100000000Y-68150000D03*
%TO.P,U3,3,A2*%
%TO.N,Net-(A2-A)*%
X100000000Y-68800000D03*
%TO.P,U3,4,A3*%
%TO.N,Net-(U3-A3)*%
X100000000Y-69450000D03*
%TO.P,U3,5,A4*%
%TO.N,Net-(U3-A4)*%
X100000000Y-70100000D03*
%TO.P,U3,6,LED0*%
%TO.N,/Signal0*%
X100000000Y-70750000D03*
%TO.P,U3,7,LED1*%
%TO.N,/Signal1*%
X100000000Y-71400000D03*
%TO.P,U3,8,LED2*%
%TO.N,/Signal2*%
X100000000Y-72050000D03*
%TO.P,U3,9,LED3*%
%TO.N,/Signal3*%
X100000000Y-72700000D03*
%TO.P,U3,10,LED4*%
%TO.N,/Signal4*%
X100000000Y-73350000D03*
%TO.P,U3,11,LED5*%
%TO.N,/Signal5*%
X100000000Y-74000000D03*
%TO.P,U3,12,LED6*%
%TO.N,/Signal6*%
X100000000Y-74650000D03*
%TO.P,U3,13,LED7*%
%TO.N,/Signal7*%
X100000000Y-75300000D03*
%TO.P,U3,14,VSS*%
%TO.N,MCU_GND*%
X100000000Y-75950000D03*
%TO.P,U3,15,LED8*%
%TO.N,/Signal8*%
X105725000Y-75950000D03*
%TO.P,U3,16,LED9*%
%TO.N,/Signal9*%
X105725000Y-75300000D03*
%TO.P,U3,17,LED10*%
%TO.N,/Signal10*%
X105725000Y-74650000D03*
%TO.P,U3,18,LED11*%
%TO.N,/Signal11*%
X105725000Y-74000000D03*
%TO.P,U3,19,LED12*%
%TO.N,/Signal12*%
X105725000Y-73350000D03*
%TO.P,U3,20,LED13*%
%TO.N,/Signal13*%
X105725000Y-72700000D03*
%TO.P,U3,21,LED14*%
%TO.N,/Signal14*%
X105725000Y-72050000D03*
%TO.P,U3,22,LED15*%
%TO.N,/Signal15*%
X105725000Y-71400000D03*
%TO.P,U3,23,~{OE}*%
%TO.N,Net-(U3-~{OE})*%
X105725000Y-70750000D03*
%TO.P,U3,24,A5*%
%TO.N,Net-(U3-A5)*%
X105725000Y-70100000D03*
%TO.P,U3,25,EXTCLK*%
%TO.N,MCU_GND*%
X105725000Y-69450000D03*
%TO.P,U3,26,SCL*%
%TO.N,MCU_SCL*%
X105725000Y-68800000D03*
%TO.P,U3,27,SDA*%
%TO.N,MCU_SDA*%
X105725000Y-68150000D03*
%TO.P,U3,28,VDD*%
%TO.N,MCU_3V3+*%
X105725000Y-67500000D03*
%TD*%
D12*
%TO.P,U2,18,O1*%
%TO.N,/M15*%
X124620000Y-60180000D03*
%TO.P,U2,17,O2*%
%TO.N,/M14*%
X124620000Y-62720000D03*
%TO.P,U2,16,O3*%
%TO.N,/M13*%
X124620000Y-65260000D03*
%TO.P,U2,15,O4*%
%TO.N,/M12*%
X124620000Y-67800000D03*
%TO.P,U2,14,O5*%
%TO.N,/M11*%
X124620000Y-70340000D03*
%TO.P,U2,13,O6*%
%TO.N,/M10*%
X124620000Y-72880000D03*
%TO.P,U2,12,O7*%
%TO.N,/M9*%
X124620000Y-75420000D03*
%TO.P,U2,11,O8*%
%TO.N,/M8*%
X124620000Y-77960000D03*
%TO.P,U2,10,COM*%
%TO.N,MCU_5V+*%
X124620000Y-80500000D03*
%TO.P,U2,9,GND*%
%TO.N,MCU_GND*%
X117000000Y-80500000D03*
%TO.P,U2,8,I8*%
%TO.N,/Signal8*%
X117000000Y-77960000D03*
%TO.P,U2,7,I7*%
%TO.N,/Signal9*%
X117000000Y-75420000D03*
%TO.P,U2,6,I6*%
%TO.N,/Signal10*%
X117000000Y-72880000D03*
%TO.P,U2,5,I5*%
%TO.N,/Signal11*%
X117000000Y-70340000D03*
%TO.P,U2,4,I4*%
%TO.N,/Signal12*%
X117000000Y-67800000D03*
%TO.P,U2,3,I3*%
%TO.N,/Signal13*%
X117000000Y-65260000D03*
%TO.P,U2,2,I2*%
%TO.N,/Signal14*%
X117000000Y-62720000D03*
D13*
%TO.P,U2,1,I1*%
%TO.N,/Signal15*%
X117000000Y-60180000D03*
%TD*%
D12*
%TO.P,U1,18,O1*%
%TO.N,/M7*%
X79930000Y-80500000D03*
%TO.P,U1,17,O2*%
%TO.N,/M6*%
X79930000Y-77960000D03*
%TO.P,U1,16,O3*%
%TO.N,/M5*%
X79930000Y-75420000D03*
%TO.P,U1,15,O4*%
%TO.N,/M4*%
X79930000Y-72880000D03*
%TO.P,U1,14,O5*%
%TO.N,/M3*%
X79930000Y-70340000D03*
%TO.P,U1,13,O6*%
%TO.N,/M2*%
X79930000Y-67800000D03*
%TO.P,U1,12,O7*%
%TO.N,/M1*%
X79930000Y-65260000D03*
%TO.P,U1,11,O8*%
%TO.N,/M0*%
X79930000Y-62720000D03*
%TO.P,U1,10,COM*%
%TO.N,MCU_5V+*%
X79930000Y-60180000D03*
%TO.P,U1,9,GND*%
%TO.N,MCU_GND*%
X87550000Y-60180000D03*
%TO.P,U1,8,I8*%
%TO.N,/Signal0*%
X87550000Y-62720000D03*
%TO.P,U1,7,I7*%
%TO.N,/Signal1*%
X87550000Y-65260000D03*
%TO.P,U1,6,I6*%
%TO.N,/Signal2*%
X87550000Y-67800000D03*
%TO.P,U1,5,I5*%
%TO.N,/Signal3*%
X87550000Y-70340000D03*
%TO.P,U1,4,I4*%
%TO.N,/Signal4*%
X87550000Y-72880000D03*
%TO.P,U1,3,I3*%
%TO.N,/Signal5*%
X87550000Y-75420000D03*
%TO.P,U1,2,I2*%
%TO.N,/Signal6*%
X87550000Y-77960000D03*
D13*
%TO.P,U1,1,I1*%
%TO.N,/Signal7*%
X87550000Y-80500000D03*
%TD*%
D14*
%TO.P,R9,1*%
%TO.N,MCU_3V3+*%
X100540790Y-54354932D03*
%TO.P,R9,2*%
%TO.N,MCU_SDA*%
X100540790Y-56179932D03*
%TD*%
%TO.P,R8,1*%
%TO.N,MCU_3V3+*%
X103723290Y-54354932D03*
%TO.P,R8,2*%
%TO.N,MCU_SCL*%
X103723290Y-56179932D03*
%TD*%
D10*
%TO.P,R7,1*%
%TO.N,Net-(U3-~{OE})*%
X111000000Y-64912500D03*
%TO.P,R7,2*%
%TO.N,MCU_GND*%
X111000000Y-63087500D03*
%TD*%
D14*
%TO.P,R3,1*%
%TO.N,Net-(A2-A)*%
X105917136Y-85314573D03*
%TO.P,R3,2*%
%TO.N,MCU_GND*%
X105917136Y-87139573D03*
%TD*%
%TO.P,R2,2*%
%TO.N,MCU_GND*%
X102000000Y-87137500D03*
%TO.P,R2,1*%
%TO.N,Net-(A1-A)*%
X102000000Y-85312500D03*
%TD*%
%TO.P,R1,1*%
%TO.N,Net-(A0-A)*%
X98000000Y-85312500D03*
%TO.P,R1,2*%
%TO.N,MCU_GND*%
X98000000Y-87137500D03*
%TD*%
D15*
%TO.P,J3,10,Pin_10*%
%TO.N,MCU_5V+*%
X129500000Y-80680000D03*
%TO.P,J3,9,Pin_9*%
%TO.N,/M8*%
X129500000Y-78680000D03*
%TO.P,J3,8,Pin_8*%
%TO.N,/M9*%
X129500000Y-76680000D03*
%TO.P,J3,7,Pin_7*%
%TO.N,/M10*%
X129500000Y-74680000D03*
%TO.P,J3,6,Pin_6*%
%TO.N,/M11*%
X129500000Y-72680000D03*
%TO.P,J3,5,Pin_5*%
%TO.N,/M12*%
X129500000Y-70680000D03*
%TO.P,J3,4,Pin_4*%
%TO.N,/M13*%
X129500000Y-68680000D03*
%TO.P,J3,3,Pin_3*%
%TO.N,/M14*%
X129500000Y-66680000D03*
%TO.P,J3,2,Pin_2*%
%TO.N,/M15*%
X129500000Y-64680000D03*
D16*
%TO.P,J3,1,Pin_1*%
%TO.N,MCU_5V+*%
X129500000Y-62680000D03*
%TD*%
%TO.P,J2,1,Pin_1*%
%TO.N,MCU_5V+*%
X72550000Y-80500000D03*
D15*
%TO.P,J2,2,Pin_2*%
%TO.N,/M7*%
X72550000Y-78500000D03*
%TO.P,J2,3,Pin_3*%
%TO.N,/M6*%
X72550000Y-76500000D03*
%TO.P,J2,4,Pin_4*%
%TO.N,/M5*%
X72550000Y-74500000D03*
%TO.P,J2,5,Pin_5*%
%TO.N,/M4*%
X72550000Y-72500000D03*
%TO.P,J2,6,Pin_6*%
%TO.N,/M3*%
X72550000Y-70500000D03*
%TO.P,J2,7,Pin_7*%
%TO.N,/M2*%
X72550000Y-68500000D03*
%TO.P,J2,8,Pin_8*%
%TO.N,/M1*%
X72550000Y-66500000D03*
%TO.P,J2,9,Pin_9*%
%TO.N,/M0*%
X72550000Y-64500000D03*
%TO.P,J2,10,Pin_10*%
%TO.N,MCU_5V+*%
X72550000Y-62500000D03*
%TD*%
D17*
%TO.P,J1,5,Pin_5*%
%TO.N,MCU_5V+*%
X108160000Y-59000000D03*
%TO.P,J1,4,Pin_4*%
%TO.N,MCU_3V3+*%
X105620000Y-59000000D03*
%TO.P,J1,3,Pin_3*%
%TO.N,MCU_SCL*%
X103080000Y-59000000D03*
%TO.P,J1,2,Pin_2*%
%TO.N,MCU_SDA*%
X100540000Y-59000000D03*
D18*
%TO.P,J1,1,Pin_1*%
%TO.N,MCU_GND*%
X98000000Y-59000000D03*
%TD*%
D19*
%TO.P,C2,1*%
%TO.N,MCU_GND*%
X120000000Y-83180000D03*
%TO.P,C2,2*%
%TO.N,MCU_5V+*%
X121900000Y-83180000D03*
%TD*%
D20*
%TO.P,C1,2*%
%TO.N,MCU_5V+*%
X83050000Y-57500000D03*
%TO.P,C1,1*%
%TO.N,MCU_GND*%
X84950000Y-57500000D03*
%TD*%
D21*
%TO.P,A0,1,A*%
%TO.N,Net-(A0-A)*%
X98000000Y-82450000D03*
D22*
%TO.P,A0,2,B*%
%TO.N,MCU_3V3+*%
X98000000Y-81000000D03*
%TD*%
D21*
%TO.P,A1,1,A*%
%TO.N,Net-(A1-A)*%
X102000000Y-82450000D03*
D22*
%TO.P,A1,2,B*%
%TO.N,MCU_3V3+*%
X102000000Y-81000000D03*
%TD*%
D21*
%TO.P,A2,1,A*%
%TO.N,Net-(A2-A)*%
X105917136Y-82467442D03*
D22*
%TO.P,A2,2,B*%
%TO.N,MCU_3V3+*%
X105917136Y-81017442D03*
%TD*%
D23*
%TO.N,Net-(U3-A5)*%
X104000000Y-65000000D03*
X104000000Y-71000000D03*
%TO.N,Net-(A0-A)*%
X100000000Y-82421432D03*
X95700000Y-67300000D03*
%TO.N,Net-(A1-A)*%
X103971590Y-82421432D03*
X96457830Y-67700000D03*
%TO.N,Net-(A2-A)*%
X108019141Y-82388878D03*
X97157818Y-68300000D03*
D24*
%TO.N,MCU_GND*%
X108055514Y-68055514D03*
%TD*%
D25*
%TO.N,MCU_GND*%
X94000000Y-81950000D02*
X94000000Y-87000000D01*
X95137500Y-87137500D02*
X98000000Y-87137500D01*
X100000000Y-75950000D02*
X94000000Y-81950000D01*
X94000000Y-87000000D02*
X95000000Y-87000000D01*
X95000000Y-87000000D02*
X95137500Y-87137500D01*
%TO.N,Net-(U3-A5)*%
X103544833Y-65455167D02*
X99138456Y-65455167D01*
X104000000Y-65000000D02*
X103544833Y-65455167D01*
X104000000Y-70956912D02*
X104000000Y-71000000D01*
X104856912Y-70100000D02*
X104000000Y-70956912D01*
X105725000Y-70100000D02*
X104856912Y-70100000D01*
D26*
%TO.N,MCU_GND*%
X110000000Y-85000000D02*
X107860427Y-87139573D01*
X103000000Y-79000000D02*
X108000000Y-79000000D01*
X103000000Y-70684730D02*
X103000000Y-79000000D01*
X104234730Y-69450000D02*
X103000000Y-70684730D01*
X108000000Y-79000000D02*
X110000000Y-81000000D01*
X107860427Y-87139573D02*
X105917136Y-87139573D01*
X105725000Y-69450000D02*
X104234730Y-69450000D01*
X110000000Y-81000000D02*
X110000000Y-85000000D01*
%TO.N,Net-(U3-~{OE})*%
X111000000Y-66838635D02*
X107088635Y-70750000D01*
X107088635Y-70750000D02*
X105725000Y-70750000D01*
X111000000Y-64912500D02*
X111000000Y-66838635D01*
D25*
%TO.N,MCU_GND*%
X98000000Y-61000000D02*
X98000000Y-59000000D01*
X99138456Y-62138456D02*
X98000000Y-61000000D01*
X99138456Y-63630167D02*
X99138456Y-62138456D01*
X96369833Y-63630167D02*
X99138456Y-63630167D01*
X96000000Y-64000000D02*
X96369833Y-63630167D01*
X95000000Y-64000000D02*
X96000000Y-64000000D01*
X94988137Y-64011863D02*
X95000000Y-64000000D01*
X91591776Y-64011863D02*
X94988137Y-64011863D01*
%TO.N,Net-(U3-A4)*%
X95100000Y-70100000D02*
X100000000Y-70100000D01*
X91591776Y-65836863D02*
X91591776Y-66591776D01*
X91591776Y-66591776D02*
X95100000Y-70100000D01*
%TO.N,Net-(U3-A3)*%
X96450000Y-69450000D02*
X100000000Y-69450000D01*
X95000000Y-68000000D02*
X96450000Y-69450000D01*
X95000000Y-65825000D02*
X95000000Y-68000000D01*
%TO.N,Net-(A0-A)*%
X99500000Y-67000000D02*
X100000000Y-67500000D01*
X96000000Y-67000000D02*
X99500000Y-67000000D01*
X95700000Y-67300000D02*
X96000000Y-67000000D01*
%TO.N,Net-(A2-A)*%
X97157818Y-68300000D02*
X97657818Y-68800000D01*
X97657818Y-68800000D02*
X100000000Y-68800000D01*
%TO.N,Net-(A1-A)*%
X99131912Y-68150000D02*
X100000000Y-68150000D01*
X96557830Y-67600000D02*
X98581912Y-67600000D01*
X98581912Y-67600000D02*
X99131912Y-68150000D01*
X96457830Y-67700000D02*
X96557830Y-67600000D01*
%TO.N,MCU_GND*%
X102864573Y-87139573D02*
X105917136Y-87139573D01*
X102862500Y-87137500D02*
X102864573Y-87139573D01*
X102000000Y-87137500D02*
X102862500Y-87137500D01*
X98000000Y-87137500D02*
X102000000Y-87137500D01*
%TO.N,MCU_3V3+*%
X102000000Y-70356912D02*
X102000000Y-80995097D01*
X104856912Y-67500000D02*
X102000000Y-70356912D01*
X105725000Y-67500000D02*
X104856912Y-67500000D01*
%TO.N,Net-(A0-A)*%
X98028568Y-82421432D02*
X98000000Y-82450000D01*
X100000000Y-82421432D02*
X98028568Y-82421432D01*
%TO.N,Net-(A1-A)*%
X103971590Y-82421432D02*
X102028568Y-82421432D01*
X102028568Y-82421432D02*
X102000000Y-82450000D01*
%TO.N,Net-(A2-A)*%
X108019141Y-82388878D02*
X105995700Y-82388878D01*
X105995700Y-82388878D02*
X105917136Y-82467442D01*
%TO.N,MCU_5V+*%
X79930000Y-57500000D02*
X79930000Y-60180000D01*
X83050000Y-57500000D02*
X79930000Y-57500000D01*
%TO.N,MCU_GND*%
X87500000Y-57500000D02*
X84950000Y-57500000D01*
X87550000Y-57550000D02*
X87500000Y-57500000D01*
X87550000Y-60180000D02*
X87550000Y-57550000D01*
%TO.N,/Signal10*%
X108209093Y-74650000D02*
X105725000Y-74650000D01*
X117000000Y-72880000D02*
X109979093Y-72880000D01*
X109979093Y-72880000D02*
X108209093Y-74650000D01*
%TO.N,/Signal11*%
X108010565Y-74000000D02*
X105725000Y-74000000D01*
X111670565Y-70340000D02*
X108010565Y-74000000D01*
X117000000Y-70340000D02*
X111670565Y-70340000D01*
%TO.N,/Signal12*%
X107812037Y-73350000D02*
X105725000Y-73350000D01*
X113362037Y-67800000D02*
X107812037Y-73350000D01*
X117000000Y-67800000D02*
X113362037Y-67800000D01*
%TO.N,/Signal13*%
X114200000Y-65260000D02*
X114200000Y-66113509D01*
X114200000Y-66113509D02*
X107613509Y-72700000D01*
X107613509Y-72700000D02*
X105725000Y-72700000D01*
X117000000Y-65260000D02*
X114200000Y-65260000D01*
%TO.N,/Signal14*%
X107414981Y-72050000D02*
X105725000Y-72050000D01*
X113600000Y-65864981D02*
X107414981Y-72050000D01*
X113600000Y-62720000D02*
X113600000Y-65864981D01*
X117000000Y-62720000D02*
X113600000Y-62720000D01*
%TO.N,/Signal15*%
X113000000Y-61180000D02*
X114000000Y-60180000D01*
X113000000Y-65616453D02*
X113000000Y-61180000D01*
X107216453Y-71400000D02*
X113000000Y-65616453D01*
X105725000Y-71400000D02*
X107216453Y-71400000D01*
X114000000Y-60180000D02*
X117000000Y-60180000D01*
%TO.N,/Signal7*%
X92700000Y-75300000D02*
X100000000Y-75300000D01*
X87550000Y-80450000D02*
X92700000Y-75300000D01*
X87550000Y-80500000D02*
X87550000Y-80450000D01*
D26*
%TO.N,MCU_GND*%
X109500000Y-64587500D02*
X111000000Y-63087500D01*
X109500000Y-66500000D02*
X109500000Y-64587500D01*
X108055514Y-67944486D02*
X109500000Y-66500000D01*
X108055514Y-68055514D02*
X108055514Y-67944486D01*
D25*
%TO.N,/Signal6*%
X91650000Y-74650000D02*
X100000000Y-74650000D01*
X90852437Y-74657563D02*
X91642437Y-74657563D01*
X87550000Y-77960000D02*
X90852437Y-74657563D01*
X91642437Y-74657563D02*
X91650000Y-74650000D01*
%TO.N,/Signal5*%
X89000000Y-75000000D02*
X90000000Y-74000000D01*
X87970000Y-75000000D02*
X89000000Y-75000000D01*
X87550000Y-75420000D02*
X87970000Y-75000000D01*
X90000000Y-74000000D02*
X100000000Y-74000000D01*
%TO.N,/Signal4*%
X91402944Y-73350000D02*
X100000000Y-73350000D01*
X90932944Y-72880000D02*
X91402944Y-73350000D01*
X87550000Y-72880000D02*
X90932944Y-72880000D01*
%TO.N,/Signal3*%
X89241472Y-70340000D02*
X87550000Y-70340000D01*
X91601472Y-72700000D02*
X89241472Y-70340000D01*
X100000000Y-72700000D02*
X91601472Y-72700000D01*
%TO.N,/Signal2*%
X91800000Y-72050000D02*
X100000000Y-72050000D01*
X87550000Y-67800000D02*
X91800000Y-72050000D01*
%TO.N,/Signal1*%
X89000000Y-68000000D02*
X92400000Y-71400000D01*
X89000000Y-66710000D02*
X89000000Y-68000000D01*
X87550000Y-65260000D02*
X89000000Y-66710000D01*
X92400000Y-71400000D02*
X100000000Y-71400000D01*
%TO.N,/Signal0*%
X92750000Y-70750000D02*
X100000000Y-70750000D01*
X89600000Y-66461472D02*
X89600000Y-67600000D01*
X89000000Y-65861472D02*
X89600000Y-66461472D01*
X89000000Y-64170000D02*
X89000000Y-65861472D01*
X89600000Y-67600000D02*
X92750000Y-70750000D01*
X87550000Y-62720000D02*
X89000000Y-64170000D01*
%TO.N,/M7*%
X77930000Y-78500000D02*
X72550000Y-78500000D01*
X79930000Y-80500000D02*
X77930000Y-78500000D01*
%TO.N,/M6*%
X78470000Y-76500000D02*
X72550000Y-76500000D01*
X79930000Y-77960000D02*
X78470000Y-76500000D01*
%TO.N,/M5*%
X79010000Y-74500000D02*
X72550000Y-74500000D01*
X79930000Y-75420000D02*
X79010000Y-74500000D01*
%TO.N,/M4*%
X79930000Y-72880000D02*
X72930000Y-72880000D01*
X72930000Y-72880000D02*
X72550000Y-72500000D01*
%TO.N,/M3*%
X72710000Y-70340000D02*
X72550000Y-70500000D01*
X79930000Y-70340000D02*
X72710000Y-70340000D01*
%TO.N,/M2*%
X79930000Y-67800000D02*
X79230000Y-68500000D01*
X79230000Y-68500000D02*
X72550000Y-68500000D01*
%TO.N,/M1*%
X79930000Y-65260000D02*
X78690000Y-66500000D01*
X78690000Y-66500000D02*
X72550000Y-66500000D01*
%TO.N,/M0*%
X78150000Y-64500000D02*
X72550000Y-64500000D01*
X79930000Y-62720000D02*
X78150000Y-64500000D01*
D26*
%TO.N,MCU_GND*%
X108000000Y-68000000D02*
X108055514Y-68055514D01*
X107912499Y-68000000D02*
X108000000Y-68000000D01*
X106462499Y-69450000D02*
X107912499Y-68000000D01*
X105725000Y-69450000D02*
X106462499Y-69450000D01*
%TO.N,MCU_SCL*%
X103723290Y-58356710D02*
X103080000Y-59000000D01*
X103723290Y-56179932D02*
X103723290Y-58356710D01*
%TO.N,MCU_SDA*%
X100540790Y-58999210D02*
X100540000Y-59000000D01*
X100540790Y-56179932D02*
X100540790Y-58999210D01*
%TO.N,MCU_3V3+*%
X105620000Y-56380000D02*
X105620000Y-59000000D01*
X106000000Y-56000000D02*
X105620000Y-56380000D01*
X105354932Y-54354932D02*
X106000000Y-55000000D01*
X106000000Y-55000000D02*
X106000000Y-56000000D01*
X103723290Y-54354932D02*
X105354932Y-54354932D01*
X100540790Y-54354932D02*
X103723290Y-54354932D01*
%TO.N,MCU_SDA*%
X108000000Y-66612499D02*
X106462499Y-68150000D01*
X108000000Y-65000000D02*
X108000000Y-66612499D01*
X106462499Y-68150000D02*
X105725000Y-68150000D01*
X106540000Y-65000000D02*
X108000000Y-65000000D01*
X100540000Y-59000000D02*
X106540000Y-65000000D01*
%TO.N,MCU_SCL*%
X106462499Y-68800000D02*
X105725000Y-68800000D01*
X109000000Y-66262499D02*
X106462499Y-68800000D01*
X108080000Y-64000000D02*
X109000000Y-64000000D01*
X109000000Y-64000000D02*
X109000000Y-66262499D01*
X103080000Y-59000000D02*
X108080000Y-64000000D01*
%TO.N,Net-(A2-A)*%
X105917136Y-85314573D02*
X105917136Y-82467442D01*
%TO.N,Net-(A1-A)*%
X102000000Y-85312500D02*
X102000000Y-82450000D01*
%TO.N,Net-(A0-A)*%
X98000000Y-85312500D02*
X98000000Y-82450000D01*
%TO.N,MCU_3V3+*%
X106297131Y-81017442D02*
X106314573Y-81000000D01*
X105917136Y-81017442D02*
X106297131Y-81017442D01*
X102000000Y-81000000D02*
X105899694Y-81000000D01*
X105899694Y-81000000D02*
X105917136Y-81017442D01*
X98000000Y-81000000D02*
X102000000Y-81000000D01*
D25*
%TO.N,/Signal8*%
X113400423Y-75950000D02*
X105725000Y-75950000D01*
X115410423Y-77960000D02*
X113400423Y-75950000D01*
X117000000Y-77960000D02*
X115410423Y-77960000D01*
%TO.N,/Signal9*%
X105731748Y-75306748D02*
X105725000Y-75300000D01*
X116886748Y-75306748D02*
X105731748Y-75306748D01*
X117000000Y-75420000D02*
X116886748Y-75306748D01*
D26*
%TO.N,MCU_GND*%
X118180000Y-83180000D02*
X120000000Y-83180000D01*
X117000000Y-82000000D02*
X118180000Y-83180000D01*
X117000000Y-80500000D02*
X117000000Y-82000000D01*
D27*
%TO.N,/M13*%
X125440000Y-65260000D02*
X128860000Y-68680000D01*
X124620000Y-65260000D02*
X125440000Y-65260000D01*
X128860000Y-68680000D02*
X129500000Y-68680000D01*
%TO.N,/M12*%
X128090000Y-70680000D02*
X129500000Y-70680000D01*
X125210000Y-67800000D02*
X128090000Y-70680000D01*
X124620000Y-67800000D02*
X125210000Y-67800000D01*
%TO.N,/M11*%
X127680000Y-72680000D02*
X129500000Y-72680000D01*
X125340000Y-70340000D02*
X127680000Y-72680000D01*
X124620000Y-70340000D02*
X125340000Y-70340000D01*
D28*
%TO.N,MCU_5V+*%
X124800000Y-80680000D02*
X124620000Y-80500000D01*
X129500000Y-80680000D02*
X124800000Y-80680000D01*
D27*
%TO.N,/M8*%
X125340000Y-78680000D02*
X124620000Y-77960000D01*
X129500000Y-78680000D02*
X125340000Y-78680000D01*
%TO.N,/M9*%
X125880000Y-76680000D02*
X124620000Y-75420000D01*
X129500000Y-76680000D02*
X125880000Y-76680000D01*
%TO.N,/M10*%
X126420000Y-74680000D02*
X124620000Y-72880000D01*
X129500000Y-74680000D02*
X126420000Y-74680000D01*
%TO.N,/M14*%
X124620000Y-62720000D02*
X128580000Y-66680000D01*
X128580000Y-66680000D02*
X129500000Y-66680000D01*
%TO.N,/M15*%
X129120000Y-64680000D02*
X129500000Y-64680000D01*
X124620000Y-60180000D02*
X129120000Y-64680000D01*
D28*
%TO.N,MCU_GND*%
X87820000Y-60180000D02*
X89000000Y-59000000D01*
X89000000Y-59000000D02*
X98000000Y-59000000D01*
D29*
X87550000Y-60180000D02*
X87820000Y-60180000D01*
%TD*%
M02*
