M48
; DRILL file {KiCad 8.0.4} date 2024-10-03T18:09:17-0500
; FORMAT={-:-/ absolute / metric / decimal}
; #@! TF.CreationDate,2024-10-03T18:09:17-05:00
; #@! TF.GenerationSoftware,Kicad,Pcbnew,8.0.4
; #@! TF.FileFunction,Plated,1,2,PTH
FMAT,2
METRIC
; #@! TA.AperFunction,Plated,PTH,ViaDrill
T1C0.300
; #@! TA.AperFunction,Plated,PTH,ComponentDrill
T2C0.800
; #@! TA.AperFunction,Plated,PTH,ComponentDrill
T3C1.000
%
G90
G05
T1
X95.7Y-67.3
X96.458Y-67.7
X97.158Y-68.3
X100.0Y-82.421
X103.972Y-82.421
X104.0Y-65.0
X104.0Y-71.0
X108.019Y-82.389
X108.056Y-68.056
T2
X72.55Y-62.5
X72.55Y-64.5
X72.55Y-66.5
X72.55Y-68.5
X72.55Y-70.5
X72.55Y-72.5
X72.55Y-74.5
X72.55Y-76.5
X72.55Y-78.5
X72.55Y-80.5
X79.93Y-60.18
X79.93Y-62.72
X79.93Y-65.26
X79.93Y-67.8
X79.93Y-70.34
X79.93Y-72.88
X79.93Y-75.42
X79.93Y-77.96
X79.93Y-80.5
X87.55Y-60.18
X87.55Y-62.72
X87.55Y-65.26
X87.55Y-67.8
X87.55Y-70.34
X87.55Y-72.88
X87.55Y-75.42
X87.55Y-77.96
X87.55Y-80.5
X117.0Y-60.18
X117.0Y-62.72
X117.0Y-65.26
X117.0Y-67.8
X117.0Y-70.34
X117.0Y-72.88
X117.0Y-75.42
X117.0Y-77.96
X117.0Y-80.5
X124.62Y-60.18
X124.62Y-62.72
X124.62Y-65.26
X124.62Y-67.8
X124.62Y-70.34
X124.62Y-72.88
X124.62Y-75.42
X124.62Y-77.96
X124.62Y-80.5
X129.5Y-62.68
X129.5Y-64.68
X129.5Y-66.68
X129.5Y-68.68
X129.5Y-70.68
X129.5Y-72.68
X129.5Y-74.68
X129.5Y-76.68
X129.5Y-78.68
X129.5Y-80.68
T3
X98.0Y-59.0
X100.54Y-59.0
X103.08Y-59.0
X105.62Y-59.0
X108.16Y-59.0
M30
