%TF.GenerationSoftware,KiCad,Pcbnew,8.0.4*%
%TF.CreationDate,2024-10-03T18:09:18-05:00*%
%TF.ProjectId,Haptics PWM module,48617074-6963-4732-9050-574d206d6f64,rev?*%
%TF.SameCoordinates,Original*%
%TF.FileFunction,Drillmap*%
%TF.FilePolarity,Positive*%
%FSLAX45Y45*%
G04 Gerber Fmt 4.5, Leading zero omitted, Abs format (unit mm)*
G04 Created by KiCad (PCBNEW 8.0.4) date 2024-10-03 18:09:18*
%MOMM*%
%LPD*%
G01*
G04 APERTURE LIST*
%ADD10C,0.050000*%
%ADD11C,0.200000*%
%ADD12C,0.100000*%
G04 APERTURE END LIST*
D10*
X7000000Y-5300000D02*
X13200000Y-5300000D01*
X13200000Y-8900000D01*
X7000000Y-8900000D01*
X7000000Y-5300000D01*
D11*
D12*
X9555000Y-6715000D02*
X9585000Y-6745000D01*
X9585000Y-6715000D02*
X9555000Y-6745000D01*
X9630783Y-6755000D02*
X9660783Y-6785000D01*
X9660783Y-6755000D02*
X9630783Y-6785000D01*
X9700782Y-6815000D02*
X9730782Y-6845000D01*
X9730782Y-6815000D02*
X9700782Y-6845000D01*
X9985000Y-8227143D02*
X10015000Y-8257143D01*
X10015000Y-8227143D02*
X9985000Y-8257143D01*
X10382159Y-8227143D02*
X10412159Y-8257143D01*
X10412159Y-8227143D02*
X10382159Y-8257143D01*
X10385000Y-6485000D02*
X10415000Y-6515000D01*
X10415000Y-6485000D02*
X10385000Y-6515000D01*
X10385000Y-7085000D02*
X10415000Y-7115000D01*
X10415000Y-7085000D02*
X10385000Y-7115000D01*
X10786914Y-8223888D02*
X10816914Y-8253888D01*
X10816914Y-8223888D02*
X10786914Y-8253888D01*
X10790551Y-6790551D02*
X10820551Y-6820551D01*
X10820551Y-6790551D02*
X10790551Y-6820551D01*
X7295000Y-6250000D02*
G75*
G02*
X7215000Y-6250000I-40000J0D01*
G01*
X7215000Y-6250000D02*
G75*
G02*
X7295000Y-6250000I40000J0D01*
G01*
X7295000Y-6450000D02*
G75*
G02*
X7215000Y-6450000I-40000J0D01*
G01*
X7215000Y-6450000D02*
G75*
G02*
X7295000Y-6450000I40000J0D01*
G01*
X7295000Y-6650000D02*
G75*
G02*
X7215000Y-6650000I-40000J0D01*
G01*
X7215000Y-6650000D02*
G75*
G02*
X7295000Y-6650000I40000J0D01*
G01*
X7295000Y-6850000D02*
G75*
G02*
X7215000Y-6850000I-40000J0D01*
G01*
X7215000Y-6850000D02*
G75*
G02*
X7295000Y-6850000I40000J0D01*
G01*
X7295000Y-7050000D02*
G75*
G02*
X7215000Y-7050000I-40000J0D01*
G01*
X7215000Y-7050000D02*
G75*
G02*
X7295000Y-7050000I40000J0D01*
G01*
X7295000Y-7250000D02*
G75*
G02*
X7215000Y-7250000I-40000J0D01*
G01*
X7215000Y-7250000D02*
G75*
G02*
X7295000Y-7250000I40000J0D01*
G01*
X7295000Y-7450000D02*
G75*
G02*
X7215000Y-7450000I-40000J0D01*
G01*
X7215000Y-7450000D02*
G75*
G02*
X7295000Y-7450000I40000J0D01*
G01*
X7295000Y-7650000D02*
G75*
G02*
X7215000Y-7650000I-40000J0D01*
G01*
X7215000Y-7650000D02*
G75*
G02*
X7295000Y-7650000I40000J0D01*
G01*
X7295000Y-7850000D02*
G75*
G02*
X7215000Y-7850000I-40000J0D01*
G01*
X7215000Y-7850000D02*
G75*
G02*
X7295000Y-7850000I40000J0D01*
G01*
X7295000Y-8050000D02*
G75*
G02*
X7215000Y-8050000I-40000J0D01*
G01*
X7215000Y-8050000D02*
G75*
G02*
X7295000Y-8050000I40000J0D01*
G01*
X8033000Y-6018000D02*
G75*
G02*
X7953000Y-6018000I-40000J0D01*
G01*
X7953000Y-6018000D02*
G75*
G02*
X8033000Y-6018000I40000J0D01*
G01*
X8033000Y-6272000D02*
G75*
G02*
X7953000Y-6272000I-40000J0D01*
G01*
X7953000Y-6272000D02*
G75*
G02*
X8033000Y-6272000I40000J0D01*
G01*
X8033000Y-6526000D02*
G75*
G02*
X7953000Y-6526000I-40000J0D01*
G01*
X7953000Y-6526000D02*
G75*
G02*
X8033000Y-6526000I40000J0D01*
G01*
X8033000Y-6780000D02*
G75*
G02*
X7953000Y-6780000I-40000J0D01*
G01*
X7953000Y-6780000D02*
G75*
G02*
X8033000Y-6780000I40000J0D01*
G01*
X8033000Y-7034000D02*
G75*
G02*
X7953000Y-7034000I-40000J0D01*
G01*
X7953000Y-7034000D02*
G75*
G02*
X8033000Y-7034000I40000J0D01*
G01*
X8033000Y-7288000D02*
G75*
G02*
X7953000Y-7288000I-40000J0D01*
G01*
X7953000Y-7288000D02*
G75*
G02*
X8033000Y-7288000I40000J0D01*
G01*
X8033000Y-7542000D02*
G75*
G02*
X7953000Y-7542000I-40000J0D01*
G01*
X7953000Y-7542000D02*
G75*
G02*
X8033000Y-7542000I40000J0D01*
G01*
X8033000Y-7796000D02*
G75*
G02*
X7953000Y-7796000I-40000J0D01*
G01*
X7953000Y-7796000D02*
G75*
G02*
X8033000Y-7796000I40000J0D01*
G01*
X8033000Y-8050000D02*
G75*
G02*
X7953000Y-8050000I-40000J0D01*
G01*
X7953000Y-8050000D02*
G75*
G02*
X8033000Y-8050000I40000J0D01*
G01*
X8795000Y-6018000D02*
G75*
G02*
X8715000Y-6018000I-40000J0D01*
G01*
X8715000Y-6018000D02*
G75*
G02*
X8795000Y-6018000I40000J0D01*
G01*
X8795000Y-6272000D02*
G75*
G02*
X8715000Y-6272000I-40000J0D01*
G01*
X8715000Y-6272000D02*
G75*
G02*
X8795000Y-6272000I40000J0D01*
G01*
X8795000Y-6526000D02*
G75*
G02*
X8715000Y-6526000I-40000J0D01*
G01*
X8715000Y-6526000D02*
G75*
G02*
X8795000Y-6526000I40000J0D01*
G01*
X8795000Y-6780000D02*
G75*
G02*
X8715000Y-6780000I-40000J0D01*
G01*
X8715000Y-6780000D02*
G75*
G02*
X8795000Y-6780000I40000J0D01*
G01*
X8795000Y-7034000D02*
G75*
G02*
X8715000Y-7034000I-40000J0D01*
G01*
X8715000Y-7034000D02*
G75*
G02*
X8795000Y-7034000I40000J0D01*
G01*
X8795000Y-7288000D02*
G75*
G02*
X8715000Y-7288000I-40000J0D01*
G01*
X8715000Y-7288000D02*
G75*
G02*
X8795000Y-7288000I40000J0D01*
G01*
X8795000Y-7542000D02*
G75*
G02*
X8715000Y-7542000I-40000J0D01*
G01*
X8715000Y-7542000D02*
G75*
G02*
X8795000Y-7542000I40000J0D01*
G01*
X8795000Y-7796000D02*
G75*
G02*
X8715000Y-7796000I-40000J0D01*
G01*
X8715000Y-7796000D02*
G75*
G02*
X8795000Y-7796000I40000J0D01*
G01*
X8795000Y-8050000D02*
G75*
G02*
X8715000Y-8050000I-40000J0D01*
G01*
X8715000Y-8050000D02*
G75*
G02*
X8795000Y-8050000I40000J0D01*
G01*
X11740000Y-6018000D02*
G75*
G02*
X11660000Y-6018000I-40000J0D01*
G01*
X11660000Y-6018000D02*
G75*
G02*
X11740000Y-6018000I40000J0D01*
G01*
X11740000Y-6272000D02*
G75*
G02*
X11660000Y-6272000I-40000J0D01*
G01*
X11660000Y-6272000D02*
G75*
G02*
X11740000Y-6272000I40000J0D01*
G01*
X11740000Y-6526000D02*
G75*
G02*
X11660000Y-6526000I-40000J0D01*
G01*
X11660000Y-6526000D02*
G75*
G02*
X11740000Y-6526000I40000J0D01*
G01*
X11740000Y-6780000D02*
G75*
G02*
X11660000Y-6780000I-40000J0D01*
G01*
X11660000Y-6780000D02*
G75*
G02*
X11740000Y-6780000I40000J0D01*
G01*
X11740000Y-7034000D02*
G75*
G02*
X11660000Y-7034000I-40000J0D01*
G01*
X11660000Y-7034000D02*
G75*
G02*
X11740000Y-7034000I40000J0D01*
G01*
X11740000Y-7288000D02*
G75*
G02*
X11660000Y-7288000I-40000J0D01*
G01*
X11660000Y-7288000D02*
G75*
G02*
X11740000Y-7288000I40000J0D01*
G01*
X11740000Y-7542000D02*
G75*
G02*
X11660000Y-7542000I-40000J0D01*
G01*
X11660000Y-7542000D02*
G75*
G02*
X11740000Y-7542000I40000J0D01*
G01*
X11740000Y-7796000D02*
G75*
G02*
X11660000Y-7796000I-40000J0D01*
G01*
X11660000Y-7796000D02*
G75*
G02*
X11740000Y-7796000I40000J0D01*
G01*
X11740000Y-8050000D02*
G75*
G02*
X11660000Y-8050000I-40000J0D01*
G01*
X11660000Y-8050000D02*
G75*
G02*
X11740000Y-8050000I40000J0D01*
G01*
X12502000Y-6018000D02*
G75*
G02*
X12422000Y-6018000I-40000J0D01*
G01*
X12422000Y-6018000D02*
G75*
G02*
X12502000Y-6018000I40000J0D01*
G01*
X12502000Y-6272000D02*
G75*
G02*
X12422000Y-6272000I-40000J0D01*
G01*
X12422000Y-6272000D02*
G75*
G02*
X12502000Y-6272000I40000J0D01*
G01*
X12502000Y-6526000D02*
G75*
G02*
X12422000Y-6526000I-40000J0D01*
G01*
X12422000Y-6526000D02*
G75*
G02*
X12502000Y-6526000I40000J0D01*
G01*
X12502000Y-6780000D02*
G75*
G02*
X12422000Y-6780000I-40000J0D01*
G01*
X12422000Y-6780000D02*
G75*
G02*
X12502000Y-6780000I40000J0D01*
G01*
X12502000Y-7034000D02*
G75*
G02*
X12422000Y-7034000I-40000J0D01*
G01*
X12422000Y-7034000D02*
G75*
G02*
X12502000Y-7034000I40000J0D01*
G01*
X12502000Y-7288000D02*
G75*
G02*
X12422000Y-7288000I-40000J0D01*
G01*
X12422000Y-7288000D02*
G75*
G02*
X12502000Y-7288000I40000J0D01*
G01*
X12502000Y-7542000D02*
G75*
G02*
X12422000Y-7542000I-40000J0D01*
G01*
X12422000Y-7542000D02*
G75*
G02*
X12502000Y-7542000I40000J0D01*
G01*
X12502000Y-7796000D02*
G75*
G02*
X12422000Y-7796000I-40000J0D01*
G01*
X12422000Y-7796000D02*
G75*
G02*
X12502000Y-7796000I40000J0D01*
G01*
X12502000Y-8050000D02*
G75*
G02*
X12422000Y-8050000I-40000J0D01*
G01*
X12422000Y-8050000D02*
G75*
G02*
X12502000Y-8050000I40000J0D01*
G01*
X12990000Y-6268000D02*
G75*
G02*
X12910000Y-6268000I-40000J0D01*
G01*
X12910000Y-6268000D02*
G75*
G02*
X12990000Y-6268000I40000J0D01*
G01*
X12990000Y-6468000D02*
G75*
G02*
X12910000Y-6468000I-40000J0D01*
G01*
X12910000Y-6468000D02*
G75*
G02*
X12990000Y-6468000I40000J0D01*
G01*
X12990000Y-6668000D02*
G75*
G02*
X12910000Y-6668000I-40000J0D01*
G01*
X12910000Y-6668000D02*
G75*
G02*
X12990000Y-6668000I40000J0D01*
G01*
X12990000Y-6868000D02*
G75*
G02*
X12910000Y-6868000I-40000J0D01*
G01*
X12910000Y-6868000D02*
G75*
G02*
X12990000Y-6868000I40000J0D01*
G01*
X12990000Y-7068000D02*
G75*
G02*
X12910000Y-7068000I-40000J0D01*
G01*
X12910000Y-7068000D02*
G75*
G02*
X12990000Y-7068000I40000J0D01*
G01*
X12990000Y-7268000D02*
G75*
G02*
X12910000Y-7268000I-40000J0D01*
G01*
X12910000Y-7268000D02*
G75*
G02*
X12990000Y-7268000I40000J0D01*
G01*
X12990000Y-7468000D02*
G75*
G02*
X12910000Y-7468000I-40000J0D01*
G01*
X12910000Y-7468000D02*
G75*
G02*
X12990000Y-7468000I40000J0D01*
G01*
X12990000Y-7668000D02*
G75*
G02*
X12910000Y-7668000I-40000J0D01*
G01*
X12910000Y-7668000D02*
G75*
G02*
X12990000Y-7668000I40000J0D01*
G01*
X12990000Y-7868000D02*
G75*
G02*
X12910000Y-7868000I-40000J0D01*
G01*
X12910000Y-7868000D02*
G75*
G02*
X12990000Y-7868000I40000J0D01*
G01*
X12990000Y-8068000D02*
G75*
G02*
X12910000Y-8068000I-40000J0D01*
G01*
X12910000Y-8068000D02*
G75*
G02*
X12990000Y-8068000I40000J0D01*
G01*
X9800000Y-5850000D02*
X9800000Y-5950000D01*
X9750000Y-5900000D02*
X9850000Y-5900000D01*
X10054000Y-5850000D02*
X10054000Y-5950000D01*
X10004000Y-5900000D02*
X10104000Y-5900000D01*
X10308000Y-5850000D02*
X10308000Y-5950000D01*
X10258000Y-5900000D02*
X10358000Y-5900000D01*
X10562000Y-5850000D02*
X10562000Y-5950000D01*
X10512000Y-5900000D02*
X10612000Y-5900000D01*
X10816000Y-5850000D02*
X10816000Y-5950000D01*
X10766000Y-5900000D02*
X10866000Y-5900000D01*
D11*
X7258277Y-9213984D02*
X7258277Y-9013984D01*
X7258277Y-9013984D02*
X7305896Y-9013984D01*
X7305896Y-9013984D02*
X7334467Y-9023508D01*
X7334467Y-9023508D02*
X7353515Y-9042555D01*
X7353515Y-9042555D02*
X7363039Y-9061603D01*
X7363039Y-9061603D02*
X7372562Y-9099698D01*
X7372562Y-9099698D02*
X7372562Y-9128270D01*
X7372562Y-9128270D02*
X7363039Y-9166365D01*
X7363039Y-9166365D02*
X7353515Y-9185412D01*
X7353515Y-9185412D02*
X7334467Y-9204460D01*
X7334467Y-9204460D02*
X7305896Y-9213984D01*
X7305896Y-9213984D02*
X7258277Y-9213984D01*
X7458277Y-9213984D02*
X7458277Y-9080650D01*
X7458277Y-9118746D02*
X7467801Y-9099698D01*
X7467801Y-9099698D02*
X7477324Y-9090174D01*
X7477324Y-9090174D02*
X7496372Y-9080650D01*
X7496372Y-9080650D02*
X7515420Y-9080650D01*
X7582086Y-9213984D02*
X7582086Y-9080650D01*
X7582086Y-9013984D02*
X7572562Y-9023508D01*
X7572562Y-9023508D02*
X7582086Y-9033031D01*
X7582086Y-9033031D02*
X7591610Y-9023508D01*
X7591610Y-9023508D02*
X7582086Y-9013984D01*
X7582086Y-9013984D02*
X7582086Y-9033031D01*
X7705896Y-9213984D02*
X7686848Y-9204460D01*
X7686848Y-9204460D02*
X7677324Y-9185412D01*
X7677324Y-9185412D02*
X7677324Y-9013984D01*
X7810658Y-9213984D02*
X7791610Y-9204460D01*
X7791610Y-9204460D02*
X7782086Y-9185412D01*
X7782086Y-9185412D02*
X7782086Y-9013984D01*
X8039229Y-9213984D02*
X8039229Y-9013984D01*
X8039229Y-9013984D02*
X8105896Y-9156841D01*
X8105896Y-9156841D02*
X8172562Y-9013984D01*
X8172562Y-9013984D02*
X8172562Y-9213984D01*
X8353515Y-9213984D02*
X8353515Y-9109222D01*
X8353515Y-9109222D02*
X8343991Y-9090174D01*
X8343991Y-9090174D02*
X8324943Y-9080650D01*
X8324943Y-9080650D02*
X8286848Y-9080650D01*
X8286848Y-9080650D02*
X8267801Y-9090174D01*
X8353515Y-9204460D02*
X8334467Y-9213984D01*
X8334467Y-9213984D02*
X8286848Y-9213984D01*
X8286848Y-9213984D02*
X8267801Y-9204460D01*
X8267801Y-9204460D02*
X8258277Y-9185412D01*
X8258277Y-9185412D02*
X8258277Y-9166365D01*
X8258277Y-9166365D02*
X8267801Y-9147317D01*
X8267801Y-9147317D02*
X8286848Y-9137793D01*
X8286848Y-9137793D02*
X8334467Y-9137793D01*
X8334467Y-9137793D02*
X8353515Y-9128270D01*
X8448753Y-9080650D02*
X8448753Y-9280650D01*
X8448753Y-9090174D02*
X8467801Y-9080650D01*
X8467801Y-9080650D02*
X8505896Y-9080650D01*
X8505896Y-9080650D02*
X8524944Y-9090174D01*
X8524944Y-9090174D02*
X8534467Y-9099698D01*
X8534467Y-9099698D02*
X8543991Y-9118746D01*
X8543991Y-9118746D02*
X8543991Y-9175889D01*
X8543991Y-9175889D02*
X8534467Y-9194936D01*
X8534467Y-9194936D02*
X8524944Y-9204460D01*
X8524944Y-9204460D02*
X8505896Y-9213984D01*
X8505896Y-9213984D02*
X8467801Y-9213984D01*
X8467801Y-9213984D02*
X8448753Y-9204460D01*
X8629705Y-9194936D02*
X8639229Y-9204460D01*
X8639229Y-9204460D02*
X8629705Y-9213984D01*
X8629705Y-9213984D02*
X8620182Y-9204460D01*
X8620182Y-9204460D02*
X8629705Y-9194936D01*
X8629705Y-9194936D02*
X8629705Y-9213984D01*
X8629705Y-9090174D02*
X8639229Y-9099698D01*
X8639229Y-9099698D02*
X8629705Y-9109222D01*
X8629705Y-9109222D02*
X8620182Y-9099698D01*
X8620182Y-9099698D02*
X8629705Y-9090174D01*
X8629705Y-9090174D02*
X8629705Y-9109222D01*
D12*
X6967500Y-9527500D02*
X6997500Y-9557500D01*
X6997500Y-9527500D02*
X6967500Y-9557500D01*
D11*
X7296372Y-9433984D02*
X7315420Y-9433984D01*
X7315420Y-9433984D02*
X7334467Y-9443508D01*
X7334467Y-9443508D02*
X7343991Y-9453031D01*
X7343991Y-9453031D02*
X7353515Y-9472079D01*
X7353515Y-9472079D02*
X7363039Y-9510174D01*
X7363039Y-9510174D02*
X7363039Y-9557793D01*
X7363039Y-9557793D02*
X7353515Y-9595889D01*
X7353515Y-9595889D02*
X7343991Y-9614936D01*
X7343991Y-9614936D02*
X7334467Y-9624460D01*
X7334467Y-9624460D02*
X7315420Y-9633984D01*
X7315420Y-9633984D02*
X7296372Y-9633984D01*
X7296372Y-9633984D02*
X7277324Y-9624460D01*
X7277324Y-9624460D02*
X7267801Y-9614936D01*
X7267801Y-9614936D02*
X7258277Y-9595889D01*
X7258277Y-9595889D02*
X7248753Y-9557793D01*
X7248753Y-9557793D02*
X7248753Y-9510174D01*
X7248753Y-9510174D02*
X7258277Y-9472079D01*
X7258277Y-9472079D02*
X7267801Y-9453031D01*
X7267801Y-9453031D02*
X7277324Y-9443508D01*
X7277324Y-9443508D02*
X7296372Y-9433984D01*
X7448753Y-9614936D02*
X7458277Y-9624460D01*
X7458277Y-9624460D02*
X7448753Y-9633984D01*
X7448753Y-9633984D02*
X7439229Y-9624460D01*
X7439229Y-9624460D02*
X7448753Y-9614936D01*
X7448753Y-9614936D02*
X7448753Y-9633984D01*
X7524943Y-9433984D02*
X7648753Y-9433984D01*
X7648753Y-9433984D02*
X7582086Y-9510174D01*
X7582086Y-9510174D02*
X7610658Y-9510174D01*
X7610658Y-9510174D02*
X7629705Y-9519698D01*
X7629705Y-9519698D02*
X7639229Y-9529222D01*
X7639229Y-9529222D02*
X7648753Y-9548270D01*
X7648753Y-9548270D02*
X7648753Y-9595889D01*
X7648753Y-9595889D02*
X7639229Y-9614936D01*
X7639229Y-9614936D02*
X7629705Y-9624460D01*
X7629705Y-9624460D02*
X7610658Y-9633984D01*
X7610658Y-9633984D02*
X7553515Y-9633984D01*
X7553515Y-9633984D02*
X7534467Y-9624460D01*
X7534467Y-9624460D02*
X7524943Y-9614936D01*
X7772562Y-9433984D02*
X7791610Y-9433984D01*
X7791610Y-9433984D02*
X7810658Y-9443508D01*
X7810658Y-9443508D02*
X7820182Y-9453031D01*
X7820182Y-9453031D02*
X7829705Y-9472079D01*
X7829705Y-9472079D02*
X7839229Y-9510174D01*
X7839229Y-9510174D02*
X7839229Y-9557793D01*
X7839229Y-9557793D02*
X7829705Y-9595889D01*
X7829705Y-9595889D02*
X7820182Y-9614936D01*
X7820182Y-9614936D02*
X7810658Y-9624460D01*
X7810658Y-9624460D02*
X7791610Y-9633984D01*
X7791610Y-9633984D02*
X7772562Y-9633984D01*
X7772562Y-9633984D02*
X7753515Y-9624460D01*
X7753515Y-9624460D02*
X7743991Y-9614936D01*
X7743991Y-9614936D02*
X7734467Y-9595889D01*
X7734467Y-9595889D02*
X7724943Y-9557793D01*
X7724943Y-9557793D02*
X7724943Y-9510174D01*
X7724943Y-9510174D02*
X7734467Y-9472079D01*
X7734467Y-9472079D02*
X7743991Y-9453031D01*
X7743991Y-9453031D02*
X7753515Y-9443508D01*
X7753515Y-9443508D02*
X7772562Y-9433984D01*
X7963039Y-9433984D02*
X7982086Y-9433984D01*
X7982086Y-9433984D02*
X8001134Y-9443508D01*
X8001134Y-9443508D02*
X8010658Y-9453031D01*
X8010658Y-9453031D02*
X8020182Y-9472079D01*
X8020182Y-9472079D02*
X8029705Y-9510174D01*
X8029705Y-9510174D02*
X8029705Y-9557793D01*
X8029705Y-9557793D02*
X8020182Y-9595889D01*
X8020182Y-9595889D02*
X8010658Y-9614936D01*
X8010658Y-9614936D02*
X8001134Y-9624460D01*
X8001134Y-9624460D02*
X7982086Y-9633984D01*
X7982086Y-9633984D02*
X7963039Y-9633984D01*
X7963039Y-9633984D02*
X7943991Y-9624460D01*
X7943991Y-9624460D02*
X7934467Y-9614936D01*
X7934467Y-9614936D02*
X7924943Y-9595889D01*
X7924943Y-9595889D02*
X7915420Y-9557793D01*
X7915420Y-9557793D02*
X7915420Y-9510174D01*
X7915420Y-9510174D02*
X7924943Y-9472079D01*
X7924943Y-9472079D02*
X7934467Y-9453031D01*
X7934467Y-9453031D02*
X7943991Y-9443508D01*
X7943991Y-9443508D02*
X7963039Y-9433984D01*
X8115420Y-9633984D02*
X8115420Y-9500650D01*
X8115420Y-9519698D02*
X8124943Y-9510174D01*
X8124943Y-9510174D02*
X8143991Y-9500650D01*
X8143991Y-9500650D02*
X8172563Y-9500650D01*
X8172563Y-9500650D02*
X8191610Y-9510174D01*
X8191610Y-9510174D02*
X8201134Y-9529222D01*
X8201134Y-9529222D02*
X8201134Y-9633984D01*
X8201134Y-9529222D02*
X8210658Y-9510174D01*
X8210658Y-9510174D02*
X8229705Y-9500650D01*
X8229705Y-9500650D02*
X8258277Y-9500650D01*
X8258277Y-9500650D02*
X8277324Y-9510174D01*
X8277324Y-9510174D02*
X8286848Y-9529222D01*
X8286848Y-9529222D02*
X8286848Y-9633984D01*
X8382086Y-9633984D02*
X8382086Y-9500650D01*
X8382086Y-9519698D02*
X8391610Y-9510174D01*
X8391610Y-9510174D02*
X8410658Y-9500650D01*
X8410658Y-9500650D02*
X8439229Y-9500650D01*
X8439229Y-9500650D02*
X8458277Y-9510174D01*
X8458277Y-9510174D02*
X8467801Y-9529222D01*
X8467801Y-9529222D02*
X8467801Y-9633984D01*
X8467801Y-9529222D02*
X8477325Y-9510174D01*
X8477325Y-9510174D02*
X8496372Y-9500650D01*
X8496372Y-9500650D02*
X8524944Y-9500650D01*
X8524944Y-9500650D02*
X8543991Y-9510174D01*
X8543991Y-9510174D02*
X8553515Y-9529222D01*
X8553515Y-9529222D02*
X8553515Y-9633984D01*
X8943991Y-9424460D02*
X8772563Y-9681603D01*
X9201134Y-9433984D02*
X9220182Y-9433984D01*
X9220182Y-9433984D02*
X9239229Y-9443508D01*
X9239229Y-9443508D02*
X9248753Y-9453031D01*
X9248753Y-9453031D02*
X9258277Y-9472079D01*
X9258277Y-9472079D02*
X9267801Y-9510174D01*
X9267801Y-9510174D02*
X9267801Y-9557793D01*
X9267801Y-9557793D02*
X9258277Y-9595889D01*
X9258277Y-9595889D02*
X9248753Y-9614936D01*
X9248753Y-9614936D02*
X9239229Y-9624460D01*
X9239229Y-9624460D02*
X9220182Y-9633984D01*
X9220182Y-9633984D02*
X9201134Y-9633984D01*
X9201134Y-9633984D02*
X9182087Y-9624460D01*
X9182087Y-9624460D02*
X9172563Y-9614936D01*
X9172563Y-9614936D02*
X9163039Y-9595889D01*
X9163039Y-9595889D02*
X9153515Y-9557793D01*
X9153515Y-9557793D02*
X9153515Y-9510174D01*
X9153515Y-9510174D02*
X9163039Y-9472079D01*
X9163039Y-9472079D02*
X9172563Y-9453031D01*
X9172563Y-9453031D02*
X9182087Y-9443508D01*
X9182087Y-9443508D02*
X9201134Y-9433984D01*
X9353515Y-9614936D02*
X9363039Y-9624460D01*
X9363039Y-9624460D02*
X9353515Y-9633984D01*
X9353515Y-9633984D02*
X9343991Y-9624460D01*
X9343991Y-9624460D02*
X9353515Y-9614936D01*
X9353515Y-9614936D02*
X9353515Y-9633984D01*
X9486848Y-9433984D02*
X9505896Y-9433984D01*
X9505896Y-9433984D02*
X9524944Y-9443508D01*
X9524944Y-9443508D02*
X9534468Y-9453031D01*
X9534468Y-9453031D02*
X9543991Y-9472079D01*
X9543991Y-9472079D02*
X9553515Y-9510174D01*
X9553515Y-9510174D02*
X9553515Y-9557793D01*
X9553515Y-9557793D02*
X9543991Y-9595889D01*
X9543991Y-9595889D02*
X9534468Y-9614936D01*
X9534468Y-9614936D02*
X9524944Y-9624460D01*
X9524944Y-9624460D02*
X9505896Y-9633984D01*
X9505896Y-9633984D02*
X9486848Y-9633984D01*
X9486848Y-9633984D02*
X9467801Y-9624460D01*
X9467801Y-9624460D02*
X9458277Y-9614936D01*
X9458277Y-9614936D02*
X9448753Y-9595889D01*
X9448753Y-9595889D02*
X9439229Y-9557793D01*
X9439229Y-9557793D02*
X9439229Y-9510174D01*
X9439229Y-9510174D02*
X9448753Y-9472079D01*
X9448753Y-9472079D02*
X9458277Y-9453031D01*
X9458277Y-9453031D02*
X9467801Y-9443508D01*
X9467801Y-9443508D02*
X9486848Y-9433984D01*
X9743991Y-9633984D02*
X9629706Y-9633984D01*
X9686848Y-9633984D02*
X9686848Y-9433984D01*
X9686848Y-9433984D02*
X9667801Y-9462555D01*
X9667801Y-9462555D02*
X9648753Y-9481603D01*
X9648753Y-9481603D02*
X9629706Y-9491127D01*
X9934468Y-9633984D02*
X9820182Y-9633984D01*
X9877325Y-9633984D02*
X9877325Y-9433984D01*
X9877325Y-9433984D02*
X9858277Y-9462555D01*
X9858277Y-9462555D02*
X9839229Y-9481603D01*
X9839229Y-9481603D02*
X9820182Y-9491127D01*
X10048753Y-9519698D02*
X10029706Y-9510174D01*
X10029706Y-9510174D02*
X10020182Y-9500650D01*
X10020182Y-9500650D02*
X10010658Y-9481603D01*
X10010658Y-9481603D02*
X10010658Y-9472079D01*
X10010658Y-9472079D02*
X10020182Y-9453031D01*
X10020182Y-9453031D02*
X10029706Y-9443508D01*
X10029706Y-9443508D02*
X10048753Y-9433984D01*
X10048753Y-9433984D02*
X10086849Y-9433984D01*
X10086849Y-9433984D02*
X10105896Y-9443508D01*
X10105896Y-9443508D02*
X10115420Y-9453031D01*
X10115420Y-9453031D02*
X10124944Y-9472079D01*
X10124944Y-9472079D02*
X10124944Y-9481603D01*
X10124944Y-9481603D02*
X10115420Y-9500650D01*
X10115420Y-9500650D02*
X10105896Y-9510174D01*
X10105896Y-9510174D02*
X10086849Y-9519698D01*
X10086849Y-9519698D02*
X10048753Y-9519698D01*
X10048753Y-9519698D02*
X10029706Y-9529222D01*
X10029706Y-9529222D02*
X10020182Y-9538746D01*
X10020182Y-9538746D02*
X10010658Y-9557793D01*
X10010658Y-9557793D02*
X10010658Y-9595889D01*
X10010658Y-9595889D02*
X10020182Y-9614936D01*
X10020182Y-9614936D02*
X10029706Y-9624460D01*
X10029706Y-9624460D02*
X10048753Y-9633984D01*
X10048753Y-9633984D02*
X10086849Y-9633984D01*
X10086849Y-9633984D02*
X10105896Y-9624460D01*
X10105896Y-9624460D02*
X10115420Y-9614936D01*
X10115420Y-9614936D02*
X10124944Y-9595889D01*
X10124944Y-9595889D02*
X10124944Y-9557793D01*
X10124944Y-9557793D02*
X10115420Y-9538746D01*
X10115420Y-9538746D02*
X10105896Y-9529222D01*
X10105896Y-9529222D02*
X10086849Y-9519698D01*
X10201134Y-9433984D02*
X10201134Y-9472079D01*
X10277325Y-9433984D02*
X10277325Y-9472079D01*
X10572563Y-9710174D02*
X10563039Y-9700650D01*
X10563039Y-9700650D02*
X10543991Y-9672079D01*
X10543991Y-9672079D02*
X10534468Y-9653031D01*
X10534468Y-9653031D02*
X10524944Y-9624460D01*
X10524944Y-9624460D02*
X10515420Y-9576841D01*
X10515420Y-9576841D02*
X10515420Y-9538746D01*
X10515420Y-9538746D02*
X10524944Y-9491127D01*
X10524944Y-9491127D02*
X10534468Y-9462555D01*
X10534468Y-9462555D02*
X10543991Y-9443508D01*
X10543991Y-9443508D02*
X10563039Y-9414936D01*
X10563039Y-9414936D02*
X10572563Y-9405412D01*
X10658277Y-9633984D02*
X10696372Y-9633984D01*
X10696372Y-9633984D02*
X10715420Y-9624460D01*
X10715420Y-9624460D02*
X10724944Y-9614936D01*
X10724944Y-9614936D02*
X10743991Y-9586365D01*
X10743991Y-9586365D02*
X10753515Y-9548270D01*
X10753515Y-9548270D02*
X10753515Y-9472079D01*
X10753515Y-9472079D02*
X10743991Y-9453031D01*
X10743991Y-9453031D02*
X10734468Y-9443508D01*
X10734468Y-9443508D02*
X10715420Y-9433984D01*
X10715420Y-9433984D02*
X10677325Y-9433984D01*
X10677325Y-9433984D02*
X10658277Y-9443508D01*
X10658277Y-9443508D02*
X10648753Y-9453031D01*
X10648753Y-9453031D02*
X10639230Y-9472079D01*
X10639230Y-9472079D02*
X10639230Y-9519698D01*
X10639230Y-9519698D02*
X10648753Y-9538746D01*
X10648753Y-9538746D02*
X10658277Y-9548270D01*
X10658277Y-9548270D02*
X10677325Y-9557793D01*
X10677325Y-9557793D02*
X10715420Y-9557793D01*
X10715420Y-9557793D02*
X10734468Y-9548270D01*
X10734468Y-9548270D02*
X10743991Y-9538746D01*
X10743991Y-9538746D02*
X10753515Y-9519698D01*
X10991611Y-9633984D02*
X10991611Y-9433984D01*
X11077325Y-9633984D02*
X11077325Y-9529222D01*
X11077325Y-9529222D02*
X11067801Y-9510174D01*
X11067801Y-9510174D02*
X11048753Y-9500650D01*
X11048753Y-9500650D02*
X11020182Y-9500650D01*
X11020182Y-9500650D02*
X11001134Y-9510174D01*
X11001134Y-9510174D02*
X10991611Y-9519698D01*
X11201134Y-9633984D02*
X11182087Y-9624460D01*
X11182087Y-9624460D02*
X11172563Y-9614936D01*
X11172563Y-9614936D02*
X11163039Y-9595889D01*
X11163039Y-9595889D02*
X11163039Y-9538746D01*
X11163039Y-9538746D02*
X11172563Y-9519698D01*
X11172563Y-9519698D02*
X11182087Y-9510174D01*
X11182087Y-9510174D02*
X11201134Y-9500650D01*
X11201134Y-9500650D02*
X11229706Y-9500650D01*
X11229706Y-9500650D02*
X11248753Y-9510174D01*
X11248753Y-9510174D02*
X11258277Y-9519698D01*
X11258277Y-9519698D02*
X11267801Y-9538746D01*
X11267801Y-9538746D02*
X11267801Y-9595889D01*
X11267801Y-9595889D02*
X11258277Y-9614936D01*
X11258277Y-9614936D02*
X11248753Y-9624460D01*
X11248753Y-9624460D02*
X11229706Y-9633984D01*
X11229706Y-9633984D02*
X11201134Y-9633984D01*
X11382087Y-9633984D02*
X11363039Y-9624460D01*
X11363039Y-9624460D02*
X11353515Y-9605412D01*
X11353515Y-9605412D02*
X11353515Y-9433984D01*
X11534468Y-9624460D02*
X11515420Y-9633984D01*
X11515420Y-9633984D02*
X11477325Y-9633984D01*
X11477325Y-9633984D02*
X11458277Y-9624460D01*
X11458277Y-9624460D02*
X11448753Y-9605412D01*
X11448753Y-9605412D02*
X11448753Y-9529222D01*
X11448753Y-9529222D02*
X11458277Y-9510174D01*
X11458277Y-9510174D02*
X11477325Y-9500650D01*
X11477325Y-9500650D02*
X11515420Y-9500650D01*
X11515420Y-9500650D02*
X11534468Y-9510174D01*
X11534468Y-9510174D02*
X11543991Y-9529222D01*
X11543991Y-9529222D02*
X11543991Y-9548270D01*
X11543991Y-9548270D02*
X11448753Y-9567317D01*
X11620182Y-9624460D02*
X11639230Y-9633984D01*
X11639230Y-9633984D02*
X11677325Y-9633984D01*
X11677325Y-9633984D02*
X11696372Y-9624460D01*
X11696372Y-9624460D02*
X11705896Y-9605412D01*
X11705896Y-9605412D02*
X11705896Y-9595889D01*
X11705896Y-9595889D02*
X11696372Y-9576841D01*
X11696372Y-9576841D02*
X11677325Y-9567317D01*
X11677325Y-9567317D02*
X11648753Y-9567317D01*
X11648753Y-9567317D02*
X11629706Y-9557793D01*
X11629706Y-9557793D02*
X11620182Y-9538746D01*
X11620182Y-9538746D02*
X11620182Y-9529222D01*
X11620182Y-9529222D02*
X11629706Y-9510174D01*
X11629706Y-9510174D02*
X11648753Y-9500650D01*
X11648753Y-9500650D02*
X11677325Y-9500650D01*
X11677325Y-9500650D02*
X11696372Y-9510174D01*
X11772563Y-9710174D02*
X11782087Y-9700650D01*
X11782087Y-9700650D02*
X11801134Y-9672079D01*
X11801134Y-9672079D02*
X11810658Y-9653031D01*
X11810658Y-9653031D02*
X11820182Y-9624460D01*
X11820182Y-9624460D02*
X11829706Y-9576841D01*
X11829706Y-9576841D02*
X11829706Y-9538746D01*
X11829706Y-9538746D02*
X11820182Y-9491127D01*
X11820182Y-9491127D02*
X11810658Y-9462555D01*
X11810658Y-9462555D02*
X11801134Y-9443508D01*
X11801134Y-9443508D02*
X11782087Y-9414936D01*
X11782087Y-9414936D02*
X11772563Y-9405412D01*
D12*
X6997500Y-9806500D02*
G75*
G02*
X6917500Y-9806500I-40000J0D01*
G01*
X6917500Y-9806500D02*
G75*
G02*
X6997500Y-9806500I40000J0D01*
G01*
D11*
X7296372Y-9697984D02*
X7315420Y-9697984D01*
X7315420Y-9697984D02*
X7334467Y-9707508D01*
X7334467Y-9707508D02*
X7343991Y-9717031D01*
X7343991Y-9717031D02*
X7353515Y-9736079D01*
X7353515Y-9736079D02*
X7363039Y-9774174D01*
X7363039Y-9774174D02*
X7363039Y-9821793D01*
X7363039Y-9821793D02*
X7353515Y-9859889D01*
X7353515Y-9859889D02*
X7343991Y-9878936D01*
X7343991Y-9878936D02*
X7334467Y-9888460D01*
X7334467Y-9888460D02*
X7315420Y-9897984D01*
X7315420Y-9897984D02*
X7296372Y-9897984D01*
X7296372Y-9897984D02*
X7277324Y-9888460D01*
X7277324Y-9888460D02*
X7267801Y-9878936D01*
X7267801Y-9878936D02*
X7258277Y-9859889D01*
X7258277Y-9859889D02*
X7248753Y-9821793D01*
X7248753Y-9821793D02*
X7248753Y-9774174D01*
X7248753Y-9774174D02*
X7258277Y-9736079D01*
X7258277Y-9736079D02*
X7267801Y-9717031D01*
X7267801Y-9717031D02*
X7277324Y-9707508D01*
X7277324Y-9707508D02*
X7296372Y-9697984D01*
X7448753Y-9878936D02*
X7458277Y-9888460D01*
X7458277Y-9888460D02*
X7448753Y-9897984D01*
X7448753Y-9897984D02*
X7439229Y-9888460D01*
X7439229Y-9888460D02*
X7448753Y-9878936D01*
X7448753Y-9878936D02*
X7448753Y-9897984D01*
X7572562Y-9783698D02*
X7553515Y-9774174D01*
X7553515Y-9774174D02*
X7543991Y-9764650D01*
X7543991Y-9764650D02*
X7534467Y-9745603D01*
X7534467Y-9745603D02*
X7534467Y-9736079D01*
X7534467Y-9736079D02*
X7543991Y-9717031D01*
X7543991Y-9717031D02*
X7553515Y-9707508D01*
X7553515Y-9707508D02*
X7572562Y-9697984D01*
X7572562Y-9697984D02*
X7610658Y-9697984D01*
X7610658Y-9697984D02*
X7629705Y-9707508D01*
X7629705Y-9707508D02*
X7639229Y-9717031D01*
X7639229Y-9717031D02*
X7648753Y-9736079D01*
X7648753Y-9736079D02*
X7648753Y-9745603D01*
X7648753Y-9745603D02*
X7639229Y-9764650D01*
X7639229Y-9764650D02*
X7629705Y-9774174D01*
X7629705Y-9774174D02*
X7610658Y-9783698D01*
X7610658Y-9783698D02*
X7572562Y-9783698D01*
X7572562Y-9783698D02*
X7553515Y-9793222D01*
X7553515Y-9793222D02*
X7543991Y-9802746D01*
X7543991Y-9802746D02*
X7534467Y-9821793D01*
X7534467Y-9821793D02*
X7534467Y-9859889D01*
X7534467Y-9859889D02*
X7543991Y-9878936D01*
X7543991Y-9878936D02*
X7553515Y-9888460D01*
X7553515Y-9888460D02*
X7572562Y-9897984D01*
X7572562Y-9897984D02*
X7610658Y-9897984D01*
X7610658Y-9897984D02*
X7629705Y-9888460D01*
X7629705Y-9888460D02*
X7639229Y-9878936D01*
X7639229Y-9878936D02*
X7648753Y-9859889D01*
X7648753Y-9859889D02*
X7648753Y-9821793D01*
X7648753Y-9821793D02*
X7639229Y-9802746D01*
X7639229Y-9802746D02*
X7629705Y-9793222D01*
X7629705Y-9793222D02*
X7610658Y-9783698D01*
X7772562Y-9697984D02*
X7791610Y-9697984D01*
X7791610Y-9697984D02*
X7810658Y-9707508D01*
X7810658Y-9707508D02*
X7820182Y-9717031D01*
X7820182Y-9717031D02*
X7829705Y-9736079D01*
X7829705Y-9736079D02*
X7839229Y-9774174D01*
X7839229Y-9774174D02*
X7839229Y-9821793D01*
X7839229Y-9821793D02*
X7829705Y-9859889D01*
X7829705Y-9859889D02*
X7820182Y-9878936D01*
X7820182Y-9878936D02*
X7810658Y-9888460D01*
X7810658Y-9888460D02*
X7791610Y-9897984D01*
X7791610Y-9897984D02*
X7772562Y-9897984D01*
X7772562Y-9897984D02*
X7753515Y-9888460D01*
X7753515Y-9888460D02*
X7743991Y-9878936D01*
X7743991Y-9878936D02*
X7734467Y-9859889D01*
X7734467Y-9859889D02*
X7724943Y-9821793D01*
X7724943Y-9821793D02*
X7724943Y-9774174D01*
X7724943Y-9774174D02*
X7734467Y-9736079D01*
X7734467Y-9736079D02*
X7743991Y-9717031D01*
X7743991Y-9717031D02*
X7753515Y-9707508D01*
X7753515Y-9707508D02*
X7772562Y-9697984D01*
X7963039Y-9697984D02*
X7982086Y-9697984D01*
X7982086Y-9697984D02*
X8001134Y-9707508D01*
X8001134Y-9707508D02*
X8010658Y-9717031D01*
X8010658Y-9717031D02*
X8020182Y-9736079D01*
X8020182Y-9736079D02*
X8029705Y-9774174D01*
X8029705Y-9774174D02*
X8029705Y-9821793D01*
X8029705Y-9821793D02*
X8020182Y-9859889D01*
X8020182Y-9859889D02*
X8010658Y-9878936D01*
X8010658Y-9878936D02*
X8001134Y-9888460D01*
X8001134Y-9888460D02*
X7982086Y-9897984D01*
X7982086Y-9897984D02*
X7963039Y-9897984D01*
X7963039Y-9897984D02*
X7943991Y-9888460D01*
X7943991Y-9888460D02*
X7934467Y-9878936D01*
X7934467Y-9878936D02*
X7924943Y-9859889D01*
X7924943Y-9859889D02*
X7915420Y-9821793D01*
X7915420Y-9821793D02*
X7915420Y-9774174D01*
X7915420Y-9774174D02*
X7924943Y-9736079D01*
X7924943Y-9736079D02*
X7934467Y-9717031D01*
X7934467Y-9717031D02*
X7943991Y-9707508D01*
X7943991Y-9707508D02*
X7963039Y-9697984D01*
X8115420Y-9897984D02*
X8115420Y-9764650D01*
X8115420Y-9783698D02*
X8124943Y-9774174D01*
X8124943Y-9774174D02*
X8143991Y-9764650D01*
X8143991Y-9764650D02*
X8172563Y-9764650D01*
X8172563Y-9764650D02*
X8191610Y-9774174D01*
X8191610Y-9774174D02*
X8201134Y-9793222D01*
X8201134Y-9793222D02*
X8201134Y-9897984D01*
X8201134Y-9793222D02*
X8210658Y-9774174D01*
X8210658Y-9774174D02*
X8229705Y-9764650D01*
X8229705Y-9764650D02*
X8258277Y-9764650D01*
X8258277Y-9764650D02*
X8277324Y-9774174D01*
X8277324Y-9774174D02*
X8286848Y-9793222D01*
X8286848Y-9793222D02*
X8286848Y-9897984D01*
X8382086Y-9897984D02*
X8382086Y-9764650D01*
X8382086Y-9783698D02*
X8391610Y-9774174D01*
X8391610Y-9774174D02*
X8410658Y-9764650D01*
X8410658Y-9764650D02*
X8439229Y-9764650D01*
X8439229Y-9764650D02*
X8458277Y-9774174D01*
X8458277Y-9774174D02*
X8467801Y-9793222D01*
X8467801Y-9793222D02*
X8467801Y-9897984D01*
X8467801Y-9793222D02*
X8477325Y-9774174D01*
X8477325Y-9774174D02*
X8496372Y-9764650D01*
X8496372Y-9764650D02*
X8524944Y-9764650D01*
X8524944Y-9764650D02*
X8543991Y-9774174D01*
X8543991Y-9774174D02*
X8553515Y-9793222D01*
X8553515Y-9793222D02*
X8553515Y-9897984D01*
X8943991Y-9688460D02*
X8772563Y-9945603D01*
X9201134Y-9697984D02*
X9220182Y-9697984D01*
X9220182Y-9697984D02*
X9239229Y-9707508D01*
X9239229Y-9707508D02*
X9248753Y-9717031D01*
X9248753Y-9717031D02*
X9258277Y-9736079D01*
X9258277Y-9736079D02*
X9267801Y-9774174D01*
X9267801Y-9774174D02*
X9267801Y-9821793D01*
X9267801Y-9821793D02*
X9258277Y-9859889D01*
X9258277Y-9859889D02*
X9248753Y-9878936D01*
X9248753Y-9878936D02*
X9239229Y-9888460D01*
X9239229Y-9888460D02*
X9220182Y-9897984D01*
X9220182Y-9897984D02*
X9201134Y-9897984D01*
X9201134Y-9897984D02*
X9182087Y-9888460D01*
X9182087Y-9888460D02*
X9172563Y-9878936D01*
X9172563Y-9878936D02*
X9163039Y-9859889D01*
X9163039Y-9859889D02*
X9153515Y-9821793D01*
X9153515Y-9821793D02*
X9153515Y-9774174D01*
X9153515Y-9774174D02*
X9163039Y-9736079D01*
X9163039Y-9736079D02*
X9172563Y-9717031D01*
X9172563Y-9717031D02*
X9182087Y-9707508D01*
X9182087Y-9707508D02*
X9201134Y-9697984D01*
X9353515Y-9878936D02*
X9363039Y-9888460D01*
X9363039Y-9888460D02*
X9353515Y-9897984D01*
X9353515Y-9897984D02*
X9343991Y-9888460D01*
X9343991Y-9888460D02*
X9353515Y-9878936D01*
X9353515Y-9878936D02*
X9353515Y-9897984D01*
X9486848Y-9697984D02*
X9505896Y-9697984D01*
X9505896Y-9697984D02*
X9524944Y-9707508D01*
X9524944Y-9707508D02*
X9534468Y-9717031D01*
X9534468Y-9717031D02*
X9543991Y-9736079D01*
X9543991Y-9736079D02*
X9553515Y-9774174D01*
X9553515Y-9774174D02*
X9553515Y-9821793D01*
X9553515Y-9821793D02*
X9543991Y-9859889D01*
X9543991Y-9859889D02*
X9534468Y-9878936D01*
X9534468Y-9878936D02*
X9524944Y-9888460D01*
X9524944Y-9888460D02*
X9505896Y-9897984D01*
X9505896Y-9897984D02*
X9486848Y-9897984D01*
X9486848Y-9897984D02*
X9467801Y-9888460D01*
X9467801Y-9888460D02*
X9458277Y-9878936D01*
X9458277Y-9878936D02*
X9448753Y-9859889D01*
X9448753Y-9859889D02*
X9439229Y-9821793D01*
X9439229Y-9821793D02*
X9439229Y-9774174D01*
X9439229Y-9774174D02*
X9448753Y-9736079D01*
X9448753Y-9736079D02*
X9458277Y-9717031D01*
X9458277Y-9717031D02*
X9467801Y-9707508D01*
X9467801Y-9707508D02*
X9486848Y-9697984D01*
X9620182Y-9697984D02*
X9743991Y-9697984D01*
X9743991Y-9697984D02*
X9677325Y-9774174D01*
X9677325Y-9774174D02*
X9705896Y-9774174D01*
X9705896Y-9774174D02*
X9724944Y-9783698D01*
X9724944Y-9783698D02*
X9734468Y-9793222D01*
X9734468Y-9793222D02*
X9743991Y-9812270D01*
X9743991Y-9812270D02*
X9743991Y-9859889D01*
X9743991Y-9859889D02*
X9734468Y-9878936D01*
X9734468Y-9878936D02*
X9724944Y-9888460D01*
X9724944Y-9888460D02*
X9705896Y-9897984D01*
X9705896Y-9897984D02*
X9648753Y-9897984D01*
X9648753Y-9897984D02*
X9629706Y-9888460D01*
X9629706Y-9888460D02*
X9620182Y-9878936D01*
X9934468Y-9897984D02*
X9820182Y-9897984D01*
X9877325Y-9897984D02*
X9877325Y-9697984D01*
X9877325Y-9697984D02*
X9858277Y-9726555D01*
X9858277Y-9726555D02*
X9839229Y-9745603D01*
X9839229Y-9745603D02*
X9820182Y-9755127D01*
X10115420Y-9697984D02*
X10020182Y-9697984D01*
X10020182Y-9697984D02*
X10010658Y-9793222D01*
X10010658Y-9793222D02*
X10020182Y-9783698D01*
X10020182Y-9783698D02*
X10039229Y-9774174D01*
X10039229Y-9774174D02*
X10086849Y-9774174D01*
X10086849Y-9774174D02*
X10105896Y-9783698D01*
X10105896Y-9783698D02*
X10115420Y-9793222D01*
X10115420Y-9793222D02*
X10124944Y-9812270D01*
X10124944Y-9812270D02*
X10124944Y-9859889D01*
X10124944Y-9859889D02*
X10115420Y-9878936D01*
X10115420Y-9878936D02*
X10105896Y-9888460D01*
X10105896Y-9888460D02*
X10086849Y-9897984D01*
X10086849Y-9897984D02*
X10039229Y-9897984D01*
X10039229Y-9897984D02*
X10020182Y-9888460D01*
X10020182Y-9888460D02*
X10010658Y-9878936D01*
X10201134Y-9697984D02*
X10201134Y-9736079D01*
X10277325Y-9697984D02*
X10277325Y-9736079D01*
X10572563Y-9974174D02*
X10563039Y-9964650D01*
X10563039Y-9964650D02*
X10543991Y-9936079D01*
X10543991Y-9936079D02*
X10534468Y-9917031D01*
X10534468Y-9917031D02*
X10524944Y-9888460D01*
X10524944Y-9888460D02*
X10515420Y-9840841D01*
X10515420Y-9840841D02*
X10515420Y-9802746D01*
X10515420Y-9802746D02*
X10524944Y-9755127D01*
X10524944Y-9755127D02*
X10534468Y-9726555D01*
X10534468Y-9726555D02*
X10543991Y-9707508D01*
X10543991Y-9707508D02*
X10563039Y-9678936D01*
X10563039Y-9678936D02*
X10572563Y-9669412D01*
X10743991Y-9697984D02*
X10648753Y-9697984D01*
X10648753Y-9697984D02*
X10639230Y-9793222D01*
X10639230Y-9793222D02*
X10648753Y-9783698D01*
X10648753Y-9783698D02*
X10667801Y-9774174D01*
X10667801Y-9774174D02*
X10715420Y-9774174D01*
X10715420Y-9774174D02*
X10734468Y-9783698D01*
X10734468Y-9783698D02*
X10743991Y-9793222D01*
X10743991Y-9793222D02*
X10753515Y-9812270D01*
X10753515Y-9812270D02*
X10753515Y-9859889D01*
X10753515Y-9859889D02*
X10743991Y-9878936D01*
X10743991Y-9878936D02*
X10734468Y-9888460D01*
X10734468Y-9888460D02*
X10715420Y-9897984D01*
X10715420Y-9897984D02*
X10667801Y-9897984D01*
X10667801Y-9897984D02*
X10648753Y-9888460D01*
X10648753Y-9888460D02*
X10639230Y-9878936D01*
X10924944Y-9697984D02*
X10886849Y-9697984D01*
X10886849Y-9697984D02*
X10867801Y-9707508D01*
X10867801Y-9707508D02*
X10858277Y-9717031D01*
X10858277Y-9717031D02*
X10839230Y-9745603D01*
X10839230Y-9745603D02*
X10829706Y-9783698D01*
X10829706Y-9783698D02*
X10829706Y-9859889D01*
X10829706Y-9859889D02*
X10839230Y-9878936D01*
X10839230Y-9878936D02*
X10848753Y-9888460D01*
X10848753Y-9888460D02*
X10867801Y-9897984D01*
X10867801Y-9897984D02*
X10905896Y-9897984D01*
X10905896Y-9897984D02*
X10924944Y-9888460D01*
X10924944Y-9888460D02*
X10934468Y-9878936D01*
X10934468Y-9878936D02*
X10943991Y-9859889D01*
X10943991Y-9859889D02*
X10943991Y-9812270D01*
X10943991Y-9812270D02*
X10934468Y-9793222D01*
X10934468Y-9793222D02*
X10924944Y-9783698D01*
X10924944Y-9783698D02*
X10905896Y-9774174D01*
X10905896Y-9774174D02*
X10867801Y-9774174D01*
X10867801Y-9774174D02*
X10848753Y-9783698D01*
X10848753Y-9783698D02*
X10839230Y-9793222D01*
X10839230Y-9793222D02*
X10829706Y-9812270D01*
X11182087Y-9897984D02*
X11182087Y-9697984D01*
X11267801Y-9897984D02*
X11267801Y-9793222D01*
X11267801Y-9793222D02*
X11258277Y-9774174D01*
X11258277Y-9774174D02*
X11239230Y-9764650D01*
X11239230Y-9764650D02*
X11210658Y-9764650D01*
X11210658Y-9764650D02*
X11191610Y-9774174D01*
X11191610Y-9774174D02*
X11182087Y-9783698D01*
X11391610Y-9897984D02*
X11372563Y-9888460D01*
X11372563Y-9888460D02*
X11363039Y-9878936D01*
X11363039Y-9878936D02*
X11353515Y-9859889D01*
X11353515Y-9859889D02*
X11353515Y-9802746D01*
X11353515Y-9802746D02*
X11363039Y-9783698D01*
X11363039Y-9783698D02*
X11372563Y-9774174D01*
X11372563Y-9774174D02*
X11391610Y-9764650D01*
X11391610Y-9764650D02*
X11420182Y-9764650D01*
X11420182Y-9764650D02*
X11439230Y-9774174D01*
X11439230Y-9774174D02*
X11448753Y-9783698D01*
X11448753Y-9783698D02*
X11458277Y-9802746D01*
X11458277Y-9802746D02*
X11458277Y-9859889D01*
X11458277Y-9859889D02*
X11448753Y-9878936D01*
X11448753Y-9878936D02*
X11439230Y-9888460D01*
X11439230Y-9888460D02*
X11420182Y-9897984D01*
X11420182Y-9897984D02*
X11391610Y-9897984D01*
X11572563Y-9897984D02*
X11553515Y-9888460D01*
X11553515Y-9888460D02*
X11543991Y-9869412D01*
X11543991Y-9869412D02*
X11543991Y-9697984D01*
X11724944Y-9888460D02*
X11705896Y-9897984D01*
X11705896Y-9897984D02*
X11667801Y-9897984D01*
X11667801Y-9897984D02*
X11648753Y-9888460D01*
X11648753Y-9888460D02*
X11639230Y-9869412D01*
X11639230Y-9869412D02*
X11639230Y-9793222D01*
X11639230Y-9793222D02*
X11648753Y-9774174D01*
X11648753Y-9774174D02*
X11667801Y-9764650D01*
X11667801Y-9764650D02*
X11705896Y-9764650D01*
X11705896Y-9764650D02*
X11724944Y-9774174D01*
X11724944Y-9774174D02*
X11734468Y-9793222D01*
X11734468Y-9793222D02*
X11734468Y-9812270D01*
X11734468Y-9812270D02*
X11639230Y-9831317D01*
X11810658Y-9888460D02*
X11829706Y-9897984D01*
X11829706Y-9897984D02*
X11867801Y-9897984D01*
X11867801Y-9897984D02*
X11886849Y-9888460D01*
X11886849Y-9888460D02*
X11896372Y-9869412D01*
X11896372Y-9869412D02*
X11896372Y-9859889D01*
X11896372Y-9859889D02*
X11886849Y-9840841D01*
X11886849Y-9840841D02*
X11867801Y-9831317D01*
X11867801Y-9831317D02*
X11839230Y-9831317D01*
X11839230Y-9831317D02*
X11820182Y-9821793D01*
X11820182Y-9821793D02*
X11810658Y-9802746D01*
X11810658Y-9802746D02*
X11810658Y-9793222D01*
X11810658Y-9793222D02*
X11820182Y-9774174D01*
X11820182Y-9774174D02*
X11839230Y-9764650D01*
X11839230Y-9764650D02*
X11867801Y-9764650D01*
X11867801Y-9764650D02*
X11886849Y-9774174D01*
X11963039Y-9974174D02*
X11972563Y-9964650D01*
X11972563Y-9964650D02*
X11991611Y-9936079D01*
X11991611Y-9936079D02*
X12001134Y-9917031D01*
X12001134Y-9917031D02*
X12010658Y-9888460D01*
X12010658Y-9888460D02*
X12020182Y-9840841D01*
X12020182Y-9840841D02*
X12020182Y-9802746D01*
X12020182Y-9802746D02*
X12010658Y-9755127D01*
X12010658Y-9755127D02*
X12001134Y-9726555D01*
X12001134Y-9726555D02*
X11991611Y-9707508D01*
X11991611Y-9707508D02*
X11972563Y-9678936D01*
X11972563Y-9678936D02*
X11963039Y-9669412D01*
D12*
X6947500Y-10020500D02*
X6947500Y-10120500D01*
X6897500Y-10070500D02*
X6997500Y-10070500D01*
D11*
X7363039Y-10161984D02*
X7248753Y-10161984D01*
X7305896Y-10161984D02*
X7305896Y-9961984D01*
X7305896Y-9961984D02*
X7286848Y-9990555D01*
X7286848Y-9990555D02*
X7267801Y-10009603D01*
X7267801Y-10009603D02*
X7248753Y-10019127D01*
X7448753Y-10142936D02*
X7458277Y-10152460D01*
X7458277Y-10152460D02*
X7448753Y-10161984D01*
X7448753Y-10161984D02*
X7439229Y-10152460D01*
X7439229Y-10152460D02*
X7448753Y-10142936D01*
X7448753Y-10142936D02*
X7448753Y-10161984D01*
X7582086Y-9961984D02*
X7601134Y-9961984D01*
X7601134Y-9961984D02*
X7620182Y-9971508D01*
X7620182Y-9971508D02*
X7629705Y-9981031D01*
X7629705Y-9981031D02*
X7639229Y-10000079D01*
X7639229Y-10000079D02*
X7648753Y-10038174D01*
X7648753Y-10038174D02*
X7648753Y-10085793D01*
X7648753Y-10085793D02*
X7639229Y-10123889D01*
X7639229Y-10123889D02*
X7629705Y-10142936D01*
X7629705Y-10142936D02*
X7620182Y-10152460D01*
X7620182Y-10152460D02*
X7601134Y-10161984D01*
X7601134Y-10161984D02*
X7582086Y-10161984D01*
X7582086Y-10161984D02*
X7563039Y-10152460D01*
X7563039Y-10152460D02*
X7553515Y-10142936D01*
X7553515Y-10142936D02*
X7543991Y-10123889D01*
X7543991Y-10123889D02*
X7534467Y-10085793D01*
X7534467Y-10085793D02*
X7534467Y-10038174D01*
X7534467Y-10038174D02*
X7543991Y-10000079D01*
X7543991Y-10000079D02*
X7553515Y-9981031D01*
X7553515Y-9981031D02*
X7563039Y-9971508D01*
X7563039Y-9971508D02*
X7582086Y-9961984D01*
X7772562Y-9961984D02*
X7791610Y-9961984D01*
X7791610Y-9961984D02*
X7810658Y-9971508D01*
X7810658Y-9971508D02*
X7820182Y-9981031D01*
X7820182Y-9981031D02*
X7829705Y-10000079D01*
X7829705Y-10000079D02*
X7839229Y-10038174D01*
X7839229Y-10038174D02*
X7839229Y-10085793D01*
X7839229Y-10085793D02*
X7829705Y-10123889D01*
X7829705Y-10123889D02*
X7820182Y-10142936D01*
X7820182Y-10142936D02*
X7810658Y-10152460D01*
X7810658Y-10152460D02*
X7791610Y-10161984D01*
X7791610Y-10161984D02*
X7772562Y-10161984D01*
X7772562Y-10161984D02*
X7753515Y-10152460D01*
X7753515Y-10152460D02*
X7743991Y-10142936D01*
X7743991Y-10142936D02*
X7734467Y-10123889D01*
X7734467Y-10123889D02*
X7724943Y-10085793D01*
X7724943Y-10085793D02*
X7724943Y-10038174D01*
X7724943Y-10038174D02*
X7734467Y-10000079D01*
X7734467Y-10000079D02*
X7743991Y-9981031D01*
X7743991Y-9981031D02*
X7753515Y-9971508D01*
X7753515Y-9971508D02*
X7772562Y-9961984D01*
X7963039Y-9961984D02*
X7982086Y-9961984D01*
X7982086Y-9961984D02*
X8001134Y-9971508D01*
X8001134Y-9971508D02*
X8010658Y-9981031D01*
X8010658Y-9981031D02*
X8020182Y-10000079D01*
X8020182Y-10000079D02*
X8029705Y-10038174D01*
X8029705Y-10038174D02*
X8029705Y-10085793D01*
X8029705Y-10085793D02*
X8020182Y-10123889D01*
X8020182Y-10123889D02*
X8010658Y-10142936D01*
X8010658Y-10142936D02*
X8001134Y-10152460D01*
X8001134Y-10152460D02*
X7982086Y-10161984D01*
X7982086Y-10161984D02*
X7963039Y-10161984D01*
X7963039Y-10161984D02*
X7943991Y-10152460D01*
X7943991Y-10152460D02*
X7934467Y-10142936D01*
X7934467Y-10142936D02*
X7924943Y-10123889D01*
X7924943Y-10123889D02*
X7915420Y-10085793D01*
X7915420Y-10085793D02*
X7915420Y-10038174D01*
X7915420Y-10038174D02*
X7924943Y-10000079D01*
X7924943Y-10000079D02*
X7934467Y-9981031D01*
X7934467Y-9981031D02*
X7943991Y-9971508D01*
X7943991Y-9971508D02*
X7963039Y-9961984D01*
X8115420Y-10161984D02*
X8115420Y-10028650D01*
X8115420Y-10047698D02*
X8124943Y-10038174D01*
X8124943Y-10038174D02*
X8143991Y-10028650D01*
X8143991Y-10028650D02*
X8172563Y-10028650D01*
X8172563Y-10028650D02*
X8191610Y-10038174D01*
X8191610Y-10038174D02*
X8201134Y-10057222D01*
X8201134Y-10057222D02*
X8201134Y-10161984D01*
X8201134Y-10057222D02*
X8210658Y-10038174D01*
X8210658Y-10038174D02*
X8229705Y-10028650D01*
X8229705Y-10028650D02*
X8258277Y-10028650D01*
X8258277Y-10028650D02*
X8277324Y-10038174D01*
X8277324Y-10038174D02*
X8286848Y-10057222D01*
X8286848Y-10057222D02*
X8286848Y-10161984D01*
X8382086Y-10161984D02*
X8382086Y-10028650D01*
X8382086Y-10047698D02*
X8391610Y-10038174D01*
X8391610Y-10038174D02*
X8410658Y-10028650D01*
X8410658Y-10028650D02*
X8439229Y-10028650D01*
X8439229Y-10028650D02*
X8458277Y-10038174D01*
X8458277Y-10038174D02*
X8467801Y-10057222D01*
X8467801Y-10057222D02*
X8467801Y-10161984D01*
X8467801Y-10057222D02*
X8477325Y-10038174D01*
X8477325Y-10038174D02*
X8496372Y-10028650D01*
X8496372Y-10028650D02*
X8524944Y-10028650D01*
X8524944Y-10028650D02*
X8543991Y-10038174D01*
X8543991Y-10038174D02*
X8553515Y-10057222D01*
X8553515Y-10057222D02*
X8553515Y-10161984D01*
X8943991Y-9952460D02*
X8772563Y-10209603D01*
X9201134Y-9961984D02*
X9220182Y-9961984D01*
X9220182Y-9961984D02*
X9239229Y-9971508D01*
X9239229Y-9971508D02*
X9248753Y-9981031D01*
X9248753Y-9981031D02*
X9258277Y-10000079D01*
X9258277Y-10000079D02*
X9267801Y-10038174D01*
X9267801Y-10038174D02*
X9267801Y-10085793D01*
X9267801Y-10085793D02*
X9258277Y-10123889D01*
X9258277Y-10123889D02*
X9248753Y-10142936D01*
X9248753Y-10142936D02*
X9239229Y-10152460D01*
X9239229Y-10152460D02*
X9220182Y-10161984D01*
X9220182Y-10161984D02*
X9201134Y-10161984D01*
X9201134Y-10161984D02*
X9182087Y-10152460D01*
X9182087Y-10152460D02*
X9172563Y-10142936D01*
X9172563Y-10142936D02*
X9163039Y-10123889D01*
X9163039Y-10123889D02*
X9153515Y-10085793D01*
X9153515Y-10085793D02*
X9153515Y-10038174D01*
X9153515Y-10038174D02*
X9163039Y-10000079D01*
X9163039Y-10000079D02*
X9172563Y-9981031D01*
X9172563Y-9981031D02*
X9182087Y-9971508D01*
X9182087Y-9971508D02*
X9201134Y-9961984D01*
X9353515Y-10142936D02*
X9363039Y-10152460D01*
X9363039Y-10152460D02*
X9353515Y-10161984D01*
X9353515Y-10161984D02*
X9343991Y-10152460D01*
X9343991Y-10152460D02*
X9353515Y-10142936D01*
X9353515Y-10142936D02*
X9353515Y-10161984D01*
X9486848Y-9961984D02*
X9505896Y-9961984D01*
X9505896Y-9961984D02*
X9524944Y-9971508D01*
X9524944Y-9971508D02*
X9534468Y-9981031D01*
X9534468Y-9981031D02*
X9543991Y-10000079D01*
X9543991Y-10000079D02*
X9553515Y-10038174D01*
X9553515Y-10038174D02*
X9553515Y-10085793D01*
X9553515Y-10085793D02*
X9543991Y-10123889D01*
X9543991Y-10123889D02*
X9534468Y-10142936D01*
X9534468Y-10142936D02*
X9524944Y-10152460D01*
X9524944Y-10152460D02*
X9505896Y-10161984D01*
X9505896Y-10161984D02*
X9486848Y-10161984D01*
X9486848Y-10161984D02*
X9467801Y-10152460D01*
X9467801Y-10152460D02*
X9458277Y-10142936D01*
X9458277Y-10142936D02*
X9448753Y-10123889D01*
X9448753Y-10123889D02*
X9439229Y-10085793D01*
X9439229Y-10085793D02*
X9439229Y-10038174D01*
X9439229Y-10038174D02*
X9448753Y-10000079D01*
X9448753Y-10000079D02*
X9458277Y-9981031D01*
X9458277Y-9981031D02*
X9467801Y-9971508D01*
X9467801Y-9971508D02*
X9486848Y-9961984D01*
X9620182Y-9961984D02*
X9743991Y-9961984D01*
X9743991Y-9961984D02*
X9677325Y-10038174D01*
X9677325Y-10038174D02*
X9705896Y-10038174D01*
X9705896Y-10038174D02*
X9724944Y-10047698D01*
X9724944Y-10047698D02*
X9734468Y-10057222D01*
X9734468Y-10057222D02*
X9743991Y-10076270D01*
X9743991Y-10076270D02*
X9743991Y-10123889D01*
X9743991Y-10123889D02*
X9734468Y-10142936D01*
X9734468Y-10142936D02*
X9724944Y-10152460D01*
X9724944Y-10152460D02*
X9705896Y-10161984D01*
X9705896Y-10161984D02*
X9648753Y-10161984D01*
X9648753Y-10161984D02*
X9629706Y-10152460D01*
X9629706Y-10152460D02*
X9620182Y-10142936D01*
X9839229Y-10161984D02*
X9877325Y-10161984D01*
X9877325Y-10161984D02*
X9896372Y-10152460D01*
X9896372Y-10152460D02*
X9905896Y-10142936D01*
X9905896Y-10142936D02*
X9924944Y-10114365D01*
X9924944Y-10114365D02*
X9934468Y-10076270D01*
X9934468Y-10076270D02*
X9934468Y-10000079D01*
X9934468Y-10000079D02*
X9924944Y-9981031D01*
X9924944Y-9981031D02*
X9915420Y-9971508D01*
X9915420Y-9971508D02*
X9896372Y-9961984D01*
X9896372Y-9961984D02*
X9858277Y-9961984D01*
X9858277Y-9961984D02*
X9839229Y-9971508D01*
X9839229Y-9971508D02*
X9829706Y-9981031D01*
X9829706Y-9981031D02*
X9820182Y-10000079D01*
X9820182Y-10000079D02*
X9820182Y-10047698D01*
X9820182Y-10047698D02*
X9829706Y-10066746D01*
X9829706Y-10066746D02*
X9839229Y-10076270D01*
X9839229Y-10076270D02*
X9858277Y-10085793D01*
X9858277Y-10085793D02*
X9896372Y-10085793D01*
X9896372Y-10085793D02*
X9915420Y-10076270D01*
X9915420Y-10076270D02*
X9924944Y-10066746D01*
X9924944Y-10066746D02*
X9934468Y-10047698D01*
X10105896Y-10028650D02*
X10105896Y-10161984D01*
X10058277Y-9952460D02*
X10010658Y-10095317D01*
X10010658Y-10095317D02*
X10134468Y-10095317D01*
X10201134Y-9961984D02*
X10201134Y-10000079D01*
X10277325Y-9961984D02*
X10277325Y-10000079D01*
X10572563Y-10238174D02*
X10563039Y-10228650D01*
X10563039Y-10228650D02*
X10543991Y-10200079D01*
X10543991Y-10200079D02*
X10534468Y-10181031D01*
X10534468Y-10181031D02*
X10524944Y-10152460D01*
X10524944Y-10152460D02*
X10515420Y-10104841D01*
X10515420Y-10104841D02*
X10515420Y-10066746D01*
X10515420Y-10066746D02*
X10524944Y-10019127D01*
X10524944Y-10019127D02*
X10534468Y-9990555D01*
X10534468Y-9990555D02*
X10543991Y-9971508D01*
X10543991Y-9971508D02*
X10563039Y-9942936D01*
X10563039Y-9942936D02*
X10572563Y-9933412D01*
X10743991Y-9961984D02*
X10648753Y-9961984D01*
X10648753Y-9961984D02*
X10639230Y-10057222D01*
X10639230Y-10057222D02*
X10648753Y-10047698D01*
X10648753Y-10047698D02*
X10667801Y-10038174D01*
X10667801Y-10038174D02*
X10715420Y-10038174D01*
X10715420Y-10038174D02*
X10734468Y-10047698D01*
X10734468Y-10047698D02*
X10743991Y-10057222D01*
X10743991Y-10057222D02*
X10753515Y-10076270D01*
X10753515Y-10076270D02*
X10753515Y-10123889D01*
X10753515Y-10123889D02*
X10743991Y-10142936D01*
X10743991Y-10142936D02*
X10734468Y-10152460D01*
X10734468Y-10152460D02*
X10715420Y-10161984D01*
X10715420Y-10161984D02*
X10667801Y-10161984D01*
X10667801Y-10161984D02*
X10648753Y-10152460D01*
X10648753Y-10152460D02*
X10639230Y-10142936D01*
X10991611Y-10161984D02*
X10991611Y-9961984D01*
X11077325Y-10161984D02*
X11077325Y-10057222D01*
X11077325Y-10057222D02*
X11067801Y-10038174D01*
X11067801Y-10038174D02*
X11048753Y-10028650D01*
X11048753Y-10028650D02*
X11020182Y-10028650D01*
X11020182Y-10028650D02*
X11001134Y-10038174D01*
X11001134Y-10038174D02*
X10991611Y-10047698D01*
X11201134Y-10161984D02*
X11182087Y-10152460D01*
X11182087Y-10152460D02*
X11172563Y-10142936D01*
X11172563Y-10142936D02*
X11163039Y-10123889D01*
X11163039Y-10123889D02*
X11163039Y-10066746D01*
X11163039Y-10066746D02*
X11172563Y-10047698D01*
X11172563Y-10047698D02*
X11182087Y-10038174D01*
X11182087Y-10038174D02*
X11201134Y-10028650D01*
X11201134Y-10028650D02*
X11229706Y-10028650D01*
X11229706Y-10028650D02*
X11248753Y-10038174D01*
X11248753Y-10038174D02*
X11258277Y-10047698D01*
X11258277Y-10047698D02*
X11267801Y-10066746D01*
X11267801Y-10066746D02*
X11267801Y-10123889D01*
X11267801Y-10123889D02*
X11258277Y-10142936D01*
X11258277Y-10142936D02*
X11248753Y-10152460D01*
X11248753Y-10152460D02*
X11229706Y-10161984D01*
X11229706Y-10161984D02*
X11201134Y-10161984D01*
X11382087Y-10161984D02*
X11363039Y-10152460D01*
X11363039Y-10152460D02*
X11353515Y-10133412D01*
X11353515Y-10133412D02*
X11353515Y-9961984D01*
X11534468Y-10152460D02*
X11515420Y-10161984D01*
X11515420Y-10161984D02*
X11477325Y-10161984D01*
X11477325Y-10161984D02*
X11458277Y-10152460D01*
X11458277Y-10152460D02*
X11448753Y-10133412D01*
X11448753Y-10133412D02*
X11448753Y-10057222D01*
X11448753Y-10057222D02*
X11458277Y-10038174D01*
X11458277Y-10038174D02*
X11477325Y-10028650D01*
X11477325Y-10028650D02*
X11515420Y-10028650D01*
X11515420Y-10028650D02*
X11534468Y-10038174D01*
X11534468Y-10038174D02*
X11543991Y-10057222D01*
X11543991Y-10057222D02*
X11543991Y-10076270D01*
X11543991Y-10076270D02*
X11448753Y-10095317D01*
X11620182Y-10152460D02*
X11639230Y-10161984D01*
X11639230Y-10161984D02*
X11677325Y-10161984D01*
X11677325Y-10161984D02*
X11696372Y-10152460D01*
X11696372Y-10152460D02*
X11705896Y-10133412D01*
X11705896Y-10133412D02*
X11705896Y-10123889D01*
X11705896Y-10123889D02*
X11696372Y-10104841D01*
X11696372Y-10104841D02*
X11677325Y-10095317D01*
X11677325Y-10095317D02*
X11648753Y-10095317D01*
X11648753Y-10095317D02*
X11629706Y-10085793D01*
X11629706Y-10085793D02*
X11620182Y-10066746D01*
X11620182Y-10066746D02*
X11620182Y-10057222D01*
X11620182Y-10057222D02*
X11629706Y-10038174D01*
X11629706Y-10038174D02*
X11648753Y-10028650D01*
X11648753Y-10028650D02*
X11677325Y-10028650D01*
X11677325Y-10028650D02*
X11696372Y-10038174D01*
X11772563Y-10238174D02*
X11782087Y-10228650D01*
X11782087Y-10228650D02*
X11801134Y-10200079D01*
X11801134Y-10200079D02*
X11810658Y-10181031D01*
X11810658Y-10181031D02*
X11820182Y-10152460D01*
X11820182Y-10152460D02*
X11829706Y-10104841D01*
X11829706Y-10104841D02*
X11829706Y-10066746D01*
X11829706Y-10066746D02*
X11820182Y-10019127D01*
X11820182Y-10019127D02*
X11810658Y-9990555D01*
X11810658Y-9990555D02*
X11801134Y-9971508D01*
X11801134Y-9971508D02*
X11782087Y-9942936D01*
X11782087Y-9942936D02*
X11772563Y-9933412D01*
M02*
