%TF.GenerationSoftware,KiCad,Pcbnew,8.0.4*%
%TF.CreationDate,2024-10-03T18:10:01-05:00*%
%TF.ProjectId,Haptics PWM module,48617074-6963-4732-9050-574d206d6f64,rev?*%
%TF.SameCoordinates,Original*%
%TF.FileFunction,Paste,Top*%
%TF.FilePolarity,Positive*%
%FSLAX46Y46*%
G04 Gerber Fmt 4.6, Leading zero omitted, Abs format (unit mm)*
G04 Created by KiCad (PCBNEW 8.0.4) date 2024-10-03 18:10:01*
%MOMM*%
%LPD*%
G01*
G04 APERTURE LIST*
G04 Aperture macros list*
%AMRoundRect*
0 Rectangle with rounded corners*
0 $1 Rounding radius*
0 $2 $3 $4 $5 $6 $7 $8 $9 X,Y pos of 4 corners*
0 Add a 4 corners polygon primitive as box body*
4,1,4,$2,$3,$4,$5,$6,$7,$8,$9,$2,$3,0*
0 Add four circle primitives for the rounded corners*
1,1,$1+$1,$2,$3*
1,1,$1+$1,$4,$5*
1,1,$1+$1,$6,$7*
1,1,$1+$1,$8,$9*
0 Add four rect primitives between the rounded corners*
20,1,$1+$1,$2,$3,$4,$5,0*
20,1,$1+$1,$4,$5,$6,$7,0*
20,1,$1+$1,$6,$7,$8,$9,0*
20,1,$1+$1,$8,$9,$2,$3,0*%
G04 Aperture macros list end*
%ADD10RoundRect,0.250000X0.450000X-0.262500X0.450000X0.262500X-0.450000X0.262500X-0.450000X-0.262500X0*%
%ADD11RoundRect,0.100000X-0.637500X-0.100000X0.637500X-0.100000X0.637500X0.100000X-0.637500X0.100000X0*%
%ADD12RoundRect,0.250000X-0.450000X0.262500X-0.450000X-0.262500X0.450000X-0.262500X0.450000X0.262500X0*%
%ADD13RoundRect,0.250000X-0.250000X-0.475000X0.250000X-0.475000X0.250000X0.475000X-0.250000X0.475000X0*%
%ADD14RoundRect,0.250000X0.250000X0.475000X-0.250000X0.475000X-0.250000X-0.475000X0.250000X-0.475000X0*%
G04 APERTURE END LIST*
D10*
%TO.C,R6*%
X99138456Y-65455167D03*
X99138456Y-63630167D03*
%TD*%
%TO.C,R5*%
X91591776Y-64011863D03*
X91591776Y-65836863D03*
%TD*%
%TO.C,R4*%
X95000000Y-64000000D03*
X95000000Y-65825000D03*
%TD*%
D11*
%TO.C,U3*%
X100000000Y-67500000D03*
X100000000Y-68150000D03*
X100000000Y-68800000D03*
X100000000Y-69450000D03*
X100000000Y-70100000D03*
X100000000Y-70750000D03*
X100000000Y-71400000D03*
X100000000Y-72050000D03*
X100000000Y-72700000D03*
X100000000Y-73350000D03*
X100000000Y-74000000D03*
X100000000Y-74650000D03*
X100000000Y-75300000D03*
X100000000Y-75950000D03*
X105725000Y-75950000D03*
X105725000Y-75300000D03*
X105725000Y-74650000D03*
X105725000Y-74000000D03*
X105725000Y-73350000D03*
X105725000Y-72700000D03*
X105725000Y-72050000D03*
X105725000Y-71400000D03*
X105725000Y-70750000D03*
X105725000Y-70100000D03*
X105725000Y-69450000D03*
X105725000Y-68800000D03*
X105725000Y-68150000D03*
X105725000Y-67500000D03*
%TD*%
D12*
%TO.C,R9*%
X100540790Y-54354932D03*
X100540790Y-56179932D03*
%TD*%
%TO.C,R8*%
X103723290Y-54354932D03*
X103723290Y-56179932D03*
%TD*%
D10*
%TO.C,R7*%
X111000000Y-64912500D03*
X111000000Y-63087500D03*
%TD*%
D12*
%TO.C,R3*%
X105917136Y-85314573D03*
X105917136Y-87139573D03*
%TD*%
%TO.C,R2*%
X102000000Y-87137500D03*
X102000000Y-85312500D03*
%TD*%
%TO.C,R1*%
X98000000Y-85312500D03*
X98000000Y-87137500D03*
%TD*%
D13*
%TO.C,C2*%
X120000000Y-83180000D03*
X121900000Y-83180000D03*
%TD*%
D14*
%TO.C,C1*%
X83050000Y-57500000D03*
X84950000Y-57500000D03*
%TD*%
M02*
